<?xml version="1.0" encoding="UTF-8"?>
<svg version="1.1" xmlns="http://www.w3.org/2000/svg" width="1024" height="1024">
<path d="M0 0 C337.92 0 675.84 0 1024 0 C1024 337.92 1024 675.84 1024 1024 C686.08 1024 348.16 1024 0 1024 C0 686.08 0 348.16 0 0 Z " fill="#FCFCFC" transform="translate(0,0)"/>
<path d="M0 0 C1.15745728 -0.00478363 2.31491455 -0.00956726 3.50744629 -0.01449585 C5.95175538 -0.0178945 8.39610995 -0.00869475 10.84033203 0.01220703 C14.58078408 0.03896973 18.31823499 0.01245445 22.05859375 -0.01953125 C24.43490245 -0.01622715 26.81120929 -0.00982092 29.1875 0 C30.3053186 -0.01012115 31.42313721 -0.02024231 32.5748291 -0.03067017 C40.2544927 0.08520151 40.2544927 0.08520151 44.24121094 2.83496094 C46.2279325 5.86897906 47.02209921 8.03300182 47.640625 11.59375 C47.84558594 12.71910156 48.05054688 13.84445313 48.26171875 15.00390625 C48.54982422 16.75380859 48.54982422 16.75380859 48.84375 18.5390625 C49.05128906 19.69792969 49.25882813 20.85679687 49.47265625 22.05078125 C50.45110145 27.57426224 51.34813704 33.10438327 52.09375 38.6640625 C53.104375 39.0353125 54.115 39.4065625 55.15625 39.7890625 C59.22922582 41.32453834 63.29260076 42.88439882 67.34375 44.4765625 C67.98884521 44.72937988 68.63394043 44.98219727 69.29858398 45.24267578 C74.58987952 47.3618314 79.55634353 49.92840166 84.5078125 52.7578125 C87.882314 53.94041725 88.91928623 53.1728868 92.09375 51.6640625 C93.51881084 50.75785051 94.91272538 49.80102177 96.2734375 48.80078125 C97.42005859 47.96450195 97.42005859 47.96450195 98.58984375 47.11132812 C99.37488281 46.53060547 100.15992188 45.94988281 100.96875 45.3515625 C103.28710836 43.65412433 105.60572286 41.95703721 107.92456055 40.26025391 C109.31798489 39.23490687 110.70544322 38.20137436 112.08520508 37.15771484 C115.87014882 34.33930063 118.34789661 32.72161934 123.08398438 33.0612793 C130.91935608 35.41131972 138.06284703 45.48420491 143.65625 51.1015625 C144.56310547 52.00455078 145.46996094 52.90753906 146.40429688 53.83789062 C150.99905111 58.43930875 155.46816159 63.08910689 159.69140625 68.03515625 C160.92764006 69.47111586 162.22533012 70.85367237 163.53125 72.2265625 C165.68029804 75.57907744 165.42499263 77.72569652 165.09375 81.6640625 C163.65673828 84.59838867 163.65673828 84.59838867 161.6640625 87.45703125 C160.95121094 88.49923828 160.23835938 89.54144531 159.50390625 90.61523438 C158.74980469 91.68322266 157.99570312 92.75121094 157.21875 93.8515625 C155.7405334 95.98974281 154.26390238 98.1290204 152.7890625 100.26953125 C152.12922363 101.20949951 151.46938477 102.14946777 150.78955078 103.11791992 C148.6285156 106.23949343 148.6285156 106.23949343 147.09375 109.6640625 C147.66925086 111.9614663 147.66925086 111.9614663 148.9453125 114.26171875 C149.60200928 115.58079224 149.60200928 115.58079224 150.27197266 116.92651367 C150.74940918 117.85052979 151.2268457 118.7745459 151.71875 119.7265625 C152.65985629 121.6180016 153.59739967 123.51121794 154.53125 125.40625 C155.20414063 126.7670166 155.20414063 126.7670166 155.890625 128.15527344 C161.09375 139.00497159 161.09375 139.00497159 161.09375 143.6640625 C161.86452881 143.79981689 162.63530762 143.93557129 163.42944336 144.07543945 C166.96465612 144.70217122 170.49792359 145.33928554 174.03125 145.9765625 C175.24361328 146.18990234 176.45597656 146.40324219 177.70507812 146.62304688 C195.39775391 149.83553814 195.39775391 149.83553814 198.67895508 153.37313843 C200.42952742 156.20777422 200.47967026 157.9533691 200.49780273 161.27124023 C200.51682899 162.95835365 200.51682899 162.95835365 200.53623962 164.67955017 C200.53183617 166.49526268 200.53183617 166.49526268 200.52734375 168.34765625 C200.5325856 169.59531265 200.53782745 170.84296906 200.54322815 172.12843323 C200.54965261 174.76733939 200.54974488 177.40538114 200.53979492 180.04418945 C200.52830972 183.41819555 200.54851097 186.79115433 200.57771206 190.16502285 C200.60051955 193.39257238 200.59360546 196.62004503 200.58984375 199.84765625 C200.60107773 201.05610703 200.61231171 202.2645578 200.62388611 203.5096283 C200.61450516 204.63752274 200.60512421 205.76541718 200.59545898 206.92749023 C200.59520973 208.41163673 200.59520973 208.41163673 200.59495544 209.92576599 C199.9494285 213.45255169 198.5813278 215.123559 196.09375 217.6640625 C192.85742188 218.87426758 192.85742188 218.87426758 189.0625 219.68359375 C188.38956909 219.83189133 187.71663818 219.9801889 187.02331543 220.13298035 C184.88361602 220.59928334 182.73922208 221.03768307 180.59375 221.4765625 C179.15197257 221.78930932 177.71056058 222.10374597 176.26953125 222.41992188 C165.85769673 224.6640625 165.85769673 224.6640625 161.09375 224.6640625 C160.99449219 225.32277344 160.89523437 225.98148438 160.79296875 226.66015625 C159.89042148 230.53758 158.43862169 234.06000602 156.90625 237.7265625 C156.59888916 238.47518555 156.29152832 239.22380859 155.97485352 239.99511719 C153.64136065 245.59262586 150.98104048 250.88325617 147.96484375 256.1484375 C146.85366841 258.6235609 146.85366841 258.6235609 147.6796875 261.07421875 C149.4173985 264.25682204 151.29393578 267.32127249 153.28125 270.3515625 C153.67691162 270.96588135 154.07257324 271.5802002 154.48022461 272.21313477 C156.90691309 275.95336529 159.47673312 279.53616453 162.15625 283.1015625 C164.20937049 286.0490165 165.11000832 287.73141838 165.96875 291.2890625 C165.06695785 294.76740366 164.33770065 295.80727793 162.00170898 298.39086914 C161.05036575 299.44529709 161.05036575 299.44529709 160.07980347 300.52102661 C154.93219795 306.07551119 149.650557 311.4927225 144.33325195 316.88452148 C142.87651391 318.36805162 141.42698942 319.85869813 139.98461914 321.35620117 C137.88277159 323.53712106 135.75884418 325.69420445 133.62890625 327.84765625 C132.67383934 328.85221107 132.67383934 328.85221107 131.69947815 329.87705994 C128.60965379 332.95337851 126.25880041 335.01157397 121.87548828 335.72827148 C118.23035389 335.66638186 116.86097564 335.60864775 114.05078125 333.453125 C113.37523193 332.95393555 112.69968262 332.45474609 112.00366211 331.94042969 C111.31151611 331.39547852 110.61937012 330.85052734 109.90625 330.2890625 C108.42499543 329.18160081 106.94321821 328.07483787 105.4609375 326.96875 C104.73100586 326.4128418 104.00107422 325.85693359 103.24902344 325.28417969 C100.07481054 322.89812658 96.80984969 320.65330872 93.53125 318.4140625 C92.47808594 317.68703125 91.42492187 316.96 90.33984375 316.2109375 C89.59863281 315.70046875 88.85742188 315.19 88.09375 314.6640625 C87.59673584 314.90527832 87.09972168 315.14649414 86.58764648 315.39501953 C85.09232947 316.11834367 83.59561486 316.8387821 82.09790039 317.55712891 C80.37428202 318.38442638 78.65343734 319.21752556 76.93530273 320.05615234 C72.88837003 322.00093355 68.94606737 323.80274372 64.6328125 325.0703125 C57.28742011 327.17007485 57.28742011 327.17007485 52.421875 332.734375 C51.52086717 335.99879567 50.88317853 339.109476 50.42089844 342.45361328 C49.94757118 345.65175136 49.25881616 348.79246314 48.5612793 351.94824219 C48.2147736 353.51940852 47.88477445 355.09433024 47.57348633 356.67285156 C46.73916524 360.71253251 46.02409788 363.70957617 43.09375 366.6640625 C40.59596252 367.17199707 40.59596252 367.17199707 37.58422852 367.18164062 C36.45618301 367.19424927 35.32813751 367.20685791 34.16590881 367.21984863 C32.33774879 367.20770325 32.33774879 367.20770325 30.47265625 367.1953125 C29.22121323 367.1991394 27.9697702 367.20296631 26.68040466 367.20690918 C24.03108623 367.20963398 21.38323936 367.20424235 18.73413086 367.18554688 C15.34313919 367.16277899 11.95341537 367.17586363 8.56247044 367.19983673 C5.324154 367.21779336 2.08598926 367.20520774 -1.15234375 367.1953125 C-2.36909286 367.20340942 -3.58584198 367.21150635 -4.83946228 367.21984863 C-6.53625877 367.20093567 -6.53625877 367.20093567 -8.26733398 367.18164062 C-9.2620018 367.17845825 -10.25666962 367.17527588 -11.28147888 367.17199707 C-14.62355304 366.52525306 -15.7964016 365.27899222 -17.90625 362.6640625 C-18.8125 360.3515625 -18.8125 360.3515625 -19.40625 357.6640625 C-19.63957031 356.62378906 -19.87289062 355.58351563 -20.11328125 354.51171875 C-20.37496094 353.24199219 -20.63664063 351.97226562 -20.90625 350.6640625 C-21.07688965 349.85050293 -21.2475293 349.03694336 -21.42333984 348.19873047 C-22.34894354 343.77351737 -23.25734772 339.34479687 -24.13671875 334.91015625 C-24.28520264 334.16435303 -24.43368652 333.4185498 -24.58666992 332.65014648 C-24.90625 330.6640625 -24.90625 330.6640625 -24.90625 327.6640625 C-26.64455078 327.50164062 -26.64455078 327.50164062 -28.41796875 327.3359375 C-32.8013106 326.78452524 -36.625383 325.5317005 -40.71875 323.9140625 C-41.4087207 323.65036865 -42.09869141 323.3866748 -42.80957031 323.11499023 C-47.89004452 321.14574552 -52.81184715 318.91696581 -57.671875 316.44921875 C-60.41044508 315.48688905 -61.24795034 315.51426191 -63.90625 316.6640625 C-66.15678104 318.1347917 -68.310755 319.63130529 -70.46875 321.2265625 C-71.08427734 321.67185303 -71.69980469 322.11714355 -72.33398438 322.57592773 C-75.27094298 324.70537458 -78.17478141 326.86903815 -81.05859375 329.0703125 C-81.99832031 329.781875 -82.93804687 330.4934375 -83.90625 331.2265625 C-84.73125 331.86722656 -85.55625 332.50789063 -86.40625 333.16796875 C-89.38195073 334.94873965 -91.4381266 335.55116786 -94.90625 335.6640625 C-100.27593069 333.21636894 -104.14328182 328.69625504 -108.234375 324.56640625 C-109.02398621 323.77633682 -109.81359741 322.9862674 -110.62713623 322.17225647 C-112.29025736 320.50612087 -113.95095403 318.83756211 -115.609375 317.16674805 C-118.15570751 314.60210889 -120.71000168 312.04561215 -123.265625 309.49023438 C-124.88068202 307.87026378 -126.4952814 306.24983677 -128.109375 304.62890625 C-128.8759845 303.86118393 -129.64259399 303.09346161 -130.43243408 302.30247498 C-131.13696716 301.59156204 -131.84150024 300.88064911 -132.56738281 300.14819336 C-133.18961731 299.52214706 -133.81185181 298.89610077 -134.45294189 298.25108337 C-136.4959929 296.02005984 -136.88691149 294.88736065 -137.15136719 291.83374023 C-136.87332203 288.23826192 -136.09976014 286.82187775 -133.984375 283.94921875 C-133.06398438 282.67208008 -133.06398438 282.67208008 -132.125 281.36914062 C-131.4753125 280.49708984 -130.825625 279.62503906 -130.15625 278.7265625 C-122.59457197 269.80240047 -122.59457197 269.80240047 -118.890625 259.29296875 C-120.43713319 255.28989178 -122.26353298 251.45131217 -124.15625 247.6015625 C-124.93532903 246.00799176 -125.71132977 244.41291271 -126.484375 242.81640625 C-126.89357178 241.99954346 -127.30276855 241.18268066 -127.72436523 240.34106445 C-128.90625 237.6640625 -128.90625 237.6640625 -129.79321289 234.49291992 C-130.82760417 231.07366054 -131.78189987 228.54592642 -133.90625 225.6640625 C-138.72301504 223.39407973 -143.62094276 222.75310601 -148.84375 222.1015625 C-150.89050726 221.79770353 -152.93416552 221.47857477 -154.97743225 221.15211487 C-156.83125164 220.86358486 -158.69088365 220.61315324 -160.55053711 220.36499023 C-165.63242033 219.30350702 -168.99033818 218.03793024 -171.90625 213.6640625 C-172.18040466 211.13504028 -172.18040466 211.13504028 -172.21264648 208.07861328 C-172.22863388 206.93377472 -172.24462128 205.78893616 -172.26109314 204.60940552 C-172.26645584 203.37189545 -172.27181854 202.13438538 -172.27734375 200.859375 C-172.28637222 199.5881076 -172.2954007 198.31684021 -172.30470276 197.00704956 C-172.31922399 194.31526529 -172.32889172 191.62390598 -172.33178711 188.93212891 C-172.33716891 185.4896058 -172.37483946 182.04825733 -172.42053127 178.60606575 C-172.45750046 175.31557204 -172.45881802 172.0250485 -172.46484375 168.734375 C-172.49414223 166.88418259 -172.49414223 166.88418259 -172.52403259 164.99661255 C-172.4737868 155.47988493 -172.4737868 155.47988493 -169.52197266 152.40991211 C-166.85880441 150.6323952 -164.96359382 149.75861355 -161.84375 149.1015625 C-160.296875 148.76511719 -160.296875 148.76511719 -158.71875 148.421875 C-157.460625 148.17179688 -156.2025 147.92171875 -154.90625 147.6640625 C-153.19774314 147.30812357 -151.48942271 146.95128908 -149.78125 146.59375 C-146.24040874 145.86290814 -142.69883054 145.1365722 -139.15234375 144.43359375 C-138.40654053 144.28510986 -137.6607373 144.13662598 -136.89233398 143.98364258 C-134.90625 143.6640625 -134.90625 143.6640625 -131.90625 143.6640625 C-131.77089844 143.1278125 -131.63554687 142.5915625 -131.49609375 142.0390625 C-129.92265302 136.31060762 -127.84105297 130.91122414 -125.46875 125.4765625 C-125.18056396 124.81205078 -124.89237793 124.14753906 -124.59545898 123.46289062 C-123.11815992 120.13390565 -121.54051818 117.02309054 -119.62109375 113.92578125 C-117.69101066 110.98811694 -117.69101066 110.98811694 -118.11035156 108.73120117 C-119.06337668 106.25596691 -120.32798622 104.44632088 -121.92578125 102.328125 C-122.53615234 101.51085937 -123.14652344 100.69359375 -123.77539062 99.8515625 C-124.41669922 99.0059375 -125.05800781 98.1603125 -125.71875 97.2890625 C-136.69977475 82.67766825 -136.69977475 82.67766825 -137.59375 78.2890625 C-136.5795811 72.94162649 -133.64468083 70.47195742 -129.90625 66.6640625 C-128.98545233 65.66394391 -128.0690557 64.65976188 -127.15625 63.65234375 C-118.70170524 54.33109631 -110.06314363 45.16545438 -100.46484375 37.00390625 C-99.23121821 35.94342114 -98.05656749 34.81437999 -96.90625 33.6640625 C-92.8400482 32.70657435 -89.23320818 32.9749345 -85.51904297 34.90380859 C-83.04032445 36.62873485 -80.68815792 38.44827594 -78.34375 40.3515625 C-69.2644674 48.64079809 -69.2644674 48.64079809 -58.3359375 52.6796875 C-55.17901263 51.3600726 -52.09356704 49.93699006 -49.03125 48.4140625 C-30.91320343 39.6640625 -30.91320343 39.6640625 -23.90625 39.6640625 C-23.73609375 38.5503125 -23.5659375 37.4365625 -23.390625 36.2890625 C-22.15873054 28.43248664 -20.82073843 20.60235287 -19.03125 12.8515625 C-18.74507812 11.58699219 -18.45890625 10.32242188 -18.1640625 9.01953125 C-14.69247333 -0.24163366 -8.79933158 -0.07967249 0 0 Z " fill="#3F82E4" transform="translate(496.90625,164.3359375)"/>
<path d="M0 0 C1.59764945 0.29300584 3.19530575 0.58597433 4.79296875 0.87890625 C32.32118399 6.13268285 60.18446921 15.02284166 84 30 C83.566875 28.62328125 83.566875 28.62328125 83.125 27.21875 C79.06705539 13.80498866 79.06705539 13.80498866 80 8 C81.78973649 4.99509187 83.81918214 2.59040893 87 1 C92.00404498 0.62233623 94.99885156 0.88799566 99 4 C101.49453902 6.93852421 102.84909591 9.78590214 104.17651367 13.3918457 C104.57670212 14.47009109 104.97689056 15.54833649 105.38920593 16.65925598 C105.81119766 17.81970932 106.23318939 18.98016266 106.66796875 20.17578125 C107.32748283 21.9735627 107.32748283 21.9735627 108.00032043 23.80766296 C108.92750662 26.34248857 109.85163655 28.87820746 110.77124023 31.41577148 C111.94587776 34.65483421 113.13686353 37.88760603 114.33240795 41.11900043 C115.47543159 44.21749565 116.60197474 47.32197067 117.73046875 50.42578125 C118.15853317 51.5801619 118.5865976 52.73454254 119.02763367 53.92390442 C122.75680075 64.30499016 122.75680075 64.30499016 122 70 C120.00775887 72.9883617 118.39968978 74.60332695 114.88951111 75.59811401 C108.65547764 76.74978031 102.41667832 77.70063554 96.12890625 78.5078125 C94.62444191 78.70333206 94.62444191 78.70333206 93.08958435 78.90280151 C90.98305736 79.17517244 88.8762868 79.44566572 86.76928711 79.71435547 C83.57366863 80.1235698 80.37964413 80.54394095 77.18554688 80.96484375 C75.12508787 81.22985075 73.06454357 81.49419562 71.00390625 81.7578125 C70.06398331 81.88278107 69.12406036 82.00774963 68.15565491 82.13650513 C51.87771367 84.17457701 51.87771367 84.17457701 45.9375 81.75 C42.06406675 78.25141513 41.76132441 75.28858632 41.44140625 70.09765625 C42.35841936 66.65404756 44.26467559 65.21550522 47 63 C49.63983516 61.81901201 52.33341038 61.05234752 55.125 60.3125 C60.80912284 58.75966679 60.80912284 58.75966679 66 56 C48.50510649 46.73077572 28.70746563 40.49503713 9.4375 36.0625 C8.30235962 35.80025635 8.30235962 35.80025635 7.14428711 35.53271484 C4.43776547 34.95616095 1.72768378 34.46788586 -1 34 C-1.71218689 33.87685425 -2.42437378 33.7537085 -3.15814209 33.62683105 C-15.74707325 31.50003156 -28.03841546 30.51875646 -40.80224609 30.60888672 C-43.50018813 30.62500112 -46.19663315 30.60889463 -48.89453125 30.58984375 C-65.33890551 30.56974697 -81.44930216 32.68369177 -97.5 36.25 C-98.44447998 36.45906982 -99.38895996 36.66813965 -100.36206055 36.88354492 C-129.5099855 43.59691539 -157.7299925 56.53274092 -182 74 C-182.55880859 74.40186523 -183.11761719 74.80373047 -183.69335938 75.21777344 C-192.37094322 81.53013074 -200.27351581 88.56600102 -208 96 C-208.73911621 96.70624512 -208.73911621 96.70624512 -209.49316406 97.42675781 C-216.21584479 103.87818041 -222.30663029 110.62756871 -228 118 C-228.42249023 118.54076172 -228.84498047 119.08152344 -229.28027344 119.63867188 C-263.50889508 163.69333318 -280.54794916 221.08199044 -274.23046875 276.68481445 C-268.93944188 315.79698629 -254.81337109 352.00802825 -230.69921875 383.328125 C-229.93448242 384.32972656 -229.93448242 384.32972656 -229.15429688 385.3515625 C-228.21735126 386.56422713 -227.26306724 387.76381818 -226.28710938 388.9453125 C-222.82932656 393.37212175 -221.85354407 397.48903601 -222 403 C-223.86516311 409.32083053 -226.68894914 412.06855367 -232.25 415.3125 C-237.59339517 416.64834879 -242.31559028 415.85871868 -247.1875 413.375 C-254.3660487 407.31311443 -259.38760472 399.37834831 -264.5625 391.625 C-264.95473755 391.03851685 -265.3469751 390.45203369 -265.75109863 389.84777832 C-273.81592298 377.72885557 -280.76373332 365.16052008 -287 352 C-287.32887207 351.31147949 -287.65774414 350.62295898 -287.99658203 349.91357422 C-305.73102175 311.91120339 -312.87599189 263.23944235 -306 222 C-305.83870605 220.97583984 -305.67741211 219.95167969 -305.51123047 218.89648438 C-303.07625152 203.55111216 -300.05567319 188.70258764 -295 174 C-294.77763672 173.33742188 -294.55527344 172.67484375 -294.32617188 171.9921875 C-285.18138776 145.02189884 -271.65983183 121.2052147 -254 99 C-253.24589844 98.03191406 -252.49179687 97.06382812 -251.71484375 96.06640625 C-247.7229728 90.97935003 -243.50730366 86.14260059 -239.1484375 81.3671875 C-237.24848159 79.27378154 -235.39998279 77.14804326 -233.5625 75 C-224.34609975 64.52966775 -214.2293 56.20715943 -203 48 C-202.12722412 47.35949707 -202.12722412 47.35949707 -201.23681641 46.70605469 C-167.78819616 22.34137552 -128.59939664 7.20045602 -88 0 C-87.03416992 -0.17499023 -86.06833984 -0.34998047 -85.07324219 -0.53027344 C-57.79635035 -5.22997674 -27.17463615 -5.39119925 0 0 Z " fill="#4684EA" transform="translate(553,97)"/>
<path d="M0 0 C5.98781398 3.34814789 9.37084394 9.19858495 13.125 14.75 C13.65963867 15.52682129 14.19427734 16.30364258 14.74511719 17.10400391 C39.06399723 52.46765199 55.79347595 89.83968709 61.125 132.75 C61.2794458 133.94810303 61.2794458 133.94810303 61.43701172 135.17041016 C67.59144519 184.43504585 58.04002821 233.32790359 36.125 277.75 C35.75906738 278.49958984 35.39313477 279.24917969 35.01611328 280.02148438 C29.9415549 290.31846906 24.07298744 299.6250126 17.125 308.75 C16.33351563 309.80445313 15.54203125 310.85890625 14.7265625 311.9453125 C-9.85991515 344.32944325 -9.85991515 344.32944325 -23.875 355.75 C-24.38627441 356.17361816 -24.89754883 356.59723633 -25.42431641 357.03369141 C-40.00663745 369.09939275 -55.37816095 379.48605318 -71.875 388.75 C-72.60525391 389.16636719 -73.33550781 389.58273437 -74.08789062 390.01171875 C-97.83710199 403.47029537 -125.01023493 412.91511195 -151.875 417.75 C-152.53936569 417.87388092 -153.20373138 417.99776184 -153.88822937 418.12539673 C-167.31439711 420.58141358 -180.44081112 421.22003891 -194.07470703 421.14111328 C-197.37183987 421.12501543 -200.66774744 421.1410696 -203.96484375 421.16015625 C-217.19632243 421.17306845 -229.87303399 420.20351845 -242.875 417.75 C-243.70123871 417.595811 -244.52747742 417.44162201 -245.37875366 417.28276062 C-271.01713595 412.45079551 -295.86610632 404.09404714 -318.875 391.75 C-320.00679688 391.14414062 -321.13859375 390.53828125 -322.3046875 389.9140625 C-324.83718863 388.54148555 -327.3610179 387.15612558 -329.875 385.75 C-329.6584375 386.53503906 -329.441875 387.32007813 -329.21875 388.12890625 C-325.50229077 402.15165752 -325.50229077 402.15165752 -328.625 408.0625 C-331.61273207 411.63117997 -333.18676631 412.52979561 -337.75 413.125 C-341.87622643 412.62985283 -343.73736782 411.47837581 -346.875 408.75 C-350.9225513 401.72358559 -353.20865833 394.12426635 -355.6875 386.4375 C-356.56195222 383.75243557 -357.44162397 381.06911704 -358.32421875 378.38671875 C-358.6488208 377.39924149 -358.6488208 377.39924149 -358.97998047 376.39181519 C-361.08808189 370.02382435 -363.40747215 363.74023708 -365.89379883 357.51049805 C-367.46900389 353.43646023 -368.30308431 350.12029353 -367.875 345.75 C-366.20737678 342.25593231 -365.13493978 340.92329319 -361.875 338.75 C-359.68574524 338.28170776 -359.68574524 338.28170776 -357.10668945 337.97216797 C-356.13750076 337.85219452 -355.16831207 337.73222107 -354.16975403 337.60861206 C-353.11986801 337.48769196 -352.06998199 337.36677185 -350.98828125 337.2421875 C-349.89847458 337.11184113 -348.80866791 336.98149475 -347.68583679 336.84719849 C-345.37037945 336.57263702 -343.05442569 336.30223534 -340.73803711 336.03564453 C-337.24492576 335.63164169 -333.75437561 335.20939692 -330.26367188 334.78515625 C-297.64303319 330.9055916 -297.64303319 330.9055916 -292.02075195 334.65185547 C-289.13897451 337.46969542 -288.67163394 339.13472332 -288.5 343.0625 C-288.56213993 346.58187989 -288.77060997 347.59509867 -290.8125 350.625 C-297.07576681 354.97094023 -304.49702973 356.26742914 -311.875 357.75 C-311.875 358.41 -311.875 359.07 -311.875 359.75 C-264.61526491 384.47120007 -208.87358841 396.01006745 -155.875 384.75 C-154.88870605 384.54600586 -153.90241211 384.34201172 -152.88623047 384.13183594 C-100.9572489 373.1463978 -53.14401603 346.63821656 -19.875 304.75 C-19.03195312 303.73550781 -18.18890625 302.72101563 -17.3203125 301.67578125 C17.90535825 258.90544046 34.49565951 200.93134165 29.79980469 145.94189453 C28.21413729 130.87805428 25.56957528 116.22752441 21.125 101.75 C20.78082031 100.54730469 20.43664062 99.34460938 20.08203125 98.10546875 C12.69972139 73.93306788 0.05312511 51.97435278 -14.89453125 31.7734375 C-15.39364014 31.09563232 -15.89274902 30.41782715 -16.40698242 29.71948242 C-17.37286032 28.42366719 -18.3545236 27.13944517 -19.3527832 25.8684082 C-22.99018974 21.11786606 -23.5837069 18.15225101 -23.296875 12.3359375 C-22.48424173 7.3547965 -19.94664234 4.71709187 -16.3125 1.4375 C-11.22381397 -2.08543649 -5.69884762 -2.26361412 0 0 Z " fill="#5B72ED" transform="translate(713.875,185.25)"/>
<path d="M0 0 C3.81085124 2.84800319 7.4385375 5.84685804 11 9 C11.62390625 9.55171875 12.2478125 10.1034375 12.890625 10.671875 C32.49104477 29.17320581 42.52959101 54.96290129 43.33398438 81.60107422 C43.69269991 105.31473331 35.52896084 128.89936412 20 147 C19.27941406 147.84175781 18.55882812 148.68351563 17.81640625 149.55078125 C13.89897729 154.04081124 13.89897729 154.04081124 12 156 C11.67 156 11.34 156 11 156 C10.89042969 155.03320312 10.78085937 154.06640625 10.66796875 153.0703125 C8.7373204 137.21702114 5.18060898 125.46836981 -7.546875 114.75390625 C-18.36900689 107.01642661 -29.95289556 105.68904988 -42.890625 105.69921875 C-44.72303741 105.69279106 -44.72303741 105.69279106 -46.59246826 105.68623352 C-49.16759626 105.68051234 -51.74274042 105.67997357 -54.31787109 105.68432617 C-58.22391858 105.68747895 -62.12920257 105.66402243 -66.03515625 105.63867188 C-68.54947822 105.63639771 -71.06380221 105.63569593 -73.578125 105.63671875 C-74.72960022 105.627509 -75.88107544 105.61829926 -77.06744385 105.60881042 C-91.77036108 105.69123066 -104.88676931 109.11947021 -115.875 119.3125 C-125.51784911 129.89611487 -128.20286902 142.03646424 -129 156 C-129.66 156 -130.32 156 -131 156 C-131 155.34 -131 154.68 -131 154 C-131.66 154 -132.32 154 -133 154 C-147.86409874 138.61164881 -155.77083021 119.62533573 -160 99 C-160.19464844 98.20078125 -160.38929688 97.4015625 -160.58984375 96.578125 C-164.6833336 70.84761735 -156.99280872 43.91287967 -141.875 23.0703125 C-139.66897706 20.28914787 -137.38059675 17.63302544 -135 15 C-134.17886719 14.08476562 -133.35773438 13.16953125 -132.51171875 12.2265625 C-97.83410077 -24.45465119 -41.00984481 -27.45381278 0 0 Z " fill="#FBFCFD" transform="translate(570,267)"/>
<path d="M0 0 C9.72252714 6.56853385 15.23644038 16.1108749 17.9296875 27.48046875 C19.90455125 39.83344304 16.18467912 51.60734703 9.3125 61.875 C3.71202946 69.17385885 -5.27986352 74.80371469 -14.33203125 76.6328125 C-29.25730054 78.1674173 -41.63109926 76.56631988 -53.73046875 67.3125 C-61.7334569 59.96317755 -66.41011964 49.55688134 -67.0234375 38.76171875 C-67.05304931 37.36223185 -67.06572051 35.96229644 -67.0625 34.5625 C-67.06088867 33.82410889 -67.05927734 33.08571777 -67.05761719 32.32495117 C-66.79102798 20.34019812 -61.56758645 11.12316737 -53.109375 2.83984375 C-38.07369109 -9.3584611 -16.31809632 -9.49136237 0 0 Z " fill="#19242E" transform="translate(634.6875,664.125)"/>
<path d="M0 0 C0.78503906 0.4125 1.57007813 0.825 2.37890625 1.25 C10.47037446 6.06928394 17.20650004 13.91429252 20.375 22.83984375 C22.82474213 35.2263524 22.3774607 48.66759802 15.421875 59.4453125 C8.41109149 69.01408459 -0.09984882 75.13855409 -11.7890625 77.6796875 C-23.78206316 79.41718936 -34.78877605 77.19113492 -44.875 70.375 C-53.53988863 63.53894522 -58.85696712 54.84197109 -61 44 C-62.21438383 31.39294317 -60.31184745 20.61515884 -52.81640625 10.1328125 C-39.98744128 -4.9308754 -17.66497614 -9.40564453 0 0 Z " fill="#19242E" transform="translate(714,766)"/>
<path d="M0 0 C8.83308453 6.19982537 14.6636175 14.4899215 17.3125 25.03515625 C19.12104952 37.04909236 17.11964191 47.64084706 10.5703125 57.890625 C4.32856066 66.22189033 -5.02739772 71.91772721 -15.3046875 73.578125 C-29.15181927 74.5784338 -40.2378211 72.86602617 -51.26953125 63.65625 C-59.44368738 55.30951092 -63.37026023 45.70962498 -63.7421875 34.203125 C-63.47477566 23.04982288 -59.75854315 13.91703958 -52.3046875 5.578125 C-36.92037238 -8.27493636 -17.79936271 -10.98130174 0 0 Z " fill="#3F82E4" transform="translate(533.3046875,284.421875)"/>
<path d="M0 0 C7.92 0 15.84 0 24 0 C31.8001572 14.98853737 38.37437829 30.46740698 45 46 C47.21855358 42.67216963 48.86690676 39.19766668 50.5546875 35.5859375 C50.89750763 34.85686188 51.24032776 34.12778625 51.59353638 33.37661743 C52.31918652 31.8321762 53.04367587 30.28718913 53.76708984 28.74169922 C54.86169954 26.40341223 55.95981279 24.06679805 57.05859375 21.73046875 C57.76583416 20.22405651 58.47287166 18.71754899 59.1796875 17.2109375 C59.50274872 16.52309174 59.82580994 15.83524597 60.15866089 15.1265564 C62.5052362 10.11017419 64.74963908 5.06331206 67 0 C74.59 0 82.18 0 90 0 C90 26.4 90 52.8 90 80 C84.39 80 78.78 80 73 80 C73 62.18 73 44.36 73 26 C63.35098826 45.80827984 63.35098826 45.80827984 54.2734375 65.88037109 C52.09019013 70.90980987 52.09019013 70.90980987 51 72 C49.14712498 72.07226502 47.29166122 72.0838122 45.4375 72.0625 C44.42558594 72.05347656 43.41367187 72.04445313 42.37109375 72.03515625 C41.58863281 72.02355469 40.80617188 72.01195312 40 72 C34.74874324 61.8303126 29.94212994 51.46978093 25.17675781 41.06494141 C24.68014648 39.98132324 24.18353516 38.89770508 23.671875 37.78125 C23.2294043 36.81251953 22.78693359 35.84378906 22.33105469 34.84570312 C20.9400843 31.87190438 19.46821508 28.93643016 18 26 C17.67 43.82 17.34 61.64 17 80 C11.72 80 6.44 80 1 80 C0.67 53.6 0.34 27.2 0 0 Z " fill="#19232E" transform="translate(666,659)"/>
<path d="M0 0 C44.0317086 0 44.0317086 0 52.3046875 7.98828125 C56.99227047 13.55073569 58.66287097 19.36605986 58.31640625 26.5859375 C57.39444712 33.62014416 54.38438159 39.32760275 49 44 C46.69697823 45.38944802 44.34616994 46.68362455 42 48 C42.57556641 48.83772949 43.15113281 49.67545898 43.74414062 50.53857422 C45.87333473 53.64020101 47.99642642 56.74596284 50.11767578 59.85302734 C51.03755771 61.19856993 51.95910256 62.54297719 52.88232422 63.88623047 C54.2071659 65.81443721 55.52602194 67.74661479 56.84375 69.6796875 C57.25935181 70.28183075 57.67495361 70.883974 58.10314941 71.50436401 C61 75.77225659 61 75.77225659 61 78 C54.63297323 79.40509013 48.18425988 80.62042879 42 78 C34.41042742 70.63029524 29.79009383 59.74516698 26 50 C22.7 50 19.4 50 16 50 C16 59.24 16 68.48 16 78 C10.72 78 5.44 78 0 78 C0 52.26 0 26.52 0 0 Z " fill="#18222D" transform="translate(667,866)"/>
<path d="M0 0 C42.44444444 0 42.44444444 0 51 7 C56.84491882 13.92203123 57.52162408 20.19450577 57.34375 29.03125 C56.74959214 35.89107252 53.86757097 39.49411184 48.875 43.9375 C46 46 46 46 43 47 C44.68931919 52.17159678 47.77313938 56.36187641 50.8125 60.8125 C54.65379986 66.47711153 58.41830736 72.16690067 62 78 C55.42298994 79.26856277 48.41975024 80.35191316 42 78 C36.80165131 73.29192211 33.98886933 66.65366828 31.1328125 60.36230469 C30.11921865 58.248612 29.02290497 56.3967908 27.6875 54.4765625 C26 52 26 52 26 50 C22.7 50 19.4 50 16 50 C16 59.24 16 68.48 16 78 C10.72 78 5.44 78 0 78 C0 52.26 0 26.52 0 0 Z " fill="#17222C" transform="translate(282,866)"/>
<path d="M0 0 C14 0 14 0 18.0625 3.875 C19.40425499 5.8975609 20.71253148 7.94245685 22 10 C23.96399902 12.79699312 25.98681619 15.55078607 28 18.3125 C28.53995605 19.06515137 29.07991211 19.81780273 29.63623047 20.59326172 C34.21524658 26.9759329 38.92710885 33.25171833 43.6875 39.5 C44.38294922 40.41434814 45.07839844 41.32869629 45.79492188 42.27075195 C49.20627483 46.80068261 49.20627483 46.80068261 53 51 C53 34.17 53 17.34 53 0 C58.28 0 63.56 0 69 0 C69 26.07 69 52.14 69 79 C54 79 54 79 49.96484375 75.73046875 C48.90566908 74.25072717 47.89793834 72.73315337 46.9375 71.1875 C46.37716064 70.38231934 45.81682129 69.57713867 45.23950195 68.74755859 C44.05911225 67.04946564 42.89808919 65.33776216 41.75585938 63.61376953 C39.44444922 60.17300798 36.97620785 56.86316784 34.49511719 53.54370117 C32.72119824 51.17009028 30.96716066 48.78306857 29.21875 46.390625 C26.39682481 42.53555421 23.5534479 38.69744109 20.6875 34.875 C19.99011719 33.94429687 19.29273438 33.01359375 18.57421875 32.0546875 C17.16169899 30.11794733 17.16169899 30.11794733 16 29 C16 45.83 16 62.66 16 80 C10.72 80 5.44 80 0 80 C0 53.6 0 27.2 0 0 Z " fill="#19242F" transform="translate(471,763)"/>
<path d="M0 0 C5.28 0 10.56 0 16 0 C16 26.07 16 52.14 16 79 C1 79 1 79 -3.03515625 75.51171875 C-4.09535956 73.93686012 -5.10286774 72.32558323 -6.0625 70.6875 C-7.21212757 68.9391735 -8.36321267 67.19180468 -9.515625 65.4453125 C-10.08603516 64.54329102 -10.65644531 63.64126953 -11.24414062 62.71191406 C-14.06921414 58.3486053 -17.19572876 54.2197509 -20.3125 50.0625 C-21.39297772 48.59582549 -22.47241892 47.12838678 -23.55078125 45.66015625 C-27.67511103 40.08787377 -31.84046227 34.54605031 -36 29 C-36.33 45.83 -36.66 62.66 -37 80 C-42.28 80 -47.56 80 -53 80 C-53 53.93 -53 27.86 -53 1 C-37 1 -37 1 -33.15625 4.19921875 C-31.78369141 6.33398438 -31.78369141 6.33398438 -30.5 8.6875 C-29.46052035 10.34026264 -28.41601773 11.98987407 -27.3671875 13.63671875 C-26.8319043 14.50989746 -26.29662109 15.38307617 -25.74511719 16.28271484 C-22.6671234 21.07539403 -19.12580091 25.51207344 -15.625 30 C-11.04792526 35.92257688 -6.60806291 41.90174169 -2.36083984 48.06640625 C-1.14299831 49.91409693 -1.14299831 49.91409693 0 51 C0 34.17 0 17.34 0 0 Z " fill="#1A2530" transform="translate(801,763)"/>
<path d="M0 0 C15 0 15 0 19.10546875 3.59375 C20.18391341 5.19592975 21.20990503 6.83436771 22.1875 8.5 C23.3410705 10.2548125 24.49604206 12.00870471 25.65234375 13.76171875 C26.21034668 14.64520996 26.76834961 15.52870117 27.34326172 16.43896484 C29.78587086 20.21482248 32.50454813 23.75412893 35.25 27.3125 C40.66574735 34.42775805 45.79843138 41.71780393 51 49 C51.33 32.83 51.66 16.66 52 0 C57.28 0 62.56 0 68 0 C68 25.74 68 51.48 68 78 C53 78 53 78 48.96484375 74.51171875 C47.90460289 72.9368854 46.89708335 71.32561188 45.9375 69.6875 C44.78921909 67.94044664 43.63943434 66.19438094 42.48828125 64.44921875 C41.63290771 63.09642822 41.63290771 63.09642822 40.76025391 61.71630859 C37.9164887 57.3279963 34.76358473 53.17972556 31.625 49 C30.46567443 47.4296932 29.30805945 45.85812174 28.15234375 44.28515625 C27.34579346 43.18905029 27.34579346 43.18905029 26.52294922 42.07080078 C24.40812268 39.19520624 22.29480762 36.31861398 20.1875 33.4375 C19.28064453 32.19806641 19.28064453 32.19806641 18.35546875 30.93359375 C17 29 17 29 16 27 C15.67 43.83 15.34 60.66 15 78 C10.05 78 5.1 78 0 78 C0 52.26 0 26.52 0 0 Z " fill="#17222C" transform="translate(519,866)"/>
<path d="M0 0 C15 0 15 0 18.59765625 3.05078125 C19.87353516 5.07910156 19.87353516 5.07910156 21.0625 7.3125 C22.0263754 8.87850659 22.99397466 10.44222586 23.96484375 12.00390625 C24.4532373 12.82391113 24.94163086 13.64391602 25.44482422 14.48876953 C28.08862355 18.75786214 31.11435773 22.73540086 34.125 26.75 C34.66261963 27.48001221 35.20023926 28.21002441 35.75415039 28.9621582 C40.73675064 35.72239128 45.87665344 42.33964947 51 49 C51.33 32.83 51.66 16.66 52 0 C57.28 0 62.56 0 68 0 C68 25.74 68 51.48 68 78 C53 78 53 78 48.875 74.125 C47.5546378 72.10177258 46.26726334 70.05690281 45 68 C43.53461356 65.92106171 42.03328841 63.8710478 40.52905273 61.82006836 C38.84860736 59.52647746 37.19019406 57.21822746 35.53515625 54.90625 C31.24385182 48.93153609 26.8706018 43.01782596 22.49365234 37.10571289 C21.93500488 36.3502417 21.37635742 35.59477051 20.80078125 34.81640625 C20.30747314 34.15068604 19.81416504 33.48496582 19.3059082 32.79907227 C18.16481231 31.22705215 17.07751096 29.61626644 16 28 C15.67 44.5 15.34 61 15 78 C10.05 78 5.1 78 0 78 C0 52.26 0 26.52 0 0 Z " fill="#18232D" transform="translate(434,866)"/>
<path d="M0 0 C5.61 0 11.22 0 17 0 C17.01458252 1.63469238 17.02916504 3.26938477 17.04418945 4.95361328 C17.10221478 11.02561178 17.17944847 17.0972411 17.26245117 23.16894531 C17.29568038 25.79551191 17.3237185 28.42214957 17.34643555 31.04882812 C17.38001728 34.82713061 17.43233753 38.60478305 17.48828125 42.3828125 C17.49467117 43.55490265 17.5010611 44.7269928 17.50764465 45.93460083 C17.62292602 53.89465918 17.62292602 53.89465918 21 61 C25.46306406 64.85942662 28.73154139 65.52575871 34.5625 65.4375 C35.84253906 65.43621094 37.12257813 65.43492187 38.44140625 65.43359375 C43.36569035 64.83359865 46.82877303 62.80547236 50 59 C51.02406112 55.92781664 51.1546536 53.73987825 51.20532227 50.51879883 C51.22526749 49.39786331 51.24521271 48.2769278 51.26576233 47.12202454 C51.29083107 45.30785286 51.29083107 45.30785286 51.31640625 43.45703125 C51.33718735 42.21829758 51.35796844 40.9795639 51.37937927 39.70329285 C51.43371797 36.41374744 51.48395951 33.12417274 51.53222656 29.83453369 C51.58250646 26.47622186 51.63815861 23.11799954 51.69335938 19.75976562 C51.80053051 13.1732462 51.90180476 6.58665911 52 0 C57.61 0 63.22 0 69 0 C69.07446173 7.79213398 69.12875012 15.58405827 69.16479492 23.37646484 C69.17983019 26.02428803 69.20026376 28.67208653 69.22631836 31.31982422 C69.26293261 35.13775752 69.27977966 38.95535993 69.29296875 42.7734375 C69.30845261 43.94675629 69.32393646 45.12007507 69.33988953 46.32894897 C69.34219772 57.74198776 67.43171581 65.56453049 59.40234375 73.8671875 C56.15737335 76.74808805 53.06554714 78.54317894 49 80 C47.96875 80.4125 46.9375 80.825 45.875 81.25 C34.61826147 83.42872359 23.57779514 82.53425447 13.6171875 76.57421875 C6.7591192 71.67740614 2.44658377 65.95737281 0.42506409 57.63227844 C-0.02669305 54.83469896 -0.1200389 52.21692164 -0.11352539 49.38354492 C-0.11344986 48.28278122 -0.11337433 47.18201752 -0.11329651 46.04789734 C-0.10813522 44.8706459 -0.10297394 43.69339447 -0.09765625 42.48046875 C-0.0962413 41.26676102 -0.09482635 40.05305328 -0.09336853 38.80256653 C-0.08777665 34.93085248 -0.07522558 31.05919653 -0.0625 27.1875 C-0.05748395 24.56054771 -0.05292123 21.93359451 -0.04882812 19.30664062 C-0.03780987 12.87107141 -0.02055075 6.43554555 0 0 Z " fill="#1A2631" transform="translate(349,659)"/>
<path d="M0 0 C4.52024765 2.68429272 8.62801648 5.753544 11.1875 10.4375 C11.6825 12.9125 11.6825 12.9125 12.1875 15.4375 C5.7525 18.4075 5.7525 18.4075 -0.8125 21.4375 C-2.0809375 19.766875 -2.0809375 19.766875 -3.375 18.0625 C-7.41664929 13.36621738 -11.31083741 12.65694409 -17.375 12.125 C-21.19645855 12.47240532 -23.5643027 13.4267112 -26.8125 15.4375 C-28.267776 18.34805201 -28.26317148 20.21841798 -27.8125 23.4375 C-22.25298803 28.13118634 -15.69509662 29.31945956 -8.77539062 31.06054688 C0.80285727 33.60228005 8.02355732 36.72334672 13.1875 45.4375 C15.40748177 52.09744531 15.10712769 60.19691705 12.21875 66.62890625 C7.62159671 74.69133797 1.76629621 77.57790126 -6.8125 80.4375 C-19.07629786 81.11809497 -30.10665993 81.16328135 -40.05078125 73.0546875 C-42.65188998 70.6669735 -44.76107164 68.32232114 -46.8125 65.4375 C-46.8125 64.4475 -46.8125 63.4575 -46.8125 62.4375 C-44.2578125 60.61328125 -44.2578125 60.61328125 -40.9375 58.75 C-39.84695313 58.12738281 -38.75640625 57.50476563 -37.6328125 56.86328125 C-34.8125 55.4375 -34.8125 55.4375 -32.8125 55.4375 C-31.94625 56.8296875 -31.94625 56.8296875 -31.0625 58.25 C-28.20862094 62.29299534 -25.43535154 63.50681075 -20.875 65.125 C-15.1868335 65.98684341 -10.19264301 65.48195434 -4.8125 63.4375 C-3.80753148 60.42259443 -3.70914697 58.39568308 -3.75 55.25 C-3.75902344 54.34894531 -3.76804687 53.44789063 -3.77734375 52.51953125 C-3.78894531 51.83246094 -3.80054688 51.14539063 -3.8125 50.4375 C-5.10322522 50.03860753 -6.39520583 49.64377987 -7.6875 49.25 C-8.59113281 48.97414063 -9.49476563 48.69828125 -10.42578125 48.4140625 C-13.0015216 47.67134614 -15.56883158 46.98614291 -18.16796875 46.3359375 C-37.03139197 41.54306395 -37.03139197 41.54306395 -42.1953125 34.5703125 C-43.3125 32.6875 -43.3125 32.6875 -44.8125 29.4375 C-45.1425 28.7775 -45.4725 28.1175 -45.8125 27.4375 C-46.79485646 19.35410968 -45.46792712 13.13849358 -40.8125 6.4375 C-31.16593063 -4.66073758 -12.86189073 -6.02045949 0 0 Z " fill="#19232E" transform="translate(476.8125,660.5625)"/>
<path d="M0 0 C5.61 0 11.22 0 17 0 C17.01458252 1.56886963 17.02916504 3.13773926 17.04418945 4.75415039 C17.10227673 10.58950287 17.17950995 16.4244737 17.26245117 22.25952148 C17.29565129 24.78224481 17.32369842 27.30504154 17.34643555 29.82788086 C17.38007096 33.45979006 17.43239367 37.09102957 17.48828125 40.72265625 C17.49467117 41.84583755 17.5010611 42.96901886 17.50764465 44.12623596 C17.62035774 50.16540381 18.04057967 54.68542208 21 60 C24.51655273 63.17444466 28.90545186 64.24644161 33.5625 64.4375 C38.00938365 64.20709152 41.14070508 63.23839105 45 61 C47.67973098 57.37541587 48.38191516 54.76231714 48.43237305 50.29174805 C48.45216721 49.17096359 48.47196136 48.05017914 48.49235535 46.89543152 C48.49874527 45.6963063 48.50513519 44.49718109 48.51171875 43.26171875 C48.52966995 42.02581497 48.54762115 40.78991119 48.56611633 39.51655579 C48.61105241 36.24343758 48.64338116 32.97051636 48.66955566 29.69720459 C48.69942427 26.35202279 48.74618068 23.0071241 48.79101562 19.66210938 C48.87597763 13.10816036 48.94277561 6.55424752 49 0 C54.61 0 60.22 0 66 0 C66.12431099 7.75547553 66.21467738 15.5103612 66.2746582 23.26660156 C66.29968295 25.90081903 66.33371334 28.53496789 66.37719727 31.16894531 C66.4383772 34.97217819 66.46633202 38.77448695 66.48828125 42.578125 C66.51408768 43.74112122 66.5398941 44.90411743 66.56648254 46.10235596 C66.56945426 54.91751003 64.97475233 63.35483461 59.08491516 70.23809814 C51.52658192 77.49567694 42.2673174 80.34760076 32.00390625 80.2109375 C22.30758596 79.53005155 14.11658182 76.10538579 7.21484375 69.21875 C0.10028598 60.68827287 -0.44585177 50.22092202 -0.29296875 39.55078125 C-0.28872391 38.41215134 -0.28447906 37.27352142 -0.28010559 36.10038757 C-0.26346525 32.50417281 -0.22584042 28.90854213 -0.1875 25.3125 C-0.17243425 22.85743003 -0.15874917 20.40235118 -0.14648438 17.94726562 C-0.11360973 11.9646226 -0.06192971 5.98240993 0 0 Z " fill="#1C2731" transform="translate(352,866)"/>
<path d="M0 0 C4.26147796 2.99881783 7.2167704 6.00605388 9.671875 10.609375 C9.671875 11.599375 9.671875 12.589375 9.671875 13.609375 C7.71538103 14.44701768 5.75661944 15.27936559 3.796875 16.109375 C2.16105469 16.80546875 2.16105469 16.80546875 0.4921875 17.515625 C-2.328125 18.609375 -2.328125 18.609375 -4.328125 18.609375 C-5.09125 17.660625 -5.854375 16.711875 -6.640625 15.734375 C-9.00625597 12.8354515 -10.56732198 11.445109 -14.328125 10.609375 C-21.65327259 10.00367117 -21.65327259 10.00367117 -28.328125 12.609375 C-30.89499867 16.4596855 -30.16101224 18.19507263 -29.328125 22.609375 C-23.96941534 24.96615394 -18.58388569 26.8645705 -12.94775391 28.42504883 C4.50281403 33.25935343 4.50281403 33.25935343 9.671875 41.609375 C12.77912453 49.99894873 12.13563066 57.47935227 8.671875 65.609375 C4.8763223 71.8288788 -0.54606654 75.34602977 -7.53125 77.19140625 C-18.9460608 78.89725088 -30.54312283 78.85480365 -40.33984375 72.25390625 C-44.56122817 68.95290753 -46.94472748 65.37617005 -49.328125 60.609375 C-47.93635868 59.64514474 -46.5395027 58.68825898 -45.140625 57.734375 C-44.36332031 57.20070313 -43.58601562 56.66703125 -42.78515625 56.1171875 C-40.3604641 54.62922061 -37.9947751 53.58509422 -35.328125 52.609375 C-34.585625 53.970625 -34.585625 53.970625 -33.828125 55.359375 C-31.14040146 59.32517687 -27.88240603 61.23919814 -23.328125 62.609375 C-18.15289498 63.23954 -12.92725983 63.34011131 -8.328125 60.609375 C-6.26886819 57.52048978 -6.0890876 56.90001573 -6.203125 53.421875 C-6.244375 52.16375 -6.285625 50.905625 -6.328125 49.609375 C-11.93752191 46.59432416 -17.1622474 44.6794965 -23.328125 43.171875 C-32.74722818 40.69618799 -39.63509652 37.81403368 -45.328125 29.609375 C-48.0186815 23.71577504 -48.21015667 17.73104879 -46.265625 11.609375 C-43.4967963 5.06721231 -39.12060364 0.12896575 -32.640625 -2.828125 C-21.38168465 -7.28770528 -10.42088306 -6.22455431 0 0 Z " fill="#19232E" transform="translate(600.328125,766.390625)"/>
<path d="M0 0 C16.17 0 32.34 0 49 0 C49 4.95 49 9.9 49 15 C38.44 15 27.88 15 17 15 C17 20.61 17 26.22 17 32 C26.57 32 36.14 32 46 32 C46 36.95 46 41.9 46 47 C36.43 47 26.86 47 17 47 C17 52.94 17 58.88 17 65 C28.22 65 39.44 65 51 65 C51 69.62 51 74.24 51 79 C34.17 79 17.34 79 0 79 C0 52.93 0 26.86 0 0 Z " fill="#1D2834" transform="translate(407,763)"/>
<path d="M0 0 C6.70222791 -1.46972714 13.49048433 -2.74648058 20 0 C26.71683715 6.44979035 31.30449055 15.52417026 35 24 C35 24.66 35 25.32 35 26 C35.66 26 36.32 26 37 26 C37.42055664 24.91972534 37.42055664 24.91972534 37.84960938 23.81762695 C41.25500527 15.47686422 45.37712703 6.25724966 52 0 C57.86007806 -2.40141442 63.9764199 -1.27772911 70 0 C65.19828104 8.59071173 59.92866068 16.82983019 54.5324707 25.05566406 C53.46962387 26.67593257 52.41098873 28.29897495 51.35742188 29.92529297 C50.28426863 31.56551892 49.17227872 33.18033054 48.046875 34.78515625 C46.67881177 37.67952884 47.15582733 38.94692301 48 42 C49.12539996 44.19293245 49.12539996 44.19293245 50.58984375 46.30078125 C51.12262939 47.10596191 51.65541504 47.91114258 52.2043457 48.74072266 C52.77628662 49.58940918 53.34822754 50.4380957 53.9375 51.3125 C55.11823564 53.09696316 56.29790878 54.88212978 57.4765625 56.66796875 C58.06727539 57.55919434 58.65798828 58.45041992 59.26660156 59.36865234 C61.82884177 63.25820515 64.33255195 67.18260056 66.8125 71.125 C67.23845459 71.79313721 67.66440918 72.46127441 68.10327148 73.1496582 C71 77.76489805 71 77.76489805 71 80 C64.73 80 58.46 80 52 80 C51.02417969 78.24171875 50.04835938 76.4834375 49.04296875 74.671875 C48.08997345 72.96065717 47.13695696 71.24945105 46.18334961 69.53857422 C45.52376444 68.3539405 44.86522135 67.16872592 44.20776367 65.98291016 C43.25977753 64.27352107 42.30766557 62.56642215 41.35546875 60.859375 C40.78465576 59.83295898 40.21384277 58.80654297 39.62573242 57.74902344 C38.21110137 55.35696072 36.72018893 53.17814651 35 51 C34.5560791 51.77190674 34.1121582 52.54381348 33.65478516 53.33911133 C32.00439667 56.20774654 30.35309407 59.07585143 28.70117188 61.94360352 C27.98693827 63.18395249 27.2730677 64.42451059 26.55957031 65.6652832 C25.53285999 67.4505866 24.50483853 69.2351293 23.4765625 71.01953125 C22.85861816 72.09307861 22.24067383 73.16662598 21.60400391 74.27270508 C20.46050684 76.21699819 19.25119773 78.1232034 18 80 C16.02880859 80.34057617 16.02880859 80.34057617 13.6484375 80.29296875 C12.79765625 80.28330078 11.946875 80.27363281 11.0703125 80.26367188 C10.18085938 80.23853516 9.29140625 80.21339844 8.375 80.1875 C7.4778125 80.17396484 6.580625 80.16042969 5.65625 80.14648438 C3.43690211 80.11106925 1.21874812 80.06168461 -1 80 C2.60256587 73.63960287 6.31643647 67.4016536 10.3671875 61.31640625 C10.73604065 60.76149506 11.1048938 60.20658386 11.48492432 59.63485718 C12.99962956 57.36156605 14.51844398 55.09116343 16.04589844 52.82641602 C17.18096635 51.14022649 18.30592542 49.44764396 19.4296875 47.75390625 C20.09210449 46.76720947 20.75452148 45.7805127 21.43701172 44.76391602 C23.57209314 41.10075864 23.57209314 41.10075864 24 37 C22.59055268 34.01213344 20.7366518 31.37464884 18.84765625 28.671875 C18.31353622 27.88226379 17.7794162 27.09265259 17.22911072 26.27911377 C15.52078808 23.75962349 13.79240857 21.25470593 12.0625 18.75 C10.34062885 16.22820068 8.62289752 13.70363537 6.90660095 11.17803955 C5.83687476 9.60709847 4.76303218 8.03895151 3.68482971 6.47381592 C3.20110397 5.76928284 2.71737823 5.06474976 2.21899414 4.33886719 C1.5749337 3.40551544 1.5749337 3.40551544 0.91786194 2.45330811 C0 1 0 1 0 0 Z " fill="#19242E" transform="translate(258,763)"/>
<path d="M0 0 C16.17 0 32.34 0 49 0 C49 4.95 49 9.9 49 15 C38.11 15 27.22 15 16 15 C16 20.61 16 26.22 16 32 C25.9 32 35.8 32 46 32 C46 36.95 46 41.9 46 47 C36.1 47 26.2 47 16 47 C16 52.94 16 58.88 16 65 C27.22 65 38.44 65 50 65 C50 69.62 50 74.24 50 79 C33.5 79 17 79 0 79 C0 52.93 0 26.86 0 0 Z " fill="#1A2530" transform="translate(199,763)"/>
<path d="M0 0 C5.01613557 3.26668088 9.74310668 6.90225393 13 12 C13 12.99 13 13.98 13 15 C11.06891037 16.03290841 9.129882 17.05098672 7.1875 18.0625 C5.56908203 18.91521484 5.56908203 18.91521484 3.91796875 19.78515625 C1 21 1 21 -2 20 C-2.598125 19.38125 -3.19625 18.7625 -3.8125 18.125 C-8.28552348 13.77977719 -12.73545742 12.55469526 -18.875 12.5 C-26.79779266 12.6755049 -30.89943876 14.81563981 -36.3125 20.375 C-41.48178152 28.41610459 -42.05805913 35.44752277 -41 45 C-38.72081056 52.52911726 -34.80121315 56.89852668 -28.30078125 61.09765625 C-22.36848804 63.42424323 -13.12751472 63.19164513 -7.2421875 60.94921875 C-4.46883385 59.2145935 -2.30829438 57.30829438 0 55 C3.73346654 55.31653303 6.28436631 57.41631773 9.25 59.5625 C10.14203125 60.20316406 11.0340625 60.84382812 11.953125 61.50390625 C12.62859375 61.99761719 13.3040625 62.49132812 14 63 C10.84716233 70.10153728 4.04911601 74.25427691 -3 77 C-14.51671784 80.79577217 -25.90744954 79.58511072 -37 75 C-47.59607451 69.56529107 -54.39774296 60.89101685 -58.0859375 49.70703125 C-61.02545285 37.78566343 -59.22481214 25.50465663 -53.375 14.8125 C-48.41183496 7.08519601 -41.5562927 1.34307761 -33 -2 C-32.08992188 -2.35578125 -31.17984375 -2.7115625 -30.2421875 -3.078125 C-20.40264533 -5.87587434 -8.98874656 -4.86416349 0 0 Z " fill="#19242E" transform="translate(325,662)"/>
<path d="M0 0 C15.84 0 31.68 0 48 0 C48 4.95 48 9.9 48 15 C37.44 15 26.88 15 16 15 C16 20.61 16 26.22 16 32 C25.57 32 35.14 32 45 32 C45 36.62 45 41.24 45 46 C35.43 46 25.86 46 16 46 C16 51.61 16 57.22 16 63 C27.22 63 38.44 63 50 63 C50 67.95 50 72.9 50 78 C33.5 78 17 78 0 78 C0 52.26 0 26.52 0 0 Z " fill="#17222D" transform="translate(604,866)"/>
<path d="M0 0 C6.32823129 3.96736796 9.8604632 9.50631261 12.375 16.4375 C13.52425578 25.832666 13.24956641 34.64924907 7.375 42.4375 C2.64432742 47.82265883 -2.9100168 50.81038401 -10.00390625 51.75390625 C-17.32224133 52.10894285 -24.08158432 50.50801622 -29.703125 45.63671875 C-36.70066496 38.06585093 -38.3832392 30.54167653 -38.03515625 20.39453125 C-37.27615051 13.07193303 -34.53307806 7.88405718 -29.125 2.9375 C-21.75274602 -3.04376266 -8.63633469 -3.90731259 0 0 Z " fill="#FBFBFB" transform="translate(622.625,674.5625)"/>
<path d="M0 0 C20.79 0 41.58 0 63 0 C63 4.95 63 9.9 63 15 C55.41 15 47.82 15 40 15 C40 36.78 40 58.56 40 81 C34.39 81 28.78 81 23 81 C23 59.55 23 38.1 23 16 C15.41 16 7.82 16 0 16 C0 10.72 0 5.44 0 0 Z " fill="#1D2732" transform="translate(334,763)"/>
<path d="M0 0 C7.04810537 3.49393258 10.73068213 9.55665111 13.53515625 16.6953125 C15.08173122 25.3561323 14.07674022 32.22226656 10.16015625 40.1953125 C7.72265625 43.1328125 7.72265625 43.1328125 5.16015625 45.1953125 C3.86078125 46.3090625 3.86078125 46.3090625 2.53515625 47.4453125 C-3.26503453 51.71913729 -10.96439312 50.69769407 -17.83984375 50.1953125 C-24.82765764 48.4216472 -29.28117862 43.49193885 -32.875 37.45703125 C-36.10992149 30.43048085 -36.16691119 21.59527832 -33.9609375 14.28125 C-27.55874768 0.29362735 -14.40350243 -4.08132256 0 0 Z " fill="#FAFBFB" transform="translate(704.83984375,777.8046875)"/>
<path d="M0 0 C21.45 0 42.9 0 65 0 C65 4.95 65 9.9 65 15 C57.08 15 49.16 15 41 15 C41 36.45 41 57.9 41 80 C35.72 80 30.44 80 25 80 C25 58.55 25 37.1 25 15 C16.75 15 8.5 15 0 15 C0 10.05 0 5.1 0 0 Z " fill="#18222C" transform="translate(498,659)"/>
<path d="M0 0 C5.61 0 11.22 0 17 0 C17 26.07 17 52.14 17 79 C11.39 79 5.78 79 0 79 C0 52.93 0 26.86 0 0 Z " fill="#1C2833" transform="translate(624,763)"/>
<path d="M0 0 C2.51625 -0.061875 5.0325 -0.12375 7.625 -0.1875 C8.79603271 -0.22846802 8.79603271 -0.22846802 9.99072266 -0.27026367 C15.9159412 -0.34021103 19.9291423 1.09263106 24.375 5.1875 C26.48052491 8.83167773 26.93501898 11.94296849 26 16 C24.01310301 19.5187794 21.90623723 21.69792092 18 23 C16.59175107 23.08021999 15.18002769 23.10765977 13.76953125 23.09765625 C13.04612549 23.09515869 12.32271973 23.09266113 11.57739258 23.09008789 C10.66497803 23.08098389 9.75256348 23.07187988 8.8125 23.0625 C5.904375 23.041875 2.99625 23.02125 0 23 C0 15.41 0 7.82 0 0 Z " fill="#FBFBFC" transform="translate(683,879)"/>
<path d="M0 0 C2.536875 -0.04125 5.07375 -0.0825 7.6875 -0.125 C8.47729248 -0.14320801 9.26708496 -0.16141602 10.08081055 -0.18017578 C15.39174666 -0.22180912 18.91360488 0.5511145 23.25 3.5625 C25.84020762 7.17028919 26.32026331 10.60019212 26 15 C24.38911232 18.40764701 23.22276469 20.32827638 19.90234375 22.15234375 C15.94764574 23.30734976 12.27976838 23.21349418 8.1875 23.125 C4.1346875 23.063125 4.1346875 23.063125 0 23 C0 15.41 0 7.82 0 0 Z " fill="#FAFAFB" transform="translate(298,879)"/>
<path d="M0 0 C16.17 0 32.34 0 49 0 C49 4.95 49 9.9 49 15 C38.11 15 27.22 15 16 15 C16 14.67 16 14.34 16 14 C26.56 14 37.12 14 48 14 C48 10.04 48 6.08 48 2 C32.82 2 17.64 2 2 2 C2 27.08 2 52.16 2 78 C17.51 78 33.02 78 49 78 C49 74.04 49 70.08 49 66 C38.11 66 27.22 66 16 66 C16 65.67 16 65.34 16 65 C27.55 65 39.1 65 51 65 C51 69.62 51 74.24 51 79 C34.17 79 17.34 79 0 79 C0 52.93 0 26.86 0 0 Z " fill="#0E121A" transform="translate(407,763)"/>
<path d="M0 0 C5.12387456 2.32903389 7.29824182 5.32038986 9.44213867 10.45166016 C9.94126872 11.81151126 10.43282591 13.17415875 10.91796875 14.5390625 C11.18007645 15.26112885 11.44218414 15.98319519 11.7122345 16.72714233 C12.26248178 18.24726635 12.80943202 19.76858739 13.35327148 21.29101562 C14.18806015 23.62656716 15.03358499 25.9580151 15.88085938 28.2890625 C16.41469532 29.7680009 16.9479199 31.24716015 17.48046875 32.7265625 C17.73354294 33.42552643 17.98661713 34.12449036 18.24736023 34.84463501 C20 39.76752067 20 39.76752067 20 42 C19.01 42 18.02 42 17 42 C16.32844651 39.73050898 15.6626037 37.4596039 15 35.1875 C14.62875 33.92292969 14.2575 32.65835938 13.875 31.35546875 C13 28 13 28 13 25 C12.34 25 11.68 25 11 25 C10.71125 23.906875 10.4225 22.81375 10.125 21.6875 C9.18106796 17.95986155 9.18106796 17.95986155 7 15 C6.87625 14.05125 6.7525 13.1025 6.625 12.125 C5.87223357 8.36116784 4.69992056 6.69992056 2 4 C-0.95644654 2.2564546 -2.25699323 1.84078426 -5.625 2.5625 C-8.58298239 4.35285776 -9.60753398 5.84862953 -11 9 C-11.24368886 11.49781081 -11.15770954 13.40953549 -10.51171875 15.828125 C-9.73290632 19.13361898 -9.61160527 22.47390634 -9.37890625 25.85546875 C-9.25386719 26.56316406 -9.12882813 27.27085938 -9 28 C-8.34 28.33 -7.68 28.66 -7 29 C-8.32 29.99 -9.64 30.98 -11 32 C-11.53367187 31.69707031 -12.06734375 31.39414063 -12.6171875 31.08203125 C-17.5805161 28.2912323 -22.59436128 25.6514363 -27.703125 23.13671875 C-29.62956071 22.18332965 -31.53616912 21.19001992 -33.4375 20.1875 C-35.98294182 18.78976949 -35.98294182 18.78976949 -39 19 C-39 18.34 -39 17.68 -39 17 C-40.65 16.67 -42.3 16.34 -44 16 C-44 15.34 -44 14.68 -44 14 C-46.64 14 -49.28 14 -52 14 C-52.495 13.01 -52.495 13.01 -53 12 C-55.52733235 11.34444881 -55.52733235 11.34444881 -58 11 C-58 10.34 -58 9.68 -58 9 C-59.216875 9.020625 -60.43375 9.04125 -61.6875 9.0625 C-64.91977322 9.06824116 -67.84934741 8.78766315 -71 8 C-71 7.34 -71 6.68 -71 6 C-71.70125 5.96261719 -72.4025 5.92523438 -73.125 5.88671875 C-79.32251602 5.45727131 -84.30009796 4.47354239 -90 2 C-90 1.67 -90 1.34 -90 1 C-73.04636834 -0.03405129 -54.69228474 8.1460918 -39.1875 14.4375 C-38.1999321 14.83405289 -38.1999321 14.83405289 -37.19241333 15.23861694 C-27.66270504 19.09290352 -18.80846769 23.70743512 -10 29 C-10.30752197 28.00742188 -10.61504395 27.01484375 -10.93188477 25.9921875 C-14.94409021 12.87433911 -14.94409021 12.87433911 -14 7 C-10.36260089 0.89292769 -6.95755609 -0.47169872 0 0 Z " fill="#655AF3" transform="translate(647,98)"/>
<path d="M0 0 C5.61 0 11.22 0 17 0 C17 26.07 17 52.14 17 79 C11.39 79 5.78 79 0 79 C0 52.93 0 26.86 0 0 Z M2 2 C2 27.08 2 52.16 2 78 C6.29 78 10.58 78 15 78 C15 52.92 15 27.84 15 2 C10.71 2 6.42 2 2 2 Z " fill="#0E141F" transform="translate(624,763)"/>
<path d="M0 0 C5.28 0 10.56 0 16 0 C16 26.07 16 52.14 16 79 C11.05 79 6.1 79 1 79 C1 78.01 1 77.02 1 76 C1.33 76.33 1.66 76.66 2 77 C5.96 77.33 9.92 77.66 14 78 C14 52.92 14 27.84 14 2 C9.71 2 5.42 2 1 2 C1 13.55 1 25.1 1 37 C0.67 37 0.34 37 0 37 C0 24.79 0 12.58 0 0 Z " fill="#030710" transform="translate(524,763)"/>
<path d="M0 0 C5.28 0 10.56 0 16 0 C16 26.07 16 52.14 16 79 C11.05 79 6.1 79 1 79 C1.495 78.01 1.495 78.01 2 77 C5.96 77 9.92 77 14 77 C14 52.25 14 27.5 14 2 C9.71 2 5.42 2 1 2 C1 13.55 1 25.1 1 37 C0.67 37 0.34 37 0 37 C0 24.79 0 12.58 0 0 Z " fill="#060C13" transform="translate(801,763)"/>
<path d="M0 0 C16.17 0 32.34 0 49 0 C49 4.95 49 9.9 49 15 C38.11 15 27.22 15 16 15 C16 14.67 16 14.34 16 14 C31.345 13.505 31.345 13.505 47 13 C47 9.37 47 5.74 47 2 C31.82 2 16.64 2 1 2 C1 27.08 1 52.16 1 78 C0.67 78 0.34 78 0 78 C0 52.26 0 26.52 0 0 Z " fill="#232A32" transform="translate(199,763)"/>
<path d="M0 0 C5.61 0 11.22 0 17 0 C17.01458252 1.63469238 17.02916504 3.26938477 17.04418945 4.95361328 C17.10221478 11.02561178 17.17944847 17.0972411 17.26245117 23.16894531 C17.29568038 25.79551191 17.3237185 28.42214957 17.34643555 31.04882812 C17.38001728 34.82713061 17.43233753 38.60478305 17.48828125 42.3828125 C17.49467117 43.55490265 17.5010611 44.7269928 17.50764465 45.93460083 C17.64369469 53.49989662 18.36707215 58.18337951 23.6875 63.875 C24.450625 64.57625 25.21375 65.2775 26 66 C21.55955487 64.64319732 19.54835485 62.86646942 17 59 C14.39010983 53.2212055 14.74557544 47.46873108 14.8046875 41.2578125 C14.8075174 40.13430389 14.81034729 39.01079529 14.81326294 37.85324097 C14.82442697 34.27705073 14.84952499 30.7011141 14.875 27.125 C14.88503467 24.69531613 14.89415967 22.26562831 14.90234375 19.8359375 C14.924354 13.8905278 14.9588582 7.94530685 15 2 C10.38 2 5.76 2 1 2 C1 18.17 1 34.34 1 51 C0.67 51 0.34 51 0 51 C0 34.17 0 17.34 0 0 Z " fill="#060D16" transform="translate(349,659)"/>
<path d="M0 0 C5.61 0 11.22 0 17 0 C17 17.82 17 35.64 17 54 C16.67 54 16.34 54 16 54 C16 36.84 16 19.68 16 2 C11.38 2 6.76 2 2 2 C2.01047363 3.52923096 2.02094727 5.05846191 2.03173828 6.6340332 C2.06788746 12.29758369 2.09088201 17.96112394 2.10986328 23.62475586 C2.11993245 26.07789829 2.13358861 28.53102869 2.15087891 30.98413086 C2.17508679 34.50637783 2.18647388 38.02846639 2.1953125 41.55078125 C2.20563507 42.65086014 2.21595764 43.75093903 2.22659302 44.88435364 C2.22674408 45.90518539 2.22689514 46.92601715 2.22705078 47.9777832 C2.231492 48.87713089 2.23593323 49.77647858 2.24050903 50.70307922 C2 53 2 53 0 56 C0 37.52 0 19.04 0 0 Z " fill="#0E141B" transform="translate(401,659)"/>
<path d="M0 0 C0.69867188 -0.02900391 1.39734375 -0.05800781 2.1171875 -0.08789062 C5.80687193 -0.13314147 7.80878572 0.18917696 10.9375 2.20703125 C13.72085322 5.048371 14.20527879 6.74099529 14.375 10.625 C14.31286007 14.14437989 14.10439003 15.15759867 12.0625 18.1875 C5.79923319 22.53344023 -1.62202973 23.82992914 -9 25.3125 C-9 25.9725 -9 26.6325 -9 27.3125 C-1.74 30.9425 5.52 34.5725 13 38.3125 C11 39.3125 9 40.3125 7 41.3125 C6.505 38.8375 6.505 38.8375 6 36.3125 C4.9275 36.168125 3.855 36.02375 2.75 35.875 C-3.29508197 34.9682377 -3.29508197 34.9682377 -5 34.3125 C-5.495 32.8275 -5.495 32.8275 -6 31.3125 C-6.78375 31.250625 -7.5675 31.18875 -8.375 31.125 C-9.24125 30.856875 -10.1075 30.58875 -11 30.3125 C-12.3125 27.75 -12.3125 27.75 -13 25.3125 C-12.34 24.6525 -11.68 23.9925 -11 23.3125 C-9.68 23.3125 -8.36 23.3125 -7 23.3125 C-7 22.6525 -7 21.9925 -7 21.3125 C-5.0509375 21.18875 -5.0509375 21.18875 -3.0625 21.0625 C2.21340374 20.50141182 6.26086372 18.64445595 11 16.3125 C11 12.6825 11 9.0525 11 5.3125 C7.05895486 3.73608195 5.29342562 3.05917043 1.35546875 2.8984375 C0.09379883 2.84042969 0.09379883 2.84042969 -1.19335938 2.78125 C-2.48983398 2.73484375 -2.48983398 2.73484375 -3.8125 2.6875 C-4.69615234 2.64882813 -5.57980469 2.61015625 -6.49023438 2.5703125 C-8.65982972 2.47649216 -10.82988547 2.39342674 -13 2.3125 C-13 1.9825 -13 1.6525 -13 1.3125 C-8.67750478 0.27408806 -4.42555403 0.06123922 0 0 Z " fill="#2F7EE9" transform="translate(411,517.6875)"/>
<path d="M0 0 C4.95 0 9.9 0 15 0 C15 25.74 15 51.48 15 78 C14.34 78 13.68 78 13 78 C13 52.92 13 27.84 13 2 C8.71 1.67 4.42 1.34 0 1 C0 0.67 0 0.34 0 0 Z " fill="#080F19" transform="translate(626,763)"/>
<path d="M0 0 C1.16365585 0.00141495 2.32731171 0.0028299 3.52622986 0.00428772 C7.21412818 0.00984997 10.90196402 0.02239542 14.58984375 0.03515625 C17.10221266 0.04017613 19.61458253 0.04473818 22.12695312 0.04882812 C28.2604377 0.05980702 34.39388626 0.07650722 40.52734375 0.09765625 C40.52734375 1.08765625 40.52734375 2.07765625 40.52734375 3.09765625 C38.05998491 4.33133567 36.25924774 4.09765625 33.52734375 4.09765625 C32.86734375 4.42765625 32.20734375 4.75765625 31.52734375 5.09765625 C30.06235244 5.19338371 28.5931141 5.22839702 27.125 5.23046875 C26.23949463 5.23256348 25.35398926 5.2346582 24.44165039 5.23681641 C23.5005542 5.23214355 22.55945801 5.2274707 21.58984375 5.22265625 C20.63650146 5.21927246 19.68315918 5.21588867 18.70092773 5.21240234 C0.88793949 5.08168155 0.88793949 5.08168155 -6.47265625 2.09765625 C-6.80265625 2.75765625 -7.13265625 3.41765625 -7.47265625 4.09765625 C-12.09265625 3.43765625 -16.71265625 2.77765625 -21.47265625 2.09765625 C-21.47265625 1.76765625 -21.47265625 1.43765625 -21.47265625 1.09765625 C-14.2796674 0.14277624 -7.25076845 -0.03362806 0 0 Z " fill="#3B7BEB" transform="translate(500.47265625,572.90234375)"/>
<path d="M0 0 C0.99 0.66 1.98 1.32 3 2 C3.36076355 4.17666626 3.36076355 4.17666626 3.34057617 6.90869141 C3.34034958 7.92959869 3.34012299 8.95050598 3.33988953 10.00234985 C3.32440567 11.10759003 3.30892181 12.2128302 3.29296875 13.3515625 C3.28872391 14.4807309 3.28447906 15.60989929 3.28010559 16.77328491 C3.26327132 20.39076273 3.22560975 24.00768969 3.1875 27.625 C3.17245934 30.07290864 3.15876986 32.52082598 3.14648438 34.96875 C3.11335214 40.97937991 3.06153674 46.98959647 3 53 C-2.28 53 -7.56 53 -13 53 C-13 48.05 -13 43.1 -13 38 C-12.67 38 -12.34 38 -12 38 C-12 41.96 -12 45.92 -12 50 C-8.04 50 -4.08 50 0 50 C0 33.5 0 17 0 0 Z " fill="#222B34" transform="translate(484,790)"/>
<path d="M0 0 C6.7278288 -0.43250328 12.76244549 1.13136908 19.25 2.8125 C20.41845459 3.11438232 21.58690918 3.41626465 22.79077148 3.72729492 C55.62570408 12.62570408 55.62570408 12.62570408 63 20 C61.3125 20.6875 61.3125 20.6875 59 21 C57.30485863 20.04906703 55.63631892 19.04892238 54 18 C53.01 18 52.02 18 51 18 C51 17.34 51 16.68 51 16 C48.525 15.505 48.525 15.505 46 15 C46 14.34 46 13.68 46 13 C43.36 13 40.72 13 38 13 C37.505 12.01 37.505 12.01 37 11 C34.47266765 10.34444881 34.47266765 10.34444881 32 10 C32 9.34 32 8.68 32 8 C30.783125 8.020625 29.56625 8.04125 28.3125 8.0625 C25.08022678 8.06824116 22.15065259 7.78766315 19 7 C19 6.34 19 5.68 19 5 C18.29875 4.96261719 17.5975 4.92523438 16.875 4.88671875 C10.67748398 4.45727131 5.69990204 3.47354239 0 1 C0 0.67 0 0.34 0 0 Z " fill="#4F65F0" transform="translate(557,99)"/>
<path d="M0 0 C2.27584411 3.41376616 3.67264165 6.94190252 5.125 10.75 C5.54072266 11.78640625 5.54072266 11.78640625 5.96484375 12.84375 C7.6886704 17.36136466 8.46107511 21.09197682 8 26 C5.50281918 29.74577123 3.09617956 31.22570666 -1.1875 32.1875 C-9.07355754 33.44782883 -17.05740705 34.18670617 -25 35 C-25 34.01 -25 33.02 -25 32 C-24.39671875 32.02320313 -23.7934375 32.04640625 -23.171875 32.0703125 C-22.37265625 32.08835938 -21.5734375 32.10640625 -20.75 32.125 C-19.96109375 32.14820313 -19.1721875 32.17140625 -18.359375 32.1953125 C-15.78771792 31.98242698 -14.27164664 31.1552391 -12 30 C-11.34 30.33 -10.68 30.66 -10 31 C-7.41861181 30.4228132 -4.91463642 29.78643695 -2.375 29.0625 C-1.31539062 28.76956055 -1.31539062 28.76956055 -0.234375 28.47070312 C1.51219844 27.98685508 3.25634124 27.49424877 5 27 C3.99990265 15.01410766 3.99990265 15.01410766 -2 5 C-1.34 3.35 -0.68 1.7 0 0 Z " fill="#685EF4" transform="translate(667,141)"/>
<path d="M0 0 C0.99 0.495 0.99 0.495 2 1 C2 6.28 2 11.56 2 17 C13.22 17 24.44 17 36 17 C36 21.95 36 26.9 36 32 C34.35 32 32.7 32 31 32 C31.99 31.67 32.98 31.34 34 31 C34 27.04 34 23.08 34 19 C32.50835327 19.00785522 32.50835327 19.00785522 30.98657227 19.01586914 C27.30966079 19.03392041 23.63275325 19.04543246 19.95581055 19.05493164 C18.36205386 19.05997157 16.76830181 19.0668035 15.17456055 19.07543945 C12.88849747 19.08751999 10.60249533 19.09323155 8.31640625 19.09765625 C7.59973282 19.10281754 6.88305939 19.10797882 6.14466858 19.11329651 C4.42936328 19.11349263 2.71418734 19.06192007 1 19 C0 18 0 18 -0.11352539 16.23413086 C-0.10828857 15.48526611 -0.10305176 14.73640137 -0.09765625 13.96484375 C-0.09443359 13.15595703 -0.09121094 12.34707031 -0.08789062 11.51367188 C-0.07951172 10.66353516 -0.07113281 9.81339844 -0.0625 8.9375 C-0.05798828 8.08349609 -0.05347656 7.22949219 -0.04882812 6.34960938 C-0.03700373 4.23304337 -0.01906769 2.11651315 0 0 Z " fill="#191F27" transform="translate(618,912)"/>
<path d="M0 0 C4.95 0 9.9 0 15 0 C15 16.83 15 33.66 15 51 C14.01 51.495 14.01 51.495 13 52 C13 35.5 13 19 13 2 C8.71 2 4.42 2 0 2 C0 1.34 0 0.68 0 0 Z " fill="#050C15" transform="translate(354,866)"/>
<path d="M0 0 C2.56266727 2.20947777 3.39991475 3.57641128 3.73046875 6.9375 C3.81127686 7.73736328 3.89208496 8.53722656 3.9753418 9.36132812 C4.045354 10.23208984 4.11536621 11.10285156 4.1875 12 C4.26718018 12.90685547 4.34686035 13.81371094 4.42895508 14.74804688 C6.72064543 44.06986802 6.72064543 44.06986802 4 56 C1.48216762 52.22325143 1.79571057 50.2710298 1.875 45.76171875 C1.88257324 45.0445015 1.89014648 44.32728424 1.89794922 43.58833313 C1.93039541 40.53116937 1.98577774 37.47454954 2.04101562 34.41772461 C2.19000821 25.39289072 1.96840001 16.85056726 0.4375 7.92895508 C0.03438396 5.23019217 -0.08056525 2.72253913 0 0 Z " fill="#7B5CF6" transform="translate(772,315)"/>
<path d="M0 0 C3.99358516 3.65005095 6.08058785 8.32125989 8.5625 13.0625 C9.08682617 14.06369873 9.61115234 15.06489746 10.15136719 16.09643555 C25 45.17762181 25 45.17762181 25 54 C24.01 54 23.02 54 22 54 C21.80664062 53.14535156 21.61328125 52.29070312 21.4140625 51.41015625 C21.02347656 49.75306641 21.02347656 49.75306641 20.625 48.0625 C20.36976563 46.96035156 20.11453125 45.85820312 19.8515625 44.72265625 C19.57054687 43.82417969 19.28953125 42.92570312 19 42 C18.34 41.67 17.68 41.34 17 41 C16.06595601 38.80310525 15.22622162 36.565654 14.4375 34.3125 C14.00308594 33.09175781 13.56867187 31.87101562 13.12109375 30.61328125 C12.12143406 27.39138156 11.45610881 24.33625661 11 21 C10.34 21 9.68 21 9 21 C6.125 14.375 6.125 14.375 5 11 C4.34 10.67 3.68 10.34 3 10 C2.1484375 7.71484375 2.1484375 7.71484375 1.375 4.9375 C1.11460937 4.01839844 0.85421875 3.09929687 0.5859375 2.15234375 C0.39257812 1.44207031 0.19921875 0.73179687 0 0 Z " fill="#7554F5" transform="translate(741,223)"/>
<path d="M0 0 C0.33 0 0.66 0 1 0 C1.33 2.31 1.66 4.62 2 7 C2.763125 7.103125 3.52625 7.20625 4.3125 7.3125 C7 8 7 8 8.39868164 9.56567383 C9.89295145 11.21332958 9.89295145 11.21332958 12.02124023 11.06518555 C12.77606689 10.9237915 13.53089355 10.78239746 14.30859375 10.63671875 C15.13810547 10.49169922 15.96761719 10.34667969 16.82226562 10.19726562 C17.68529297 10.02904297 18.54832031 9.86082031 19.4375 9.6875 C21.14407604 9.37639874 22.85109538 9.06771729 24.55859375 8.76171875 C25.31454834 8.61694092 26.07050293 8.47216309 26.84936523 8.32299805 C29.89650221 7.86535675 32.92449253 8 36 8 C36.33 7.34 36.66 6.68 37 6 C37.495 6.495 37.495 6.495 38 7 C40.67058851 7.14115161 43.32432238 7.04247107 46 7 C42.944594 9.63326286 40.73203819 10.4698941 36.74609375 10.94921875 C35.72580078 11.07490234 34.70550781 11.20058594 33.65429688 11.33007812 C32.59275391 11.44802734 31.53121094 11.56597656 30.4375 11.6875 C29.40302734 11.81705078 28.36855469 11.94660156 27.30273438 12.08007812 C9.81636311 14.14953596 9.81636311 14.14953596 3.9375 11.75 C1.82549613 9.8423836 0.85257543 8.71274001 0 6 C-0.125 2.75 -0.125 2.75 0 0 Z " fill="#605FF3" transform="translate(595,167)"/>
<path d="M0 0 C0.66 0.33 1.32 0.66 2 1 C2 1.66 2 2.32 2 3 C2.66 3 3.32 3 4 3 C4 3.66 4 4.32 4 5 C4.66 5 5.32 5 6 5 C6.33 4.01 6.66 3.02 7 2 C7.33 2.99 7.66 3.98 8 5 C10.01508358 5.73323796 10.01508358 5.73323796 12 6 C12 6.66 12 7.32 12 8 C12.66 8 13.32 8 14 8 C13.8125 9.875 13.8125 9.875 13 12 C9.0974742 14.1400948 4.47611088 15.08112534 0.20703125 16.31640625 C-2.0115678 16.93805075 -2.0115678 16.93805075 -4 18 C-5.134375 18.12375 -6.26875 18.2475 -7.4375 18.375 C-10.91888757 18.98576975 -11.96481586 19.24651558 -14 22 C-13.69921875 20.125 -13.69921875 20.125 -13 18 C-6.25905297 13.77038618 1.37085424 12.01443736 9 10 C5.82449818 7.53553446 2.63235056 5.73362186 -1 4 C-1 3.34 -1 2.68 -1 2 C-1.66 1.67 -2.32 1.34 -3 1 C-2.01 0.67 -1.02 0.34 0 0 Z " fill="#6167F1" transform="translate(610,144)"/>
<path d="M0 0 C0.66 0.33 1.32 0.66 2 1 C1.4698429 8.53260534 0.10798115 15.67291126 -1.6875 23 C-1.94934082 24.08273193 -2.21118164 25.16546387 -2.48095703 26.28100586 C-4.81593041 35.70503629 -7.71165956 44.86960794 -11 54 C-12.13432815 50.59701556 -11.86977857 49.95352083 -10.75 46.6875 C-9.39338908 42.46967331 -8.38343163 38.27947249 -7.5 33.9375 C-6.65967159 29.82078473 -5.71108186 25.93827973 -4.25 22 C-2.93661969 18.35928256 -2.92947714 15.79549014 -4 12 C-3.34 12 -2.68 12 -2 12 C-1.93941406 11.21753906 -1.87882813 10.43507813 -1.81640625 9.62890625 C-1.73261719 8.61699219 -1.64882813 7.60507812 -1.5625 6.5625 C-1.48128906 5.55316406 -1.40007813 4.54382813 -1.31640625 3.50390625 C-1 1 -1 1 0 0 Z " fill="#664AF4" transform="translate(773,380)"/>
<path d="M0 0 C0.33 0.66 0.66 1.32 1 2 C1.66 2 2.32 2 3 2 C8.55580866 17.74487472 8.55580866 17.74487472 9 25 C9.99 25.33 10.98 25.66 12 26 C12.103125 27.010625 12.20625 28.02125 12.3125 29.0625 C13.15600535 33.89348518 14.82126632 37.93721606 17.25 42.1875 C18.20276675 44.49001964 17.82270808 45.69641736 17 48 C15 47 15 47 13.93432617 44.35473633 C13.36935425 42.61099731 13.36935425 42.61099731 12.79296875 40.83203125 C12.58569656 40.20076828 12.37842438 39.56950531 12.16487122 38.91911316 C11.49865547 36.88581027 10.84268512 34.84938113 10.1875 32.8125 C9.32981383 30.17219735 8.4677283 27.53334315 7.60546875 24.89453125 C7.39356903 24.2417923 7.18166931 23.58905334 6.96334839 22.91653442 C5.08320166 17.15911287 3.02253021 11.4759091 0.91137695 5.79956055 C0 3 0 3 0 0 Z " fill="#2C7EE7" transform="translate(348,539)"/>
<path d="M0 0 C0.99 0.33 1.98 0.66 3 1 C5.24442701 6.85583014 6.8733524 13.76176859 6 20 C4.3562347 23.11141288 2.96963114 25.28893717 0.125 27.375 C-2.81108828 28.23855538 -4.94514926 28.36658209 -8 28 C-11.6578218 25.96006092 -13.66946174 24.49580738 -16 21 C-15.505 19.515 -15.505 19.515 -15 18 C-14.484375 18.969375 -13.96875 19.93875 -13.4375 20.9375 C-11.26499578 24.2821796 -11.26499578 24.2821796 -7.625 24.9375 C-4.24515218 24.99577324 -1.2950635 24.72330662 2 24 C3.3407134 15.50881512 1.93731874 8.29473365 0 0 Z " fill="#3382EA" transform="translate(381,570)"/>
<path d="M0 0 C5.89558156 3.14431016 9.45635406 9.34893792 13.125 14.75 C12.795 15.41 12.465 16.07 12.125 16.75 C8.14861267 13.8781647 5.60969141 10.98317796 3.125 6.75 C3.125 6.09 3.125 5.43 3.125 4.75 C2.50625 4.440625 1.8875 4.13125 1.25 3.8125 C-0.125 3.125 -1.5 2.4375 -2.875 1.75 C-8.80722196 1.07203178 -13.75145416 4.08575616 -18.875 6.75 C-18.49618922 4.00362183 -18.09667713 2.94950942 -16 1.0625 C-10.91946937 -2.0754748 -5.49527145 -2.18275253 0 0 Z " fill="#7357F4" transform="translate(713.875,185.25)"/>
<path d="M0 0 C1.27351308 2.54702616 0.80191925 3.4282945 0.0625 6.125 C-0.13214844 6.84945312 -0.32679688 7.57390625 -0.52734375 8.3203125 C-0.68332031 8.87460938 -0.83929687 9.42890625 -1 10 C-0.01 10.33 0.98 10.66 2 11 C2.04898438 11.92683594 2.09796875 12.85367188 2.1484375 13.80859375 C2.22320313 15.00613281 2.29796875 16.20367187 2.375 17.4375 C2.44460938 18.63246094 2.51421875 19.82742187 2.5859375 21.05859375 C2.72257813 22.02925781 2.85921875 22.99992187 3 24 C3.66 24.33 4.32 24.66 5 25 C3.68 25.99 2.36 26.98 1 28 C-5 24.66666667 -11 21.33333333 -17 18 C-16.01 17.34 -15.02 16.68 -14 16 C-8.72 18.97 -3.44 21.94 2 25 C1.34 22.855 0.68 20.71 0 18.5 C-1.5585489 13.1912312 -2.62696968 8.53823217 -2 3 C-1.34 2.01 -0.68 1.02 0 0 Z " fill="#6063F2" transform="translate(635,102)"/>
<path d="M0 0 C0 10.56 0 21.12 0 32 C-0.99 31.34 -1.98 30.68 -3 30 C-3.34057617 27.11083984 -3.34057617 27.11083984 -3.29296875 23.4609375 C-3.28330078 22.15898437 -3.27363281 20.85703125 -3.26367188 19.515625 C-3.23860388 18.13541077 -3.21320902 16.75520244 -3.1875 15.375 C-3.17245517 13.98699337 -3.15876641 12.59897133 -3.14648438 11.2109375 C-3.1110257 7.80690491 -3.06160298 4.40364378 -3 1 C-1 0 -1 0 0 0 Z " fill="#4799EC" transform="translate(248,335)"/>
<path d="M0 0 C11.6808844 1.80296081 11.6808844 1.80296081 16.0625 3.125 C18.96835118 4.14273829 18.96835118 4.14273829 22 4 C22 4.66 22 5.32 22 6 C23.32 5.67 24.64 5.34 26 5 C26 5.99 26 6.98 26 8 C26.99 8.33 27.98 8.66 29 9 C22.31184526 8.45389059 16.37156029 7.1349966 10 5.0625 C9.14277344 4.79759766 8.28554688 4.53269531 7.40234375 4.25976562 C2.72222605 2.76524309 2.72222605 2.76524309 1 2 C0.67 1.34 0.34 0.68 0 0 Z " fill="#347AE9" transform="translate(428,590)"/>
<path d="M0 0 C5.94 0 11.88 0 18 0 C15.03 4.95 15.03 4.95 12 10 C11 6 11 6 11 3 C9.39667209 2.91878076 7.79215974 2.86070866 6.1875 2.8125 C5.29417969 2.77769531 4.40085937 2.74289062 3.48046875 2.70703125 C0.58352485 3.04918998 -0.22555028 3.75393573 -2 6 C-1.49396008 3.83125748 -1.00016187 2.00032373 0 0 Z " fill="#111821" transform="translate(310,763)"/>
<path d="M0 0 C0.99 0.33 1.98 0.66 3 1 C3.81542969 2.88598633 3.81542969 2.88598633 4.421875 5.33203125 C4.64230469 6.21310547 4.86273437 7.09417969 5.08984375 8.00195312 C5.30769531 8.92943359 5.52554688 9.85691406 5.75 10.8125 C6.09998047 12.18631836 6.09998047 12.18631836 6.45703125 13.58789062 C8.27891934 21.07726892 8.27891934 21.07726892 7 25 C6.34 25 5.68 25 5 25 C3.33333333 16.66666667 1.66666667 8.33333333 0 0 Z " fill="#795AF4" transform="translate(764,278)"/>
<path d="M0 0 C0.33 1.32 0.66 2.64 1 4 C-5.27 4 -11.54 4 -18 4 C-17.67 3.01 -17.34 2.02 -17 1 C-14.72926348 0.83201949 -12.45840707 0.66565887 -10.1875 0.5 C-8.29064453 0.36078125 -8.29064453 0.36078125 -6.35546875 0.21875 C-4.24021483 0.08085219 -2.11974408 0 0 0 Z " fill="#30373E" transform="translate(328,839)"/>
<path d="M0 0 C0.90105469 0.11085938 1.80210937 0.22171875 2.73046875 0.3359375 C3.76107422 0.47902344 3.76107422 0.47902344 4.8125 0.625 C4.8125 0.955 4.8125 1.285 4.8125 1.625 C3.760625 1.7075 2.70875 1.79 1.625 1.875 C-2.56065387 2.69840732 -4.3187739 3.50315101 -7.1875 6.625 C-8.07343998 9.76363704 -8.07343998 9.76363704 -8.1875 12.625 C-9.1775 12.625 -10.1675 12.625 -11.1875 12.625 C-11.51271241 7.9636221 -11.00701666 5.38435554 -8.1875 1.625 C-4.73535147 -0.67643236 -3.95270676 -0.51333854 0 0 Z " fill="#3A86E8" transform="translate(357.1875,524.375)"/>
<path d="M0 0 C0.33 0 0.66 0 1 0 C1.33 2.31 1.66 4.62 2 7 C2.763125 7.103125 3.52625 7.20625 4.3125 7.3125 C7 8 7 8 8.21875 9.53125 C11.02420086 11.8445165 13.63913998 11.28516129 17.1875 11.1875 C18.45980469 11.16042969 19.73210938 11.13335937 21.04296875 11.10546875 C22.01878906 11.07066406 22.99460937 11.03585938 24 11 C24 11.33 24 11.66 24 12 C17.51921057 13.40125177 10.17329174 14.29522112 3.9375 11.75 C1.82549613 9.8423836 0.85257543 8.71274001 0 6 C-0.125 2.75 -0.125 2.75 0 0 Z " fill="#4E5DF1" transform="translate(595,167)"/>
<path d="M0 0 C1.65 0 3.3 0 5 0 C5 0.99 5 1.98 5 3 C2.53264116 4.23367942 0.73190399 4 -2 4 C-2.66 4.33 -3.32 4.66 -4 5 C-5.46499131 5.09572746 -6.93422965 5.13074077 -8.40234375 5.1328125 C-9.7313269 5.13571289 -9.7313269 5.13571289 -11.0871582 5.13867188 C-12.49807739 5.1319043 -12.49807739 5.1319043 -13.9375 5.125 C-14.8864917 5.12306641 -15.8354834 5.12113281 -16.81323242 5.11914062 C-23.24901681 5.07945779 -29.611963 4.83777534 -36 4 C-36 3.67 -36 3.34 -36 3 C-35.08710205 2.97494385 -34.1742041 2.9498877 -33.23364258 2.92407227 C-29.83232369 2.82868393 -26.43116061 2.72946598 -23.0300293 2.62768555 C-21.56067232 2.58449295 -20.0912702 2.54280744 -18.62182617 2.50268555 C-16.50425645 2.44460118 -14.38691063 2.38101902 -12.26953125 2.31640625 C-10.99698486 2.27974854 -9.72443848 2.24309082 -8.41333008 2.20532227 C-5.49741104 2.0299208 -2.83732095 1.66607117 0 1 C0 0.67 0 0.34 0 0 Z " fill="#5185EA" transform="translate(536,573)"/>
<path d="M0 0 C0.99 0.33 1.98 0.66 3 1 C3 1.66 3 2.32 3 3 C4.65 3 6.3 3 8 3 C7.67 3.99 7.34 4.98 7 6 C9.97 6.495 9.97 6.495 13 7 C13.33 7.99 13.66 8.98 14 10 C15.98248715 10.71706982 17.98415349 11.38290413 20 12 C20.66 12.66 21.32 13.32 22 14 C17.41760015 13.41741786 13.86443458 11.48202911 9.9375 9.1875 C9.02000977 8.67219727 9.02000977 8.67219727 8.08398438 8.14648438 C4.57125366 6.12239197 1.71506429 4.01297659 -1 1 C-0.67 0.67 -0.34 0.34 0 0 Z " fill="#2D7BE7" transform="translate(385,568)"/>
<path d="M0 0 C3.98189814 3.7197447 6.95820659 7.5964288 9.875 12.1875 C10.29007813 12.81591797 10.70515625 13.44433594 11.1328125 14.09179688 C12.15612792 15.6864634 13.08679627 17.33982087 14 19 C13.67 19.66 13.34 20.32 13 21 C12.4225 20.071875 11.845 19.14375 11.25 18.1875 C9.23627853 15.33472792 7.73398384 14.00492148 5 12 C3.33810135 9.34096216 3 8.19633438 3 5 C2.34 5 1.68 5 1 5 C0.67 3.35 0.34 1.7 0 0 Z " fill="#6C4FF4" transform="translate(727,202)"/>
<path d="M0 0 C0.66 0.33 1.32 0.66 2 1 C2 1.66 2 2.32 2 3 C2.66 3 3.32 3 4 3 C4 3.66 4 4.32 4 5 C4.66 5 5.32 5 6 5 C6.33 4.01 6.66 3.02 7 2 C7.33 2.99 7.66 3.98 8 5 C10.01508358 5.73323796 10.01508358 5.73323796 12 6 C12 7.65 12 9.3 12 11 C9 10 9 10 7.1875 8.625 C4.60719993 6.70820566 1.89554135 5.38196292 -1 4 C-1 3.34 -1 2.68 -1 2 C-1.66 1.67 -2.32 1.34 -3 1 C-2.01 0.67 -1.02 0.34 0 0 Z " fill="#6970F2" transform="translate(610,144)"/>
<path d="M0 0 C-1.89332534 0.81832722 -3.78977733 1.62942268 -5.6875 2.4375 C-6.74324219 2.88996094 -7.79898438 3.34242188 -8.88671875 3.80859375 C-15.84096386 6.46987952 -15.84096386 6.46987952 -19.3125 5.0625 C-19.869375 4.711875 -20.42625 4.36125 -21 4 C-18.25336296 3.13343002 -15.5035757 2.28148214 -12.75 1.4375 C-11.97269531 1.19064453 -11.19539062 0.94378906 -10.39453125 0.68945312 C-9.26337891 0.34624023 -9.26337891 0.34624023 -8.109375 -0.00390625 C-7.07248535 -0.32597046 -7.07248535 -0.32597046 -6.01464844 -0.65454102 C-3.71321296 -1.0491764 -2.20383318 -0.71084423 0 0 Z " fill="#3B73EC" transform="translate(587,565)"/>
<path d="M0 0 C1.76923828 0.01353516 1.76923828 0.01353516 3.57421875 0.02734375 C4.47785156 0.03894531 5.38148438 0.05054688 6.3125 0.0625 C6.6425 0.7225 6.9725 1.3825 7.3125 2.0625 C4.6014923 3.41800385 2.39910831 3.23167207 -0.625 3.25 C-1.68589844 3.26417969 -2.74679687 3.27835938 -3.83984375 3.29296875 C-6.6875 3.0625 -6.6875 3.0625 -9.6875 1.0625 C-6.26517028 -0.07827657 -3.60076783 -0.03565117 0 0 Z " fill="#2A3037" transform="translate(694.6875,840.9375)"/>
<path d="M0 0 C1.93166016 0.01740234 1.93166016 0.01740234 3.90234375 0.03515625 C5.19269531 0.04417969 6.48304688 0.05320312 7.8125 0.0625 C8.81152344 0.07410156 9.81054688 0.08570313 10.83984375 0.09765625 C10.50984375 1.08765625 10.17984375 2.07765625 9.83984375 3.09765625 C7.88180868 3.15154712 5.92335466 3.19039842 3.96484375 3.22265625 C2.87429688 3.24585938 1.78375 3.2690625 0.66015625 3.29296875 C-2.16015625 3.09765625 -2.16015625 3.09765625 -4.16015625 1.09765625 C-3.16015625 0.09765625 -3.16015625 0.09765625 0 0 Z " fill="#2E343C" transform="translate(303.16015625,737.90234375)"/>
<path d="M0 0 C-0.99 1.485 -0.99 1.485 -2 3 C-5.01171875 3.328125 -5.01171875 3.328125 -8.6875 3.25 C-9.94175781 3.22421875 -11.19601562 3.1984375 -12.48828125 3.171875 C-16.07506728 2.99632596 -19.47682679 2.67108061 -23 2 C-23 1.67 -23 1.34 -23 1 C-20.29272088 0.63521072 -17.58476283 0.28290562 -14.875 -0.0625 C-14.11445312 -0.16626953 -13.35390625 -0.27003906 -12.5703125 -0.37695312 C-8.13800459 -0.93099161 -4.41342179 -1.00817782 0 0 Z " fill="#4D83ED" transform="translate(544,603)"/>
<path d="M0 0 C1 3 1 3 0.19555664 5.0847168 C-0.22862549 5.86500244 -0.65280762 6.64528809 -1.08984375 7.44921875 C-1.54423828 8.29677734 -1.99863281 9.14433594 -2.46679688 10.01757812 C-2.95212891 10.89865234 -3.43746094 11.77972656 -3.9375 12.6875 C-4.65969727 14.02651367 -4.65969727 14.02651367 -5.39648438 15.39257812 C-6.58876897 17.60007534 -7.79017894 19.80207933 -9 22 C-9.33 21.34 -9.66 20.68 -10 20 C-9.07421875 17.3203125 -9.07421875 17.3203125 -7.6875 14.125 C-7.23761719 13.07570313 -6.78773438 12.02640625 -6.32421875 10.9453125 C-5.26835603 8.59687447 -4.17764787 6.28894938 -3 4 C-2.34 4 -1.68 4 -1 4 C-0.67 2.68 -0.34 1.36 0 0 Z " fill="#5D52F3" transform="translate(753,452)"/>
<path d="M0 0 C0.66 0.33 1.32 0.66 2 1 C4.54615009 1.23172827 7.07396225 1.41894529 9.625 1.5625 C10.33140625 1.60568359 11.0378125 1.64886719 11.765625 1.69335938 C13.51018537 1.79944751 15.25506697 1.90022889 17 2 C17 2.66 17 3.32 17 4 C10.73 4 4.46 4 -2 4 C-1.34 2.68 -0.68 1.36 0 0 Z " fill="#363A3E" transform="translate(259,839)"/>
<path d="M0 0 C6.6 0 13.2 0 20 0 C20 0.66 20 1.32 20 2 C17.04213336 2.24798276 14.08538702 2.47411854 11.125 2.6875 C10.28324219 2.76033203 9.44148438 2.83316406 8.57421875 2.90820312 C7.76855469 2.96298828 6.96289062 3.01777344 6.1328125 3.07421875 C5.38918457 3.13182373 4.64555664 3.18942871 3.87939453 3.2487793 C3.25919434 3.16668213 2.63899414 3.08458496 2 3 C1.34 2.01 0.68 1.02 0 0 Z " fill="#131822" transform="translate(258,763)"/>
<path d="M0 0 C0 0.66 0 1.32 0 2 C-5.4185766 2.22577402 -9.77487721 1.46670113 -15 0 C-10.25026758 -4.74973242 -5.62899381 -1.87633127 0 0 Z " fill="#387AEA" transform="translate(478,601)"/>
<path d="M0 0 C2 2 2 2 2 6 C2.66 6 3.32 6 4 6 C5.24200752 11.3177215 6.30834212 16.58201328 7 22 C4.18991614 19.18991614 3.50511666 15.83730183 2.375 12.125 C2.14554687 11.40441406 1.91609375 10.68382812 1.6796875 9.94140625 C0.59826109 6.4460816 0 3.68971872 0 0 Z " fill="#2487EB" transform="translate(254,410)"/>
<path d="M0 0 C3.72915017 -0.02912348 7.4582709 -0.04684037 11.1875 -0.0625 C12.77014648 -0.07506836 12.77014648 -0.07506836 14.38476562 -0.08789062 C15.91713867 -0.09272461 15.91713867 -0.09272461 17.48046875 -0.09765625 C18.41785889 -0.10289307 19.35524902 -0.10812988 20.32104492 -0.11352539 C22.98049477 -0.00082657 25.40920573 0.40623351 28 1 C27.67 1.66 27.34 2.32 27 3 C24.36 3 21.72 3 19 3 C19 2.34 19 1.68 19 1 C12.73 1 6.46 1 0 1 C0 0.67 0 0.34 0 0 Z " fill="#3764EC" transform="translate(516,95)"/>
<path d="M0 0 C3.53039233 1.40177343 4.74611782 2.72021609 6.25 6.1875 C7.98057898 10.36522582 8.3812089 13.52079545 8 18 C5.38333372 15.38333372 4.28365993 12.35651983 2.875 9 C2.59785156 8.35804688 2.32070313 7.71609375 2.03515625 7.0546875 C0 2.26254618 0 2.26254618 0 0 Z " fill="#4585ED" transform="translate(646,284)"/>
<path d="M0 0 C2.41696872 -0.05411124 4.83271787 -0.09372278 7.25 -0.125 C7.93191406 -0.14175781 8.61382813 -0.15851563 9.31640625 -0.17578125 C13.0608235 -0.21213482 15.82352727 -0.07944349 19 2 C18 3 18 3 14.5625 3.1875 C9.57590257 3.14224957 4.84374568 2.11167934 0 1 C0 0.67 0 0.34 0 0 Z " fill="#4770F0" transform="translate(536,127)"/>
<path d="M0 0 C1.27351308 2.54702616 0.80191925 3.4282945 0.0625 6.125 C-0.13214844 6.84945312 -0.32679688 7.57390625 -0.52734375 8.3203125 C-0.68332031 8.87460938 -0.83929687 9.42890625 -1 10 C-0.01 10.33 0.98 10.66 2 11 C2.33 15.29 2.66 19.58 3 24 C-1.19897075 17.70154387 -2.6563001 10.48182112 -2 3 C-1.34 2.01 -0.68 1.02 0 0 Z " fill="#524EF1" transform="translate(635,102)"/>
<path d="M0 0 C4.95 0 9.9 0 15 0 C14.67 0.99 14.34 1.98 14 3 C9.38 3 4.76 3 0 3 C0 2.01 0 1.02 0 0 Z " fill="#242D38" transform="translate(377,738)"/>
<path d="M0 0 C0.33 0.66 0.66 1.32 1 2 C-0.221652 3.90068438 -1.45268794 5.79533883 -2.6875 7.6875 C-3.71423828 9.27111328 -3.71423828 9.27111328 -4.76171875 10.88671875 C-6.98753814 13.98266649 -9.23970303 16.39439568 -12 19 C-11.67 17.02 -11.34 15.04 -11 13 C-10.01 12.67 -9.02 12.34 -8 12 C-5.86652947 9.22560328 -5.86652947 9.22560328 -3.8125 5.9375 C-2.73935547 4.28041016 -2.73935547 4.28041016 -1.64453125 2.58984375 C-1.10183594 1.73519531 -0.55914063 0.88054687 0 0 Z " fill="#5758F2" transform="translate(741,476)"/>
<path d="M0 0 C2.08133467 3.122002 2.2737822 3.93266989 2.25 7.5 C2.25515625 8.2734375 2.2603125 9.046875 2.265625 9.84375 C2 12 2 12 0 15 C-0.98783094 12.03650719 -1.13410525 10.0287337 -1.125 6.9375 C-1.12757813 6.05964844 -1.13015625 5.18179688 -1.1328125 4.27734375 C-1 2 -1 2 0 0 Z " fill="#262C33" transform="translate(651,691)"/>
<path d="M0 0 C0.33 0 0.66 0 1 0 C2.77401632 4.62974991 3.39641621 8.96044843 3.625 13.875 C3.66367188 14.56335938 3.70234375 15.25171875 3.7421875 15.9609375 C3.83548166 17.64023246 3.91878238 19.32007767 4 21 C-0.11196775 14.83204838 -0.26793858 7.23434167 0 0 Z " fill="#2085EB" transform="translate(248,380)"/>
<path d="M0 0 C0.66 0.33 1.32 0.66 2 1 C1.88557539 2.60495567 1.75805306 4.20898119 1.625 5.8125 C1.55539062 6.70582031 1.48578125 7.59914063 1.4140625 8.51953125 C1 11 1 11 -1 14 C-1.99 13.67 -2.98 13.34 -4 13 C-3.34 12.67 -2.68 12.34 -2 12 C-1.56947737 9.44648887 -1.56947737 9.44648887 -1.4375 6.5 C-1.09628611 1.09628611 -1.09628611 1.09628611 0 0 Z " fill="#7A5EF4" transform="translate(773,380)"/>
<path d="M0 0 C0.33 0 0.66 0 1 0 C1 5.28 1 10.56 1 16 C0.01 16.33 -0.98 16.66 -2 17 C-1.85848172 14.9163691 -1.71162064 12.83310062 -1.5625 10.75 C-1.48128906 9.58984375 -1.40007813 8.4296875 -1.31640625 7.234375 C-1.06752213 4.69022624 -0.71885058 2.44046752 0 0 Z " fill="#6059F4" transform="translate(743,378)"/>
<path d="M0 0 C3.12572333 2.69159509 4.8036782 5.9634132 6.75 9.5625 C7.38421875 10.71878906 8.0184375 11.87507812 8.671875 13.06640625 C9.11015625 14.03449219 9.5484375 15.00257813 10 16 C9.67 16.66 9.34 17.32 9 18 C7.6559907 16.00715862 6.32458708 14.00580329 5 12 C4.195625 10.7934375 4.195625 10.7934375 3.375 9.5625 C1.7171394 6.47285071 0.86374848 3.38855175 0 0 Z " fill="#6C4CF4" transform="translate(741,223)"/>
<path d="M0 0 C5.852795 0.51482919 11.3297637 1.45357192 17 3 C13.66827126 5.06397117 11.7383836 5.12083271 7.9375 4.3125 C7.08027344 4.14363281 6.22304688 3.97476563 5.33984375 3.80078125 C2.82629722 2.94055247 1.69054104 2.01202098 0 0 Z " fill="#2F77E9" transform="translate(457,568)"/>
<path d="M0 0 C1.26493447 3.79480342 0.89988258 6.12358274 0 10 C-2.0625 11.9375 -2.0625 11.9375 -4 13 C-5.39460991 10.21078018 -4.58060045 8.87922897 -3.6875 5.9375 C-3.42324219 5.03902344 -3.15898438 4.14054687 -2.88671875 3.21484375 C-2 1 -2 1 0 0 Z " fill="#6560F3" transform="translate(738,409)"/>
<path d="M0 0 C0.33 0.66 0.66 1.32 1 2 C-1.97430912 3.35195869 -4.35197299 4.0424795 -7.625 4.4375 C-10.99878278 4.99979713 -12.019638 5.3206867 -14 8 C-13.6362558 5.45379062 -13.42033309 4.31819607 -11.328125 2.734375 C-4.3956044 -0.54945055 -4.3956044 -0.54945055 0 0 Z " fill="#4F5FF0" transform="translate(610,158)"/>
<path d="M0 0 C0.86625 0.3403125 0.86625 0.3403125 1.75 0.6875 C1.42 1.3475 1.09 2.0075 0.75 2.6875 C-0.1471875 2.8421875 -0.1471875 2.8421875 -1.0625 3 C-4.21707605 3.99143819 -5.36673632 6.06438273 -7.25 8.6875 C-6.76566469 3.23872777 -6.76566469 3.23872777 -4.4375 0.75 C-2.25 -0.3125 -2.25 -0.3125 0 0 Z M-8.25 8.6875 C-7.92 8.6875 -7.59 8.6875 -7.25 8.6875 C-7.25 10.3375 -7.25 11.9875 -7.25 13.6875 C-7.58 13.6875 -7.91 13.6875 -8.25 13.6875 C-8.25 12.0375 -8.25 10.3875 -8.25 8.6875 Z " fill="#6966F3" transform="translate(642.25,98.3125)"/>
<path d="M0 0 C5.28 0 10.56 0 16 0 C15.67 3.96 15.34 7.92 15 12 C14.67 12 14.34 12 14 12 C13.67 8.7 13.34 5.4 13 2 C8.71 1.67 4.42 1.34 0 1 C0 0.67 0 0.34 0 0 Z " fill="#0C131F" transform="translate(524,763)"/>
<path d="M0 0 C0.99 0.33 1.98 0.66 3 1 C-0.05354238 5.51924273 -2.82722169 7.30546917 -8 9 C-11.4375 9.1875 -11.4375 9.1875 -14 9 C-14 8.67 -14 8.34 -14 8 C-13.30132812 7.79503906 -12.60265625 7.59007812 -11.8828125 7.37890625 C-10.97273438 7.10949219 -10.06265625 6.84007812 -9.125 6.5625 C-8.22007812 6.29566406 -7.31515625 6.02882813 -6.3828125 5.75390625 C-4.01724619 5.07386174 -4.01724619 5.07386174 -2 4 C-2 3.01 -2 2.02 -2 1 C-1.34 0.67 -0.68 0.34 0 0 Z " fill="#3A8FEF" transform="translate(326,504)"/>
<path d="M0 0 C2.97 0.33 5.94 0.66 9 1 C9 1.99 9 2.98 9 4 C10.32 4.66 11.64 5.32 13 6 C11.58194169 5.71517632 10.16559621 5.42181856 8.75 5.125 C7.96109375 4.96257812 7.1721875 4.80015625 6.359375 4.6328125 C4.03168856 4.00849925 2.10968048 3.15161458 0 2 C0 1.34 0 0.68 0 0 Z " fill="#5167F1" transform="translate(589,138)"/>
<path d="M0 0 C0.33 0.66 0.66 1.32 1 2 C-0.051875 1.896875 -1.10375 1.79375 -2.1875 1.6875 C-6.15521993 1.63931296 -6.15521993 1.63931296 -8.9375 4.5 C-9.618125 5.325 -10.29875 6.15 -11 7 C-11 6.34 -11 5.68 -11 5 C-11.66 4.67 -12.32 4.34 -13 4 C-9.41420832 -0.98892755 -5.61771415 -0.43213186 0 0 Z " fill="#2678E5" transform="translate(409,198)"/>
<path d="M0 0 C4.85963179 0.60745397 8.7405518 2.72758967 13 5 C11 6 9 7 7 8 C6.67 6.35 6.34 4.7 6 3 C4.35 3 2.7 3 1 3 C0.67 2.01 0.34 1.02 0 0 Z " fill="#2F7BE9" transform="translate(411,551)"/>
<path d="M0 0 C0.99 1.32 1.98 2.64 3 4 C0.57202689 6.42797311 -2.1299269 8.1282132 -5 10 C-3.66511872 6.40608886 -2.03977277 3.24509304 0 0 Z " fill="#5862F1" transform="translate(717,457)"/>
<path d="M0 0 C0.66 0 1.32 0 2 0 C1.01 4.95 0.02 9.9 -1 15 C-1.66 14.67 -2.32 14.34 -3 14 C-3 12.35 -3 10.7 -3 9 C-2.34 9 -1.68 9 -1 9 C-0.67 6.03 -0.34 3.06 0 0 Z " fill="#288AEC" transform="translate(281,301)"/>
<path d="M0 0 C-0.33 1.32 -0.66 2.64 -1 4 C-5.62 3.34 -10.24 2.68 -15 2 C-15 1.67 -15 1.34 -15 1 C-9.9752761 0.37470103 -5.07471573 -0.13012092 0 0 Z " fill="#5089EB" transform="translate(494,573)"/>
<path d="M0 0 C-0.11429397 1.77155654 -0.24183037 3.54226229 -0.375 5.3125 C-0.47941406 6.79169922 -0.47941406 6.79169922 -0.5859375 8.30078125 C-1 11 -1 11 -3 14 C-3.33 9.71 -3.66 5.42 -4 1 C-2 0 -2 0 0 0 Z " fill="#776EF3" transform="translate(747,372)"/>
<path d="M0 0 C0.99 0 1.98 0 3 0 C3.33 3.3 3.66 6.6 4 10 C3.01 10 2.02 10 1 10 C0.67 6.7 0.34 3.4 0 0 Z " fill="#8161F6" transform="translate(770,304)"/>
<path d="M0 0 C0.66 0.66 1.32 1.32 2 2 C1.79296875 4.27734375 1.79296875 4.27734375 1.1875 6.9375 C0.99542969 7.81277344 0.80335938 8.68804687 0.60546875 9.58984375 C0 12 0 12 -1 15 C-1.33 15 -1.66 15 -2 15 C-2.22174933 13.54364629 -2.42698698 12.08477044 -2.625 10.625 C-2.74101562 9.81289063 -2.85703125 9.00078125 -2.9765625 8.1640625 C-2.98429688 7.44992187 -2.99203125 6.73578125 -3 6 C-2.34 5.34 -1.68 4.68 -1 4 C-0.3574765 1.93125966 -0.3574765 1.93125966 0 0 Z " fill="#4095EA" transform="translate(252,300)"/>
<path d="M0 0 C0.66 0 1.32 0 2 0 C4.42857143 6.28571429 4.42857143 6.28571429 3 10 C2.34 10 1.68 10 1 10 C0.67 6.7 0.34 3.4 0 0 Z " fill="#6655F3" transform="translate(740,301)"/>
<path d="M0 0 C0.33 0.99 0.66 1.98 1 3 C3.31 3 5.62 3 8 3 C8 3.66 8 4.32 8 5 C6.58249437 4.88490339 5.16598831 4.75746342 3.75 4.625 C2.96109375 4.55539063 2.1721875 4.48578125 1.359375 4.4140625 C-1.085877 3.98492887 -2.84836903 3.21399362 -5 2 C-3.35 1.34 -1.7 0.68 0 0 Z " fill="#5370F0" transform="translate(567,130)"/>
<path d="M0 0 C6.93 0.495 6.93 0.495 14 1 C14 1.33 14 1.66 14 2 C9.05 2.33 4.1 2.66 -1 3 C-0.67 2.01 -0.34 1.02 0 0 Z " fill="#478BE8" transform="translate(394,519)"/>
<path d="M0 0 C0.66 0 1.32 0 2 0 C1.82374165 2.37948772 1.30280227 3.70225849 -0.40234375 5.37890625 C-1.90649092 6.62115486 -3.45129851 7.81376056 -5 9 C-5 7.68 -5 6.36 -5 5 C-3.68 4.67 -2.36 4.34 -1 4 C-0.67 2.68 -0.34 1.36 0 0 Z " fill="#357EED" transform="translate(650,467)"/>
<path d="M0 0 C2 3 2 3 1.7578125 5.04296875 C1.171875 7.02864583 0.5859375 9.01432292 0 11 C-0.66 10.67 -1.32 10.34 -2 10 C-1.85950482 8.52031676 -1.71245174 7.04125484 -1.5625 5.5625 C-1.48128906 4.73878906 -1.40007812 3.91507812 -1.31640625 3.06640625 C-1 1 -1 1 0 0 Z " fill="#337BE6" transform="translate(473,303)"/>
<path d="M0 0 C0.66 0.33 1.32 0.66 2 1 C0.41641358 4.16717283 -0.45263699 5.73268318 -3.6875 7.3125 C-4.450625 7.539375 -5.21375 7.76625 -6 8 C-4.55746343 4.63408134 -2.66735273 2.48952921 0 0 Z " fill="#0C121A" transform="translate(582,667)"/>
<path d="M0 0 C0.66 0.33 1.32 0.66 2 1 C0.68 2.65 -0.64 4.3 -2 6 C-4.97 5.505 -4.97 5.505 -8 5 C-5.36095629 3.58622659 -2.92879371 2.62759865 0 2 C0 1.34 0 0.68 0 0 Z " fill="#377DED" transform="translate(695,376)"/>
<path d="M0 0 C0.33 0.99 0.66 1.98 1 3 C0.34 2.690625 -0.32 2.38125 -1 2.0625 C-4.70476015 0.75039745 -8.09263991 0.39735865 -12 0 C-12 -0.33 -12 -0.66 -12 -1 C-10.56465159 -1.2226746 -9.12654475 -1.42761906 -7.6875 -1.625 C-6.48673828 -1.79902344 -6.48673828 -1.79902344 -5.26171875 -1.9765625 C-3 -2 -3 -2 0 0 Z " fill="#488BEA" transform="translate(421,520)"/>
<path d="M0 0 C-1.875 6.75 -1.875 6.75 -3 9 C-3.66 9 -4.32 9 -5 9 C-5.36666667 3.5 -5.36666667 3.5 -3.625 1.125 C-2 0 -2 0 0 0 Z " fill="#4095EB" transform="translate(271,247)"/>
<path d="M0 0 C0.33 0.66 0.66 1.32 1 2 C0.34 2.66 -0.32 3.32 -1 4 C-3.6015625 3.9765625 -3.6015625 3.9765625 -6.625 3.625 C-7.62789062 3.51414063 -8.63078125 3.40328125 -9.6640625 3.2890625 C-10.82035156 3.14597656 -10.82035156 3.14597656 -12 3 C-12 2.67 -12 2.34 -12 2 C-8.04 1.34 -4.08 0.68 0 0 Z " fill="#6D72F1" transform="translate(623,175)"/>
<path d="M0 0 C0.66 0.33 1.32 0.66 2 1 C2 1.66 2 2.32 2 3 C2.66 3 3.32 3 4 3 C4 3.66 4 4.32 4 5 C4.66 5.33 5.32 5.66 6 6 C1.25 5.125 1.25 5.125 -1 4 C-1 3.34 -1 2.68 -1 2 C-1.66 1.67 -2.32 1.34 -3 1 C-2.01 0.67 -1.02 0.34 0 0 Z " fill="#5965F1" transform="translate(610,144)"/>
<path d="M0 0 C1.258125 -0.04125 2.51625 -0.0825 3.8125 -0.125 C4.52019531 -0.14820312 5.22789062 -0.17140625 5.95703125 -0.1953125 C8 0 8 0 11 2 C9.35 2.66 7.7 3.32 6 4 C5.67 3.01 5.34 2.02 5 1 C3.35 1 1.7 1 0 1 C0 0.67 0 0.34 0 0 Z " fill="#3E66EF" transform="translate(545,97)"/>
<path d="M0 0 C0.33 0.66 0.66 1.32 1 2 C0.00390625 4.1640625 0.00390625 4.1640625 -1.4375 6.625 C-1.91058594 7.44226563 -2.38367188 8.25953125 -2.87109375 9.1015625 C-3.24363281 9.72804688 -3.61617188 10.35453125 -4 11 C-4.33 11 -4.66 11 -5 11 C-5 9.35 -5 7.7 -5 6 C-4.01 5.67 -3.02 5.34 -2 5 C-0.78130071 2.49552484 -0.78130071 2.49552484 0 0 Z " fill="#2B7CEA" transform="translate(423,296)"/>
<path d="M0 0 C0.99 0.33 1.98 0.66 3 1 C3.33 1.99 3.66 2.98 4 4 C1.69 4 -0.62 4 -3 4 C-2.67 3.01 -2.34 2.02 -2 1 C-1.34 0.67 -0.68 0.34 0 0 Z " fill="#517CED" transform="translate(604,586)"/>
<path d="M0 0 C0 3 0 3 -2.5 5.6875 C-3.325 6.450625 -4.15 7.21375 -5 8 C-4.1875 4.5625 -4.1875 4.5625 -3 1 C-2.01 0.67 -1.02 0.34 0 0 Z " fill="#515FF0" transform="translate(717,509)"/>
<path d="M0 0 C0.99 0 1.98 0 3 0 C1.73058503 3.91402949 0.48832306 5.79072873 -3 8 C-1.125 2.25 -1.125 2.25 0 0 Z " fill="#5760F3" transform="translate(722,500)"/>
<path d="M0 0 C-0.33 0.66 -0.66 1.32 -1 2 C-2.32148827 2.37756808 -3.65835921 2.7018576 -5 3 C-6.6744239 3.6469365 -8.34302621 4.30959426 -10 5 C-9.1875 3.0625 -9.1875 3.0625 -8 1 C-5.07175348 0.02391783 -3.04386724 -0.08226668 0 0 Z " fill="#2A7CE8" transform="translate(438,478)"/>
<path d="M0 0 C2 2 2 2 2.3125 4.5 C2.209375 5.325 2.10625 6.15 2 7 C1.01 7.66 0.02 8.32 -1 9 C-1.09765625 2.84765625 -1.09765625 2.84765625 -1 1 C-0.67 0.67 -0.34 0.34 0 0 Z " fill="#7D62F5" transform="translate(774,369)"/>
<path d="M0 0 C0.33 0 0.66 0 1 0 C1.33 2.64 1.66 5.28 2 8 C1.01 8.33 0.02 8.66 -1 9 C-0.67 6.03 -0.34 3.06 0 0 Z " fill="#8464F6" transform="translate(770,294)"/>
<path d="M0 0 C7.75 0.75 7.75 0.75 10 3 C8.72125 3.061875 7.4425 3.12375 6.125 3.1875 C5.40570312 3.22230469 4.68640625 3.25710938 3.9453125 3.29296875 C3.30335938 3.19628906 2.66140625 3.09960938 2 3 C1.34 2.01 0.68 1.02 0 0 Z " fill="#2C7AE8" transform="translate(517,279)"/>
<path d="M0 0 C0.99 0 1.98 0 3 0 C3.66 2.31 4.32 4.62 5 7 C4.01 6.67 3.02 6.34 2 6 C0.8125 2.9375 0.8125 2.9375 0 0 Z " fill="#307BE7" transform="translate(478,523)"/>
<path d="M0 0 C0.99 0 1.98 0 3 0 C1.125 4.75 1.125 4.75 0 7 C-0.99 6.67 -1.98 6.34 -3 6 C-2 4 -1 2 0 0 Z " fill="#4988E9" transform="translate(589,414)"/>
<path d="M0 0 C4.92307692 4.30769231 4.92307692 4.30769231 5.3125 7.8125 C5.209375 8.534375 5.10625 9.25625 5 10 C2.35534962 6.8745041 1.15585285 3.91211733 0 0 Z " fill="#5E4AF4" transform="translate(721,250)"/>
<path d="M0 0 C0.66 0.33 1.32 0.66 2 1 C1.01 2.485 1.01 2.485 0 4 C-0.33 4.66 -0.66 5.32 -1 6 C-3.0625 6.625 -3.0625 6.625 -5 7 C-3.70700306 4.11562221 -2.34058637 2.12780579 0 0 Z " fill="#2D7FE7" transform="translate(376,221)"/>
<path d="M0 0 C3 1 3 1 4.75 3.9375 C5.1625 4.948125 5.575 5.95875 6 7 C5.67 7.66 5.34 8.32 5 9 C4.16094435 7.87926138 3.32892169 6.75325453 2.5 5.625 C2.0359375 4.99851563 1.571875 4.37203125 1.09375 3.7265625 C0 2 0 2 0 0 Z " fill="#604CF3" transform="translate(704,222)"/>
</svg>
