<?xml version="1.0" encoding="UTF-8"?>
<svg version="1.1" xmlns="http://www.w3.org/2000/svg" width="732" height="706">
<path d="M0 0 C241.56 0 483.12 0 732 0 C732 232.98 732 465.96 732 706 C490.44 706 248.88 706 0 706 C0 473.02 0 240.04 0 0 Z " fill="#FEFEFE" transform="translate(0,0)"/>
<path d="M0 0 C0.65243683 -0.0065712 1.30487366 -0.0131424 1.9770813 -0.01991272 C4.13478722 -0.03961086 6.29242359 -0.0513015 8.45019531 -0.0612793 C9.18892128 -0.06535482 9.92764725 -0.06943035 10.68875885 -0.07362938 C14.60012023 -0.09447697 18.51144667 -0.10878337 22.42285156 -0.11816406 C26.45233095 -0.12921568 30.48125617 -0.16360423 34.51054001 -0.20333576 C37.61790964 -0.22954852 40.72514826 -0.23786007 43.83261871 -0.24144554 C45.31731146 -0.24630084 46.80199876 -0.25788468 48.28658295 -0.27648354 C62.87009773 -0.44780484 62.87009773 -0.44780484 68.52832031 4.17700195 C73.41642168 9.78123646 74.14242654 18.65883214 75.52832031 25.67700195 C75.92482788 27.54026123 75.92482788 27.54026123 76.3293457 29.44116211 C77.45539054 34.73284813 78.54480469 39.99465685 79.27441406 45.35668945 C79.86887475 49.27681048 80.60898483 52.65197849 82.52832031 56.17700195 C86.53577014 58.88981987 90.6623226 60.1136891 95.25146484 61.41967773 C100.37119684 63.12259524 105.13178465 65.81589409 109.91723633 68.28417969 C114.62215073 70.60740295 118.18100529 72.07621412 123.52832031 71.17700195 C126.64643771 69.71227159 129.43206784 67.85909708 132.27832031 65.92700195 C133.09743896 65.39429688 133.91655762 64.8615918 134.76049805 64.31274414 C138.23111934 62.05348185 141.6745358 59.75645411 145.10107422 57.4309082 C146.78025366 56.29230642 148.46525643 55.16224075 150.15625 54.04125977 C151.73693854 52.99317386 153.30502573 51.92573499 154.85742188 50.83618164 C159.57162033 47.72468545 163.43234029 46.25846325 169.13964844 46.64819336 C173.62596017 47.64138134 176.25169517 50.05211733 179.52832031 53.17700195 C180.02019836 53.64505249 180.51207642 54.11310303 181.01885986 54.59533691 C184.63785689 58.06037698 188.18525516 61.59264173 191.71020508 65.15307617 C193.58461883 67.04574009 195.46690456 68.93028475 197.35058594 70.8137207 C202.80852685 76.2881944 208.23511442 81.74895656 213.22460938 87.66113281 C214.48446814 89.12601354 215.84959931 90.49828095 217.21582031 91.86450195 C223.39799145 98.04667309 223.39799145 98.04667309 223.94628906 102.80200195 C223.82382138 108.05735884 221.37387475 111.59291665 218.52832031 115.86450195 C218.02864746 116.64615723 217.52897461 117.4278125 217.01416016 118.2331543 C216.0043923 119.81263427 214.98802573 121.38791665 213.96484375 122.95874023 C211.96987419 126.03934754 210.06253528 129.16752451 208.15332031 132.30200195 C206.45353161 135.08252051 204.75499766 137.84251465 202.92675781 140.5402832 C202.46527344 141.22477539 202.00378906 141.90926758 201.52832031 142.61450195 C201.13644531 143.17008789 200.74457031 143.72567383 200.34082031 144.2980957 C198.693961 148.10645787 199.24266503 151.36921484 200.59472656 155.19262695 C201.0884375 156.2599707 201.58214844 157.32731445 202.09082031 158.42700195 C203.97560971 162.57069151 205.7617057 166.71577291 207.34472656 170.9855957 C207.64628662 171.79544922 207.94784668 172.60530273 208.25854492 173.43969727 C208.84562016 175.03064715 209.42358637 176.62499426 209.99145508 178.22290039 C211.98412003 183.7230431 211.98412003 183.7230431 216.52832031 187.17700195 C219.28533174 187.82635261 219.28533174 187.82635261 222.34082031 188.11450195 C229.28194953 189.0529116 235.8484907 190.74930892 242.58154297 192.64916992 C244.58037187 193.19111475 246.58637919 193.67654167 248.60253906 194.1496582 C260.99423681 197.10949686 260.99423681 197.10949686 265.52832031 202.17700195 C266.97334513 205.06705158 266.68766718 207.59722155 266.72119141 210.82641602 C266.7293689 211.50957382 266.73754639 212.19273163 266.74597168 212.89659119 C266.77082311 215.16192753 266.78734259 217.42720114 266.80175781 219.69262695 C266.80708149 220.46661583 266.81240517 221.24060471 266.81789017 222.03804779 C266.84462309 226.13627634 266.86399583 230.23447445 266.87841797 234.33276367 C266.89504939 238.56089705 266.93981303 242.78824845 266.99078941 247.01608658 C267.02449065 250.27096423 267.03599855 253.52565711 267.04164505 256.78069305 C267.04835169 258.33880323 267.0635587 259.8969015 267.08753586 261.45484161 C267.11924988 263.64053976 267.11921624 265.8241408 267.11181641 268.01000977 C267.11990326 269.25196106 267.12799011 270.49391235 267.13632202 271.77349854 C266.32100464 276.33752436 264.80216483 277.92842638 261.52832031 281.17700195 C258.24316406 282.71606445 258.24316406 282.71606445 254.46582031 283.80200195 C253.78116699 284.00164551 253.09651367 284.20128906 252.39111328 284.40698242 C245.86380979 286.23882446 239.22380349 287.52321053 232.56933594 288.79638672 C221.42593923 290.26802933 221.42593923 290.26802933 212.52832031 296.17700195 C211.47936929 298.46405911 210.53997903 300.7042504 209.65332031 303.05200195 C209.26805176 304.0426062 209.26805176 304.0426062 208.875 305.05322266 C208.08440179 307.09137705 207.30504838 309.13352614 206.52832031 311.17700195 C205.61251822 313.57316686 204.69535781 315.96880933 203.77832031 318.36450195 C203.39160156 319.38930664 203.00488281 320.41411133 202.60644531 321.4699707 C201.52832031 324.17700195 201.52832031 324.17700195 200.38769531 326.1652832 C199.1267737 329.11698608 199.11407935 330.97430564 199.52832031 334.17700195 C200.84737125 337.07937097 202.54229443 339.69572103 204.27832031 342.36450195 C204.76478027 343.13971191 205.25124023 343.91492188 205.75244141 344.71362305 C208.41502385 348.94272963 211.14779813 353.12396631 213.89550781 357.2980957 C214.43981445 358.1351001 214.98412109 358.97210449 215.54492188 359.83447266 C216.59297455 361.44234581 217.65425639 363.04169688 218.73046875 364.63085938 C221.95860172 369.58033981 223.56494635 373.2069577 223.52832031 379.17700195 C221.68480614 383.60646662 219.4162953 386.66709306 216.04443359 390.04907227 C215.13984406 390.96311829 214.23525452 391.87716431 213.30325317 392.81890869 C212.3187609 393.79803153 211.3338779 394.77676164 210.34863281 395.75512695 C209.33312884 396.77265423 208.31807036 397.79062629 207.30343628 398.809021 C205.18157701 400.93528949 203.0544216 403.05607187 200.92333984 405.1730957 C198.1973094 407.88201333 195.48499948 410.60420766 192.77650642 413.33064651 C190.68523424 415.4327758 188.58684881 417.52768714 186.48626328 419.62050629 C185.48336679 420.62140723 184.48267827 421.62452578 183.48428726 422.62992096 C182.08713219 424.03472394 180.6792713 425.42885463 179.27099609 426.82250977 C178.47396271 427.61715637 177.67692932 428.41180298 176.85574341 429.23052979 C173.36714024 432.14812091 170.76742417 433.20629519 166.22363281 433.09887695 C161.63897307 431.9551352 158.33893032 429.97624906 154.40332031 427.42700195 C153.63705322 426.94908203 152.87078613 426.47116211 152.08129883 425.97875977 C147.67685215 423.22493044 143.33151725 420.38908137 139.00097656 417.52075195 C138.07881348 416.92230469 137.15665039 416.32385742 136.20654297 415.70727539 C134.41526084 414.54372388 132.63678349 413.36015251 130.87353516 412.15454102 C125.96009173 408.98105602 122.54673586 407.37209205 116.69213867 408.51977539 C113.03733717 409.62986516 109.7243835 411.16887991 106.34082031 412.92700195 C99.74422371 416.20876651 93.18525218 418.87174074 86.18847656 421.16918945 C83.42273862 422.00876497 83.42273862 422.00876497 81.52832031 424.17700195 C80.75610882 426.56949592 80.75610882 426.56949592 80.16113281 429.3918457 C79.9175 430.46200928 79.67386719 431.53217285 79.42285156 432.63476562 C79.16890625 433.78307861 78.91496094 434.9313916 78.65332031 436.11450195 C78.38648438 437.28279541 78.11964844 438.45108887 77.84472656 439.65478516 C76.62283778 445.04814024 75.45295451 450.4400466 74.45800781 455.88012695 C74.29800293 456.72969971 74.13799805 457.57927246 73.97314453 458.45458984 C73.68650618 460.00750265 73.41842418 461.56401273 73.17333984 463.12402344 C72.16161861 468.57218605 69.94887752 472.70868283 65.52832031 476.17700195 C61.23752389 477.874008 57.60693028 478.43959602 53.00732422 478.48339844 C51.09471298 478.50737953 51.09471298 478.50737953 49.14346313 478.53184509 C47.76394047 478.53822243 46.38441294 478.54361497 45.00488281 478.5480957 C43.57530632 478.55707421 42.14573072 478.56619626 40.71615601 478.57545471 C37.72546107 478.59190087 34.73487751 478.59963692 31.74414062 478.60253906 C27.92875474 478.60792157 24.1144282 478.64561306 20.2993412 478.69128323 C17.34803525 478.72115502 14.3969815 478.72826477 11.44553757 478.72926521 C10.03981036 478.73344674 8.63408096 478.74579743 7.22850418 478.76678276 C-6.35026986 478.95340475 -6.35026986 478.95340475 -12.01799011 474.63996887 C-16.15467099 470.47688799 -17.07883243 465.29890617 -18.22558594 459.72387695 C-18.37197006 459.02361389 -18.51835419 458.32335083 -18.66917419 457.60186768 C-19.13201765 455.37845041 -19.583253 453.1528631 -20.03417969 450.92700195 C-20.34006117 449.44898006 -20.64669566 447.97111379 -20.95410156 446.4934082 C-21.10309906 445.77326538 -21.25209656 445.05312256 -21.40560913 444.31115723 C-21.70022744 442.88779172 -21.99612841 441.46469106 -22.29336548 440.04187012 C-22.91491966 437.03673176 -23.49243166 434.04105661 -23.95556641 431.00708008 C-24.61355132 426.0182312 -24.61355132 426.0182312 -27.63574219 422.22387695 C-29.03953125 421.70567383 -29.03953125 421.70567383 -30.47167969 421.17700195 C-32.18484375 420.50411133 -32.18484375 420.50411133 -33.93261719 419.81762695 C-35.23607922 419.35065042 -36.5408344 418.88727192 -37.84667969 418.42700195 C-44.24723975 416.12125624 -50.37284418 413.47774605 -56.42236328 410.36157227 C-60.31331224 408.43406606 -63.15372097 407.50076195 -67.47167969 408.17700195 C-70.1627001 409.43286129 -72.57422056 411.02086299 -75.03417969 412.67700195 C-76.45308195 413.59944413 -77.87235811 414.52131143 -79.29199219 415.44262695 C-79.99485352 415.90475586 -80.69771484 416.36688477 -81.421875 416.84301758 C-84.38032518 418.7683358 -87.39183333 420.59529522 -90.40917969 422.42700195 C-94.1346032 424.69165521 -97.69712213 427.05174076 -101.22167969 429.61450195 C-105.31716255 432.35734827 -109.49706547 434.02780857 -114.47167969 433.17700195 C-120.76119509 429.64412349 -125.52317709 424.41331969 -130.57714844 419.3371582 C-131.54758557 418.36807051 -132.51831924 417.39927968 -133.48933411 416.43077087 C-135.51560435 414.40743739 -137.53824323 412.3805612 -139.55834961 410.35107422 C-142.1405388 407.75747609 -144.73162501 405.17298212 -147.32549572 402.59107304 C-149.32889358 400.59491992 -151.32748181 398.59400588 -153.32467079 396.59164238 C-154.7394833 395.17485841 -156.15830448 393.76208116 -157.57719421 392.34938049 C-158.43851456 391.48175583 -159.2998349 390.61413116 -160.18725586 389.72021484 C-161.32260017 388.58248375 -161.32260017 388.58248375 -162.48088074 387.42176819 C-164.9608251 384.625456 -167.22187477 381.87990593 -167.77441406 378.11328125 C-167.05063171 371.0149718 -163.78577479 365.89991994 -159.97167969 359.98950195 C-159.34181152 358.98153564 -158.71194336 357.97356934 -158.06298828 356.93505859 C-155.28520418 352.50727784 -152.45128212 348.12100214 -149.54199219 343.77856445 C-149.12240234 343.14716553 -148.7028125 342.5157666 -148.27050781 341.86523438 C-147.1794782 340.23799366 -146.06478028 338.62669062 -144.94824219 337.0168457 C-143.22891478 333.71009696 -143.02100085 331.85591292 -143.47167969 328.17700195 C-144.31546705 325.70180257 -144.31546705 325.70180257 -145.59667969 323.30200195 C-148.18009235 317.94435637 -150.29138331 312.5045778 -152.32763672 306.92358398 C-153.03108804 305.00363789 -153.74842585 303.08956819 -154.47167969 301.17700195 C-154.71120361 300.52376953 -154.95072754 299.87053711 -155.19750977 299.19750977 C-156.6813241 295.391651 -157.12457448 294.35371006 -160.90917969 292.42700195 C-162.42067486 291.97763852 -163.94291546 291.56355735 -165.47167969 291.17700195 C-166.2928125 290.94625977 -167.11394531 290.71551758 -167.95996094 290.4777832 C-172.74076032 289.19974773 -177.55264708 288.14815894 -182.40917969 287.2043457 C-183.72160645 286.94899048 -183.72160645 286.94899048 -185.06054688 286.68847656 C-186.794204 286.35526448 -188.52919679 286.02890549 -190.265625 285.71044922 C-203.51249052 283.18642674 -203.51249052 283.18642674 -207.90917969 278.67700195 C-210.47610334 274.56992412 -210.60543268 271.4304444 -210.6328125 266.67358398 C-210.6377774 266.01793457 -210.64274231 265.36228516 -210.64785767 264.68676758 C-210.66245322 262.51943916 -210.66927675 260.35218393 -210.67480469 258.18481445 C-210.68055811 256.67650348 -210.68631582 255.16819253 -210.69207764 253.65988159 C-210.70258008 250.49745341 -210.70842775 247.33505059 -210.71191406 244.17260742 C-210.71739849 240.12509746 -210.74142832 236.07792395 -210.76988602 232.03051949 C-210.78853116 228.91465278 -210.79371898 225.79886684 -210.79524994 222.68294907 C-210.79827256 221.19104039 -210.80628797 219.69913301 -210.81943512 218.20727921 C-210.83653627 216.11766366 -210.83460609 214.02886657 -210.828125 211.93920898 C-210.83177063 210.75134796 -210.83541626 209.56348694 -210.83917236 208.33963013 C-210.30000688 203.69959221 -208.49972717 201.16269747 -205.17822266 197.97802734 C-202.1530813 195.96499579 -199.70002874 195.17889592 -196.16699219 194.3605957 C-194.95027832 194.07369873 -193.73356445 193.78680176 -192.47998047 193.49121094 C-191.19849121 193.20189697 -189.91700195 192.91258301 -188.59667969 192.61450195 C-187.27711847 192.29979974 -185.95794437 191.98346994 -184.63916016 191.66552734 C-179.27884876 190.3893399 -173.9590395 189.13257586 -168.47167969 188.55200195 C-161.51370875 187.85575163 -161.51370875 187.85575163 -156.31152344 183.59106445 C-154.70330467 180.55842335 -153.44495919 177.64505787 -152.29589844 174.42358398 C-151.37536161 171.91446673 -150.33974247 169.47211739 -149.28417969 167.0168457 C-144.42735421 156.96483041 -144.42735421 156.96483041 -143.47167969 146.17700195 C-144.80768697 143.28280767 -144.80768697 143.28280767 -146.78417969 140.42700195 C-147.51689426 139.29219408 -148.24860673 138.15673875 -148.97949219 137.02075195 C-149.37813477 136.40973633 -149.77677734 135.7987207 -150.1875 135.16918945 C-152.57693029 131.46239265 -154.86154496 127.6911039 -157.15917969 123.92700195 C-157.61010986 123.19513672 -158.06104004 122.46327148 -158.52563477 121.70922852 C-159.41000285 120.26741207 -160.2871291 118.82112715 -161.15673828 117.37036133 C-162.06085263 115.86227308 -162.98145303 114.36398502 -163.91552734 112.87426758 C-164.37362793 112.11307617 -164.83172852 111.35188477 -165.30371094 110.56762695 C-165.71983643 109.89248047 -166.13596191 109.21733398 -166.56469727 108.52172852 C-167.86605646 105.15746103 -167.90436157 102.76042107 -167.47167969 99.17700195 C-165.9385919 96.77525994 -164.56930775 94.99206756 -162.65527344 92.94262695 C-162.12735703 92.3533844 -161.59944061 91.76414185 -161.05552673 91.15704346 C-153.96404217 83.34610383 -146.50108136 75.87084623 -139.03295898 68.42260742 C-136.50516638 65.8980255 -133.99115135 63.36022561 -131.47753906 60.8215332 C-129.86311392 59.20483928 -128.24790845 57.58892414 -126.63183594 55.97387695 C-125.51301781 54.8412442 -125.51301781 54.8412442 -124.37159729 53.68572998 C-123.66993942 52.9903009 -122.96828156 52.29487183 -122.24536133 51.57836914 C-121.63535782 50.96773621 -121.02535431 50.35710327 -120.39686584 49.72796631 C-117.19279353 47.14670842 -114.44579948 46.17700195 -110.34667969 46.17700195 C-100.33231791 48.04114722 -90.6899282 56.04924745 -82.36132812 61.57788086 C-80.01484175 63.13109768 -77.65083487 64.65473493 -75.28417969 66.17700195 C-74.16160767 66.93533325 -74.16160767 66.93533325 -73.01635742 67.70898438 C-68.6521053 70.48124515 -65.60099496 71.89656917 -60.4387207 70.81225586 C-56.93779405 69.68163514 -53.76408933 68.11144259 -50.53417969 66.36450195 C-49.13252787 65.63530581 -47.73018836 64.90742993 -46.32714844 64.1809082 C-45.66247559 63.83302246 -44.99780273 63.48513672 -44.31298828 63.12670898 C-39.68152394 60.73790014 -35.011947 58.65308458 -30.03417969 57.11450195 C-27.15959717 56.34892527 -27.15959717 56.34892527 -25.47167969 53.17700195 C-24.88586897 51.15917933 -24.88586897 51.15917933 -24.50683594 48.9309082 C-24.34812012 48.09946289 -24.1894043 47.26801758 -24.02587891 46.41137695 C-23.78248779 45.08879883 -23.78248779 45.08879883 -23.53417969 43.73950195 C-22.25920924 37.06346623 -20.86695654 30.47887569 -19.10449219 23.91137695 C-18.41292968 20.92314389 -18.07770368 17.97214335 -17.72167969 14.92700195 C-16.7902097 8.86846638 -14.21226811 5.03070969 -9.47167969 1.17700195 C-6.11312099 0.05748239 -3.54037116 0.02952978 0 0 Z " fill="#4388F4" transform="translate(332.4716796875,109.822998046875)"/>
<path d="M0 0 C1.61417313 -0.00143509 1.61417313 -0.00143509 3.26095581 -0.00289917 C5.5248826 -0.00357534 7.78881139 -0.00176062 10.05273438 0.00244141 C13.46228553 0.0077658 16.87170305 0.00249342 20.28125 -0.00390625 C52.08388751 -0.01666035 52.08388751 -0.01666035 67.7421875 2.8828125 C68.70552002 3.05546631 69.66885254 3.22812012 70.66137695 3.40600586 C79.237571 4.99847562 87.62672325 7.13380118 96.01806641 9.49829102 C98.69693107 10.22187959 101.39123298 10.86187551 104.08984375 11.5078125 C110.73409198 13.15717601 117.1588976 15.31066551 123.6171875 17.5703125 C125.29554688 18.14362305 125.29554688 18.14362305 127.0078125 18.72851562 C133.05650388 20.82915196 138.69650009 23.16670491 144.3671875 26.1328125 C145.79481611 26.69998583 147.23130468 27.24595682 148.6796875 27.7578125 C157.25606044 31.08031288 165.28343548 35.77600128 173.3671875 40.1328125 C173.00625 39.070625 172.6453125 38.0084375 172.2734375 36.9140625 C171.80406906 35.48718245 171.33535391 34.06008739 170.8671875 32.6328125 C170.62871094 31.93671875 170.39023437 31.240625 170.14453125 30.5234375 C168.15611152 24.38774234 167.00597445 18.8048233 170.0546875 12.8203125 C172.48873869 9.99155031 173.87668059 8.45144845 177.3671875 7.1328125 C182.28898755 6.83203583 185.3624468 7.44363106 189.4765625 10.265625 C192.65615242 13.08901621 193.83129919 15.95836697 195.1796875 20.0078125 C195.67317112 21.43449926 196.16943944 22.86022478 196.66796875 24.28515625 C197.06749756 25.4450708 197.06749756 25.4450708 197.47509766 26.62841797 C199.14757748 31.32362816 201.02596141 35.93932672 202.8671875 40.5703125 C206.15244728 48.89956586 209.25955018 57.26932408 212.17578125 65.734375 C212.89058204 67.77331495 213.65136867 69.79818842 214.5 71.78515625 C216.00900493 75.87034528 216.05177128 79.85416386 215.3671875 84.1328125 C213.45365913 87.73171777 210.74540387 89.88066825 207.3671875 92.1328125 C204.76669685 92.74933496 202.20470069 93.280804 199.578125 93.75390625 C198.80143463 93.89933365 198.02474426 94.04476105 197.22451782 94.19459534 C194.73156304 94.6596598 192.23694543 95.11503124 189.7421875 95.5703125 C188.11707263 95.87242965 186.4920713 96.17515819 184.8671875 96.47851562 C176.20792107 98.08904198 167.54056915 99.65090865 158.8600769 101.14305115 C155.34800389 101.75320288 151.88499619 102.44375273 148.4296875 103.3203125 C142.37503323 104.69051472 136.12379295 105.3848342 130.4296875 102.5078125 C126.98395376 99.83561083 125.64729097 98.29314877 124.3671875 94.1328125 C124.3671875 88.57367836 125.01686677 85.79247484 128.79785156 81.47949219 C131.58960248 79.08383287 134.7045868 78.47855732 138.2421875 77.7578125 C138.92410156 77.59410156 139.60601562 77.43039063 140.30859375 77.26171875 C144.74412337 76.25633204 148.82502531 75.97863989 153.3671875 76.1328125 C153.3671875 75.4728125 153.3671875 74.8128125 153.3671875 74.1328125 C152.48675781 73.854375 151.60632813 73.5759375 150.69921875 73.2890625 C147.67703531 72.24033296 144.92737336 71.03055499 142.0546875 69.6328125 C118.43531927 58.65517431 94.45716683 50.62717465 68.8671875 45.8203125 C68.21040009 45.69684448 67.55361267 45.57337646 66.87692261 45.44616699 C49.50920602 42.22167964 32.8746776 40.72843982 15.2421875 40.7578125 C14.2390451 40.75702698 13.23590271 40.75624146 12.20236206 40.75543213 C-7.23696212 40.77359773 -26.87871201 41.5534676 -45.6328125 47.1328125 C-47.81784088 47.48198058 -50.00565567 47.81395462 -52.1953125 48.1328125 C-60.64324275 49.56393969 -68.70944573 52.24805641 -76.8203125 54.9453125 C-77.77177658 55.25795044 -77.77177658 55.25795044 -78.74246216 55.5769043 C-86.68902877 58.20083235 -94.30177965 61.20080451 -101.84594727 64.82568359 C-104.32977791 65.99067959 -106.80856199 67.0018379 -109.3828125 67.9453125 C-134.29029398 77.73903094 -157.7080015 94.51113825 -177.6328125 112.1328125 C-178.468125 112.85726562 -179.3034375 113.58171875 -180.1640625 114.328125 C-191.23197 124.06644621 -201.61610714 134.45791594 -210.6328125 146.1328125 C-211.64943873 147.42081044 -212.66638921 148.70855248 -213.68359375 149.99609375 C-231.63227937 172.88887249 -249.23140214 199.52954953 -256.9609375 227.85546875 C-257.68185021 230.29902752 -258.59196319 232.59351127 -259.5703125 234.9453125 C-263.42013027 244.42403049 -265.96321326 254.10699495 -268.1953125 264.0703125 C-268.39310303 264.93164795 -268.59089355 265.7929834 -268.79467773 266.68041992 C-272.76103684 284.96819774 -274.12635282 303.02514904 -274.02392578 321.71020508 C-274.00780991 325.19587208 -274.02389619 328.68038285 -274.04296875 332.16601562 C-274.05973528 350.97025536 -271.93340081 368.83120576 -267.6328125 387.1328125 C-267.26869853 388.77455512 -266.90548512 390.41649762 -266.54296875 392.05859375 C-263.08832671 407.43668604 -258.47001055 421.90027778 -251.6328125 436.1328125 C-250.89186731 437.7363506 -250.15243302 439.34058724 -249.4140625 440.9453125 C-241.83537184 457.30381097 -232.93061251 471.93541271 -222.6484375 486.72265625 C-212.7177978 501.11575856 -212.7177978 501.11575856 -213.6328125 510.1328125 C-215.81334152 516.78916424 -219.21503298 522.01314617 -225.3828125 525.5078125 C-229.82363774 527.49823888 -233.83832811 527.95074632 -238.6328125 527.1328125 C-255.85012094 520.3688699 -266.855474 495.38002556 -275.6328125 480.1328125 C-276.05868652 479.39466309 -276.48456055 478.65651367 -276.92333984 477.89599609 C-285.95262354 462.16598174 -285.95262354 462.16598174 -288.7890625 454.37890625 C-289.7096025 451.92839467 -290.81123378 449.61684164 -291.9453125 447.2578125 C-297.8154286 434.4486394 -301.97095075 420.94248317 -305.12939453 407.23583984 C-305.67482992 404.95728482 -306.27193849 402.69651291 -306.87890625 400.43359375 C-309.85097762 389.25820751 -311.95514643 378.16891797 -313.32421875 366.68603516 C-313.61091564 364.31398133 -313.93225867 361.94899304 -314.2578125 359.58203125 C-318.99078981 322.14596302 -316.25395763 282.55820359 -306.6328125 246.1328125 C-306.17513575 244.31526659 -305.71811806 242.49755461 -305.26171875 240.6796875 C-292.84796354 192.26220156 -268.11093301 146.27946722 -234.6328125 109.1328125 C-234.13394531 108.57754883 -233.63507813 108.02228516 -233.12109375 107.45019531 C-223.80459678 97.1218166 -214.32473633 87.03274773 -203.4140625 78.359375 C-200.61446161 76.11812148 -197.91097727 73.78719195 -195.1953125 71.4453125 C-168.22679435 49.04655609 -135.71030025 30.72754844 -102.6328125 19.1328125 C-101.81925293 18.84132324 -101.00569336 18.54983398 -100.16748047 18.24951172 C-75.41656776 9.49381539 -48.89698148 2.81475436 -22.6328125 1.1328125 C-20.95907607 0.96513789 -19.28550549 0.79580339 -17.61206055 0.62524414 C-11.73099326 0.0872053 -5.90249417 -0.01188315 0 0 Z " fill="#408AF4" transform="translate(346.6328125,25.8671875)"/>
<path d="M0 0 C0.98742187 -0.01933594 1.97484375 -0.03867188 2.9921875 -0.05859375 C9.74452901 1.01066731 13.72708013 4.54012315 17.6875 9.875 C18.09750244 10.42720215 18.50750488 10.9794043 18.92993164 11.54833984 C53.78717599 59.19105992 76.80899383 112.65191193 84.125 171.4375 C84.24214355 172.33645996 84.35928711 173.23541992 84.47998047 174.16162109 C87.72894497 199.86850964 86.9702911 226.01538495 83.48779297 251.63574219 C83.16835042 254.10271573 82.90846606 256.56137721 82.69140625 259.0390625 C81.65097219 270.60576307 78.83098787 281.61674485 75.82714844 292.81152344 C75.26501873 294.91384162 74.72626101 297.02240372 74.1953125 299.1328125 C67.19629302 325.72908652 55.62885992 351.14181594 41.125 374.4375 C40.55483154 375.35885742 40.55483154 375.35885742 39.97314453 376.29882812 C32.13843494 388.90234359 23.60065449 401.01097547 14.125 412.4375 C13.70605469 412.94667969 13.28710938 413.45585938 12.85546875 413.98046875 C7.49389117 420.48543751 2.02934163 426.70426167 -4.0234375 432.5859375 C-5.99879933 434.48776439 -5.99879933 434.48776439 -7.9375 437.0625 C-10.23475768 439.87849328 -12.80821445 442.08907 -15.5703125 444.44140625 C-18.04703401 446.58649895 -20.42245479 448.82137858 -22.8125 451.0625 C-47.07661464 473.12078604 -78.90365979 495.21877924 -109.875 506.4375 C-111.59626165 507.13487299 -113.31735012 507.83270107 -115.03564453 508.53735352 C-118.30303068 509.86905454 -121.58898669 511.15262637 -124.875 512.4375 C-126.04546875 512.90027344 -127.2159375 513.36304688 -128.421875 513.83984375 C-153.35539507 523.34653553 -179.3978483 528.76662697 -205.875 531.4375 C-206.62739456 531.52109772 -207.37978912 531.60469543 -208.15498352 531.69082642 C-213.9600816 532.3161042 -219.70598392 532.63544308 -225.54296875 532.7109375 C-226.44451691 532.72337494 -227.34606506 532.73581238 -228.27493286 532.74862671 C-246.72287759 532.95296238 -264.88132869 532.62929379 -283.1875 530.1875 C-283.96709076 530.08507996 -284.74668152 529.98265991 -285.54989624 529.87713623 C-296.49998444 528.40253464 -307.16526227 526.13354314 -317.875 523.4375 C-318.87877686 523.1890332 -319.88255371 522.94056641 -320.91674805 522.68457031 C-348.96042328 515.62534476 -375.72015012 504.72582466 -400.875 490.4375 C-401.535 490.1075 -402.195 489.7775 -402.875 489.4375 C-402.5140625 490.19933594 -402.153125 490.96117187 -401.78125 491.74609375 C-396.41490154 503.68621907 -396.41490154 503.68621907 -397.875 510.4375 C-399.85816766 514.26218048 -401.95027477 517.52817421 -405.875 519.4375 C-410.62331908 520.25461036 -413.886734 519.98864835 -418.125 517.625 C-426.02652215 509.74506671 -428.95468709 495.53756474 -432.8046875 485.28515625 C-434.58813144 480.54015395 -436.38710452 475.80109049 -438.1875 471.0625 C-438.51274658 470.20156738 -438.83799316 469.34063477 -439.1730957 468.45361328 C-440.55401813 464.81537932 -441.95673404 461.22138401 -443.5703125 457.6796875 C-445.51885737 452.83749516 -445.80146029 448.5669265 -444.875 443.4375 C-442.79687661 439.43122089 -440.45069217 437.03599966 -436.21655273 435.42773438 C-432.64305738 434.36876622 -429.20206027 433.77430616 -425.51171875 433.25390625 C-424.45999481 433.10364487 -424.45999481 433.10364487 -423.38702393 432.9503479 C-421.11299508 432.62744945 -418.83788128 432.31321509 -416.5625 432 C-414.98704432 431.77981982 -413.41160499 431.55952267 -411.83618164 431.33911133 C-402.50299532 430.0409449 -393.16385757 428.78552449 -383.8125 427.625 C-382.84078857 427.50133057 -381.86907715 427.37766113 -380.86791992 427.25024414 C-365.13609472 425.36861886 -365.13609472 425.36861886 -359.4375 428.0625 C-356.52107678 430.7655264 -355.13390401 432.66078797 -353.875 436.4375 C-354.04193539 441.1951585 -354.86998466 444.70713613 -357.875 448.4375 C-362.8318377 451.44837668 -367.61484797 452.30264528 -373.25 453.125 C-374.08144531 453.25455078 -374.91289062 453.38410156 -375.76953125 453.51757812 C-377.80331929 453.83316592 -379.83898999 454.13658028 -381.875 454.4375 C-347.04685643 473.32655008 -307.79832212 488.8693244 -267.75390625 490.9921875 C-266.97277969 491.03423309 -266.19165314 491.07627869 -265.38685608 491.11959839 C-257.04579475 491.53184876 -248.71086046 491.58871147 -240.36108398 491.56787109 C-237.81032393 491.56249541 -235.25973928 491.56786812 -232.70898438 491.57421875 C-217.85310632 491.58279594 -203.19895125 491.36381184 -188.625 488.1875 C-187.56200684 487.96280029 -186.49901367 487.73810059 -185.40380859 487.5065918 C-183.24470254 487.04586003 -181.08693966 486.57878241 -178.93066406 486.10498047 C-176.14285097 485.49600947 -173.35048698 484.91854013 -170.5546875 484.34765625 C-129.20547377 475.57311863 -90.57286477 454.85419439 -57.875 428.4375 C-57.33198242 427.99889648 -56.78896484 427.56029297 -56.22949219 427.10839844 C-42.15020741 415.62331424 -28.96297177 402.8518633 -17.875 388.4375 C-16.96541956 387.29277617 -16.05383647 386.14964174 -15.140625 385.0078125 C32.43535758 325.36247796 53.01161304 251.96915675 45.38525391 176.16699219 C45.14785995 173.67725067 44.95970999 171.19060841 44.79296875 168.6953125 C41.33341924 121.9788048 19.68331248 77.2845216 -6.0703125 39.07421875 C-6.710896 38.11805664 -7.35147949 37.16189453 -8.01147461 36.17675781 C-9.20760545 34.4185254 -10.42799153 32.67641592 -11.67797852 30.95605469 C-16.53547 24.15859218 -17.21205918 18.74921862 -15.875 10.4375 C-13.01182061 3.44249669 -7.38752298 0.00959419 0 0 Z " fill="#587DF9" transform="translate(603.875,140.5625)"/>
<path d="M0 0 C0.68078613 0.30599121 1.36157227 0.61198242 2.06298828 0.92724609 C15.3916734 7.02523591 26.32568828 14.93515143 37 25 C37.73863281 25.66257813 38.47726562 26.32515625 39.23828125 27.0078125 C59.59904662 46.03048139 71.80085924 75.60610288 73.10498047 103.22314453 C74.09909682 133.25039805 66.51072426 161.99008144 46.875 185.19921875 C45 187 45 187 42 188 C41.61521484 187.21689453 41.61521484 187.21689453 41.22265625 186.41796875 C32.62018121 169.8792036 18.6328542 158.0314231 1 152 C-8.04920339 149.36084472 -17.3589165 149.70828478 -26.6875 149.734375 C-28.39803116 149.73302483 -30.10856194 149.73108138 -31.8190918 149.72857666 C-35.38952315 149.72564193 -38.95985386 149.72986957 -42.53027344 149.73925781 C-47.08259596 149.75065133 -51.63468256 149.74408297 -56.18699646 149.73211288 C-59.7148208 149.72484949 -63.24259017 149.72720268 -66.77041626 149.73236847 C-68.44796782 149.7336926 -70.12552455 149.73210113 -71.80307007 149.72740936 C-83.59495522 149.70165884 -94.28141666 150.03137608 -104.9375 155.5625 C-105.62207275 155.91401123 -106.30664551 156.26552246 -107.01196289 156.62768555 C-120.18582298 163.63098188 -131.01846793 174.21646957 -137 188 C-147.34452008 184.046831 -154.60746094 167.7237808 -159.05419922 158.19384766 C-161.72852696 151.99056704 -163.43763743 145.55597986 -165 139 C-165.31839844 137.7521875 -165.63679687 136.504375 -165.96484375 135.21875 C-172.65635023 105.36908053 -166.12259988 72.82017857 -150 47 C-131.89145861 20.27295496 -104.81932552 -0.82750237 -72.73339844 -7.4831543 C-48.61332631 -11.83681104 -22.42809705 -10.13152501 0 0 Z " fill="#FDFDFE" transform="translate(408,228)"/>
<path d="M0 0 C10.21428015 7.0017243 18.0195418 19.17126205 21.3125 31.0625 C24.45157938 47.89394468 21.67302444 64.19675906 12.3671875 78.51171875 C4.33660929 89.51174333 -8.67059823 98.11649676 -22 101 C-34.81930942 102.15255512 -47.55335654 102.44584036 -59 96 C-60.47146484 95.18595703 -60.47146484 95.18595703 -61.97265625 94.35546875 C-73.4007714 87.54166658 -83.33246959 77.03898185 -87.48046875 64.11328125 C-91.44881571 47.97135865 -91.40908316 32.2673797 -82.71484375 17.62109375 C-63.11383024 -12.33854194 -29.83482527 -17.33158328 0 0 Z " fill="#3D8BF2" transform="translate(394,261)"/>
<path d="M0 0 C4.9983498 3.42851632 6.86189496 6.01699247 8.8125 11.875 C9.30598362 13.30168676 9.80225194 14.72741228 10.30078125 16.15234375 C10.56713379 16.92562012 10.83348633 17.69889648 11.10791016 18.49560547 C12.78038998 23.19081566 14.65877391 27.80651422 16.5 32.4375 C19.78525978 40.76675336 22.89236268 49.13651158 25.80859375 57.6015625 C26.52339454 59.64050245 27.28418117 61.66537592 28.1328125 63.65234375 C29.64181743 67.73753278 29.68458378 71.72135136 29 76 C27.08647163 79.59890527 24.37821637 81.74785575 21 84 C19.68 84 18.36 84 17 84 C17 83.34 17 82.68 17 82 C18.11375 81.5875 19.2275 81.175 20.375 80.75 C22.62220347 79.76486232 23.83198547 79.19723445 25.4375 77.3125 C27.11570716 70.41320389 25.79809347 65.67715228 22.875 59.39453125 C21.91803774 56.77570149 21.84279341 54.76585348 22 52 C21.01 51.505 21.01 51.505 20 51 C19.20907523 48.90433802 18.51473015 46.77165005 17.875 44.625 C17.52179687 43.46226563 17.16859375 42.29953125 16.8046875 41.1015625 C16 38 16 38 16 35 C15.34 35 14.68 35 14 35 C13.4121875 33.2365625 13.4121875 33.2365625 12.8125 31.4375 C12.54050781 30.62539062 12.26851562 29.81328125 11.98828125 28.9765625 C11.24741741 26.74518603 10.51745038 24.51018661 9.79296875 22.2734375 C9.36198832 20.95312201 8.93099871 19.63280952 8.5 18.3125 C8.0978125 17.07113281 7.695625 15.82976563 7.28125 14.55078125 C5.37503778 8.30348431 5.37503778 8.30348431 1 4 C1 3.34 1 2.68 1 2 C-0.77155654 2.11429397 -2.54226229 2.24183037 -4.3125 2.375 C-5.79169922 2.47941406 -5.79169922 2.47941406 -7.30078125 2.5859375 C-10.21528433 2.83865472 -10.21528433 2.83865472 -13 5 C-15.11301231 8.89239109 -15.7902801 12.66105829 -15 17 C-13.77394722 20.39235549 -12.43104411 23.70238878 -10.99609375 27.01171875 C-10.00187859 29.99436424 -9.84030938 31.1459111 -11 34 C-19.00994792 16.80097476 -19.00994792 16.80097476 -18 8 C-14.03765646 0.22206639 -8.40110689 -2.86934357 0 0 Z " fill="#676EFD" transform="translate(533,34)"/>
<path d="M0 0 C0.98742187 -0.01933594 1.97484375 -0.03867188 2.9921875 -0.05859375 C9.74452901 1.01066731 13.72708013 4.54012315 17.6875 9.875 C18.30250366 10.70330322 18.30250366 10.70330322 18.92993164 11.54833984 C33.21338186 31.07089343 45.63723675 51.65059927 56.125 73.4375 C55.465 74.0975 54.805 74.7575 54.125 75.4375 C53.38056641 73.93123047 53.38056641 73.93123047 52.62109375 72.39453125 C48.69157479 64.47518883 44.67081285 56.64269009 40.375 48.9140625 C39.125 46.4375 39.125 46.4375 39.125 44.4375 C38.465 44.4375 37.805 44.4375 37.125 44.4375 C36.45345067 43.14836513 35.78791141 41.85609796 35.125 40.5625 C34.75375 39.84320313 34.3825 39.12390625 34 38.3828125 C33.125 36.4375 33.125 36.4375 33.125 34.4375 C32.465 34.4375 31.805 34.4375 31.125 34.4375 C30.63 32.4575 30.63 32.4575 30.125 30.4375 C29.465 30.4375 28.805 30.4375 28.125 30.4375 C27.30932826 29.00179734 26.49757907 27.56386566 25.6875 26.125 C25.23503906 25.32449219 24.78257812 24.52398437 24.31640625 23.69921875 C23.125 21.4375 23.125 21.4375 22.125 18.4375 C21.465 18.4375 20.805 18.4375 20.125 18.4375 C18.86328125 16.6796875 18.86328125 16.6796875 17.4375 14.3125 C14.35690691 9.53720411 10.73609586 4.65311643 5.15234375 2.7734375 C-0.01774616 1.91673667 -4.41464073 2.81018428 -8.75 5.625 C-11.92435777 8.09796209 -13.04200658 10.45764254 -13.875 14.4375 C-14.535 14.1075 -15.195 13.7775 -15.875 13.4375 C-15.36945676 9.01399669 -13.92484798 6.65678398 -10.875 3.4375 C-7.1615081 0.78956334 -4.54918402 0.00590803 0 0 Z " fill="#7462FE" transform="translate(603.875,140.5625)"/>
<path d="M0 0 C4.00691686 1.25553736 7.67035079 2.73287125 11.40234375 4.65234375 C43.81163479 20.99776807 77.03643368 30.82006246 113 36 C113 36.33 113 36.66 113 37 C96.53125 37.265625 96.53125 37.265625 92 35 C90.68 35 89.36 35 88 35 C88 34.34 88 33.68 88 33 C86.906875 33.061875 85.81375 33.12375 84.6875 33.1875 C76.88775426 33.1875 69.50754819 30.20094332 62.21484375 27.6953125 C58.53490849 26.54005946 54.77860932 25.75929502 51 25 C51 24.34 51 23.68 51 23 C49.741875 22.7525 48.48375 22.505 47.1875 22.25 C39.99410369 20.64392724 33.12546596 18.16717591 26.5625 14.8125 C23.83496984 13.42480922 21.90110446 12.63122932 19 12 C19 11.34 19 10.68 19 10 C17.7625 9.9071875 17.7625 9.9071875 16.5 9.8125 C12.61405068 8.91040462 10.18382221 7.39019191 6.90234375 5.2109375 C4.70106395 3.80971216 2.46475298 2.84725884 0 2 C0 1.34 0 0.68 0 0 Z " fill="#2681F1" transform="translate(221,596)"/>
<path d="M0 0 C0 0.33 0 0.66 0 1 C-0.81678223 1.10546143 -1.63356445 1.21092285 -2.47509766 1.31958008 C-5.52905225 1.71915684 -8.58150805 2.12844783 -11.63330078 2.54418945 C-13.59439068 2.80837648 -15.55696022 3.0615039 -17.51953125 3.31445312 C-18.76347656 3.48525391 -20.00742188 3.65605469 -21.2890625 3.83203125 C-23.00150146 4.05983276 -23.00150146 4.05983276 -24.74853516 4.29223633 C-29.77293337 5.38592385 -33.11241674 6.66862512 -36 11 C-37.69140871 16.2043345 -36.32276183 20.26379864 -34.7890625 25.31640625 C-34 28 -34 28 -33.5234375 30.77734375 C-33.26433594 31.87755859 -33.26433594 31.87755859 -33 33 C-32.34 33.33 -31.68 33.66 -31 34 C-31 35.32 -31 36.64 -31 38 C-30.34 38.33 -29.68 38.66 -29 39 C-27.9296875 41.109375 -27.9296875 41.109375 -26.875 43.75 C-26.52179688 44.61109375 -26.16859375 45.4721875 -25.8046875 46.359375 C-24.98213194 49.05863498 -24.84876004 51.19701945 -25 54 C-24.34 54 -23.68 54 -23 54 C-22.13475247 56.43407005 -21.28257135 58.87143184 -20.4375 61.3125 C-20.19064453 62.00279297 -19.94378906 62.69308594 -19.68945312 63.40429688 C-17.88671875 68.66015625 -17.88671875 68.66015625 -19 72 C-20.40395967 68.64214255 -21.80301075 65.28227147 -23.19970703 61.92138672 C-24.03486888 59.9162849 -24.87492037 57.91326763 -25.71484375 55.91015625 C-29.02173971 47.98907149 -32.13543382 40.05884051 -34.93359375 31.94140625 C-35.77637269 29.61681819 -36.6965605 27.50804609 -37.8125 25.3125 C-39.54497538 20.47980553 -39.91472978 16.06447954 -39 11 C-36.88664632 6.9258027 -34.49381161 4.60132247 -30.234375 2.88671875 C-20.39217585 0.18843468 -10.15646386 -0.34044013 0 0 Z " fill="#2B87F1" transform="translate(198,573)"/>
<path d="M0 0 C4.6889493 0.55619669 8.19924267 1.88182673 12.375 4.0625 C13.43460938 4.61035156 14.49421875 5.15820312 15.5859375 5.72265625 C16.38257813 6.14417969 17.17921875 6.56570313 18 7 C18 7.66 18 8.32 18 9 C18.59167969 9.19335938 19.18335938 9.38671875 19.79296875 9.5859375 C23.9157143 10.94449313 27.99091064 12.3295461 32 14 C34.65632113 15.0751776 37.28033069 16.09344356 40 17 C40 17.66 40 18.32 40 19 C40.56847656 19.12117187 41.13695312 19.24234375 41.72265625 19.3671875 C46.54245464 20.41322054 51.2732934 21.59204484 56 23 C56 23.66 56 24.32 56 25 C56.58007812 25.12117187 57.16015625 25.24234375 57.7578125 25.3671875 C62.28028442 26.33735474 66.63750966 27.43397783 71 29 C71 29.33 71 29.66 71 30 C64.74051641 29.48914736 59.41651005 28.42621614 53.5625 26.1875 C52.37116455 25.73987305 52.37116455 25.73987305 51.15576172 25.28320312 C34.97164798 19.03745952 19.0861419 11.56915045 4 3 C3.34 2.67 2.68 2.34 2 2 C2.30035156 2.75925781 2.60070312 3.51851562 2.91015625 4.30078125 C3.29042969 5.29464844 3.67070312 6.28851562 4.0625 7.3125 C4.44535156 8.29863281 4.82820312 9.28476562 5.22265625 10.30078125 C6 13 6 13 5 16 C4.1605118 13.89828133 3.32860344 11.79353375 2.5 9.6875 C2.0359375 8.51574219 1.571875 7.34398437 1.09375 6.13671875 C0 3 0 3 0 0 Z " fill="#3088F1" transform="translate(199,628)"/>
<path d="M0 0 C2.86745756 0.23520158 5.734648 0.4730968 8.6015625 0.71484375 C10.80426252 0.899668 13.00737558 1.07965865 15.2109375 1.25390625 C16.68433594 1.37572266 16.68433594 1.37572266 18.1875 1.5 C19.53908203 1.60828125 19.53908203 1.60828125 20.91796875 1.71875 C23 2 23 2 24 3 C26.64984799 3.21128356 29.28339897 3.37612666 31.9375 3.5 C39.73130393 3.86565197 39.73130393 3.86565197 42 5 C50.79378128 6.15258298 59.70972206 6.10300469 68.5625 6.125 C70.13281982 6.13188843 70.13281982 6.13188843 71.73486328 6.13891602 C73.22928955 6.13589478 73.22928955 6.13589478 74.75390625 6.1328125 C75.64408447 6.13168457 76.5342627 6.13055664 77.45141602 6.12939453 C80.05782283 5.99706427 82.4529482 5.5515618 85 5 C86.53901198 4.89007057 88.0821239 4.82575495 89.625 4.8125 C90.38039063 4.79832031 91.13578125 4.78414062 91.9140625 4.76953125 C94 5 94 5 97 7 C91.87901114 8.02182144 86.92278165 8.20787665 81.72265625 8.2734375 C80.8149498 8.2857843 79.90724335 8.2981311 78.97203064 8.31085205 C76.00215302 8.34326347 73.03252431 8.36197775 70.0625 8.375 C69.04921631 8.37989441 68.03593262 8.38478882 66.99194336 8.38983154 C52.18142729 8.41925217 37.67806397 7.60931997 23 5.625 C21.76070236 5.45855988 21.76070236 5.45855988 20.49636841 5.28875732 C18.16218085 4.96824377 15.83071452 4.63386957 13.5 4.2890625 C12.48582253 4.14044769 12.48582253 4.14044769 11.45115662 3.98883057 C7.4697983 3.36091616 3.78662908 2.37542873 0 1 C0 0.67 0 0.34 0 0 Z " fill="#257CF0" transform="translate(297,665)"/>
<path d="M0 0 C26.51554259 3.75266525 26.51554259 3.75266525 33 11 C34.44502481 13.89004963 34.15934686 16.4202196 34.19287109 19.64941406 C34.20513733 20.67415077 34.20513733 20.67415077 34.21765137 21.71958923 C34.2425028 23.98492558 34.25902228 26.25019918 34.2734375 28.515625 C34.27876118 29.28961388 34.28408485 30.06360275 34.28956985 30.86104584 C34.31630278 34.95927439 34.33567552 39.0574725 34.35009766 43.15576172 C34.36672908 47.38389509 34.41149272 51.6112465 34.4624691 55.83908463 C34.49617034 59.09396227 34.50767824 62.34865515 34.51332474 65.6036911 C34.52003137 67.16180128 34.53523839 68.71989955 34.55921555 70.27783966 C34.59092956 72.46353781 34.59089593 74.64713885 34.58349609 76.83300781 C34.59562637 78.69593475 34.59562637 78.69593475 34.60800171 80.59649658 C33.79251097 85.16149282 32.28197976 86.75803752 29 90 C25.6875 91.375 25.6875 91.375 23 92 C23 91.01 23 90.02 23 89 C23.763125 88.9175 24.52625 88.835 25.3125 88.75 C28.59282427 87.83456067 29.3341214 86.91528755 31 84 C32.17107016 80.46454033 32.1204891 77.10020338 32.11352539 73.39550781 C32.11367142 72.74143448 32.11381744 72.08736115 32.1139679 71.41346741 C32.11327341 69.25998574 32.10550283 67.10659148 32.09765625 64.953125 C32.09579042 63.45668586 32.09436729 61.96024612 32.09336853 60.46380615 C32.08955635 56.53141585 32.07973717 52.59906268 32.06866455 48.66668701 C32.05842249 44.65149437 32.05386492 40.6362957 32.04882812 36.62109375 C32.03811372 28.74737883 32.02105291 20.87369404 32 13 C31.34 12.67 30.68 12.34 30 12 C29.360625 11.319375 28.72125 10.63875 28.0625 9.9375 C26.10721061 7.65766227 26.10721061 7.65766227 23 8 C23 7.34 23 6.68 23 6 C21.783125 6.04125 20.56625 6.0825 19.3125 6.125 C15.68856901 6.125 13.34617016 5.43407293 10 4 C6.68352432 3.2413626 3.34655517 2.61082755 0 2 C0 1.34 0 0.68 0 0 Z " fill="#4254FE" transform="translate(565,301)"/>
<path d="M0 0 C4.6073073 -0.31774533 7.1253016 -0.42909733 11.3125 1.625 C14.35498532 4.31370796 15.71608379 6.14825136 17 10 C16.83306461 14.7576585 16.00501534 18.26963613 13 22 C5.74679152 27.02145203 -4.42439675 27.32983089 -13 27 C-12.0409375 26.5359375 -12.0409375 26.5359375 -11.0625 26.0625 C-9.06389179 25.1654837 -9.06389179 25.1654837 -8 24 C-6 24 -4 24 -2 24 C-0.02463255 23.65213292 -0.02463255 23.65213292 2 23 C9.4375 20.875 9.4375 20.875 13 20 C13.05402274 17.89611431 13.09280256 15.79183286 13.125 13.6875 C13.14820313 12.51574219 13.17140625 11.34398437 13.1953125 10.13671875 C13.25320618 6.83606339 13.25320618 6.83606339 11 4 C7.43251923 2.21625961 3.93245986 1.54871533 0 1 C0 0.67 0 0.34 0 0 Z " fill="#2D86F1" transform="translate(233,567)"/>
<path d="M0 0 C0.33 0 0.66 0 1 0 C2.0314249 4.2373434 2.14542331 8.34401448 2.1328125 12.6796875 C2.13376923 13.41067657 2.13472595 14.14166565 2.13571167 14.89480591 C2.1363899 16.43621914 2.13456058 17.97763528 2.13037109 19.51904297 C2.12503324 21.86041796 2.13032022 24.2015998 2.13671875 26.54296875 C2.1360576 28.04687542 2.13477569 29.55078197 2.1328125 31.0546875 C2.13483673 31.74658173 2.13686096 32.43847595 2.13894653 33.15133667 C2.11810413 37.54202561 1.70717821 41.68038414 1 46 C-1.50388272 42.19796852 -1.27259294 38.33030218 -1.23046875 33.9453125 C-1.23001053 33.16614471 -1.22955231 32.38697693 -1.2290802 31.584198 C-1.22606426 29.9384407 -1.21819764 28.2926861 -1.20581055 26.64697266 C-1.18761505 24.14084638 -1.18530064 21.63509156 -1.18554688 19.12890625 C-1.18062863 17.5260385 -1.17479898 15.92317324 -1.16796875 14.3203125 C-1.16685593 13.57637238 -1.1657431 12.83243225 -1.16459656 12.06594849 C-1.1274189 7.94377612 -0.79838118 4.04486584 0 0 Z " fill="#766FFE" transform="translate(688,329)"/>
<path d="M0 0 C1.22111481 0.00007553 2.44222961 0.00015106 3.7003479 0.00022888 C5.03769979 0.00533587 6.37505127 0.01055187 7.71240234 0.01586914 C9.07717843 0.01773399 10.44195518 0.01915758 11.80673218 0.02015686 C15.40049077 0.02397676 18.99420902 0.03380256 22.58795166 0.04486084 C26.25442967 0.05508628 29.92091419 0.05965691 33.58740234 0.06469727 C40.78273325 0.07542529 47.97803089 0.0924954 55.17333984 0.11352539 C55.17333984 0.44352539 55.17333984 0.77352539 55.17333984 1.11352539 C53.52333984 1.44352539 51.87333984 1.77352539 50.17333984 2.11352539 C50.17333984 2.44352539 50.17333984 2.77352539 50.17333984 3.11352539 C42.90641656 3.15982089 35.63952497 3.19538032 28.37248421 3.21714973 C24.9982699 3.22759681 21.62415633 3.24177264 18.25 3.2644043 C14.37285667 3.28857424 10.49585708 3.2999905 6.61865234 3.30883789 C5.40404327 3.31916046 4.1894342 3.32948303 2.9380188 3.34011841 C1.81700775 3.34026947 0.6959967 3.34042053 -0.45898438 3.34057617 C-1.44937714 3.3450174 -2.4397699 3.34945862 -3.46017456 3.35403442 C-5.82666016 3.11352539 -5.82666016 3.11352539 -7.82666016 1.11352539 C-5.12376708 -0.23792115 -3.02596209 -0.00622626 0 0 Z " fill="#4D97F3" transform="translate(339.82666015625,631.886474609375)"/>
<path d="M0 0 C-0.33 0.66 -0.66 1.32 -1 2 C-2.093125 2.0825 -3.18625 2.165 -4.3125 2.25 C-8.15738027 2.65252444 -8.15738027 2.65252444 -10.375 5.625 C-12.15300577 9.31778121 -13 11.89460352 -13 16 C-10.99560868 19.60790437 -9.58418636 20.76407859 -5.75 22.3125 C-4.8425 22.539375 -3.935 22.76625 -3 23 C-3 23.66 -3 24.32 -3 25 C-6.97236879 24.43251874 -9.7943528 23.44641497 -13 21 C-15.49766254 17.42001703 -16 15.39011936 -16 11 C-15.20709351 6.59683843 -13.3210053 4.03222223 -10 1 C-4.06299213 -1.35433071 -4.06299213 -1.35433071 0 0 Z " fill="#5573FB" transform="translate(487,105)"/>
<path d="M0 0 C6.7572775 10.13591626 3.09146432 31.14481732 3 43 C2.67 43 2.34 43 2 43 C-0.23593697 28.66604696 -0.21712296 14.48210167 0 0 Z " fill="#2989F1" transform="translate(31,343)"/>
<path d="M0 0 C0.99 0.495 0.99 0.495 2 1 C3.7678555 7.6665696 4.71812219 14.42065488 5.625 21.25 C5.7590625 22.21679688 5.893125 23.18359375 6.03125 24.1796875 C6.61396272 28.49651846 7.0730112 32.63685064 7 37 C6.01 36.67 5.02 36.34 4 36 C3.96261719 35.25878906 3.92523437 34.51757812 3.88671875 33.75390625 C3.42378831 26.33794215 2.44491454 19.20119016 1.01635742 11.91430664 C0.24480925 7.88023913 -0.14780414 4.10638466 0 0 Z " fill="#786CFE" transform="translate(681,280)"/>
<path d="M0 0 C0.33 0 0.66 0 1 0 C0.67 18.48 0.34 36.96 0 56 C-0.33 56 -0.66 56 -1 56 C-1.14320074 49.68287889 -1.28552588 43.36573848 -1.42724609 37.04858398 C-1.47554754 34.90014195 -1.52404847 32.7517044 -1.57275391 30.60327148 C-1.6427792 27.51286967 -1.71208407 24.4224524 -1.78125 21.33203125 C-1.80312378 20.37351761 -1.82499756 19.41500397 -1.84753418 18.42744446 C-1.86755493 17.52688828 -1.88757568 16.62633209 -1.90820312 15.69848633 C-1.92596802 14.91016922 -1.94373291 14.12185211 -1.96203613 13.30964661 C-2.00209252 10.87269495 -2.00633771 8.43723655 -2 6 C-1.34 6 -0.68 6 0 6 C0 4.02 0 2.04 0 0 Z " fill="#4799F3" transform="translate(72,314)"/>
<path d="M0 0 C8.94194118 3.52258289 17.4926803 7.62389111 26.03710938 12.00830078 C27.42628885 12.71014742 28.82445203 13.39434241 30.22851562 14.06591797 C30.95232422 14.41412598 31.67613281 14.76233398 32.421875 15.12109375 C33.0828418 15.43361084 33.74380859 15.74612793 34.42480469 16.06811523 C36 17 36 17 37 19 C31.00067626 17.1668733 25.55079437 14.92678249 20 12 C20 11.34 20 10.68 20 10 C19.29875 9.87625 18.5975 9.7525 17.875 9.625 C14.82343613 8.96161655 11.94659062 8.02788045 9 7 C9 6.34 9 5.68 9 5 C8.071875 4.855625 7.14375 4.71125 6.1875 4.5625 C3 4 3 4 0 3 C0 2.01 0 1.02 0 0 Z " fill="#556EFC" transform="translate(484,49)"/>
<path d="M0 0 C27.05310554 3.82874492 27.05310554 3.82874492 33 11 C34 13.6875 34 13.6875 34 16 C33.34 16.66 32.68 17.32 32 18 C32 16.35 32 14.7 32 13 C31.34 12.67 30.68 12.34 30 12 C29.360625 11.319375 28.72125 10.63875 28.0625 9.9375 C26.10721061 7.65766227 26.10721061 7.65766227 23 8 C23 7.34 23 6.68 23 6 C21.783125 6.04125 20.56625 6.0825 19.3125 6.125 C15.68856901 6.125 13.34617016 5.43407293 10 4 C6.68352432 3.2413626 3.34655517 2.61082755 0 2 C0 1.34 0 0.68 0 0 Z " fill="#586BFD" transform="translate(565,301)"/>
<path d="M0 0 C0.66 0.99 1.32 1.98 2 3 C1.01 4.485 1.01 4.485 0 6 C-0.56836027 11.0648814 0.81213338 14.43921327 2.9375 19 C4.97293908 23.38846439 6.42008703 27.18452013 7 32 C6.34 32 5.68 32 5 32 C4.04027826 29.45884998 3.08218506 26.91710543 2.125 24.375 C1.85558594 23.66214844 1.58617187 22.94929688 1.30859375 22.21484375 C-3.29301721 9.98129265 -3.29301721 9.98129265 -3 5 C-2.34 5 -1.68 5 -1 5 C-0.67 3.35 -0.34 1.7 0 0 Z " fill="#5878FB" transform="translate(532,250)"/>
<path d="M0 0 C1.52519276 0.08937803 3.04681929 0.24537146 4.5625 0.4375 C5.38878906 0.53933594 6.21507812 0.64117187 7.06640625 0.74609375 C7.70449219 0.82988281 8.34257813 0.91367188 9 1 C5.5619658 3.2920228 3.44547573 3.50338422 -0.625 4 C-4.84747829 4.54962011 -8.98076741 5.14419829 -13.125 6.125 C-17 7 -17 7 -21 7 C-20.67 6.01 -20.34 5.02 -20 4 C-14.70217198 2.86763981 -9.35164708 2.21266683 -3.984375 1.5 C-1.12415168 1.31766742 -1.12415168 1.31766742 0 0 Z " fill="#516CFB" transform="translate(508,123)"/>
<path d="M0 0 C2 2 2 2 2 5 C2.66 5.33 3.32 5.66 4 6 C4.40729228 8.32156597 4.74438677 10.6568787 5 13 C5.66 13 6.32 13 7 13 C8.32 19.27 9.64 25.54 11 32 C10.01 32.495 10.01 32.495 9 33 C8.83395264 32.37544922 8.66790527 31.75089844 8.49682617 31.10742188 C7.73119239 28.23715829 6.95939077 25.36858696 6.1875 22.5 C5.92646484 21.51773437 5.66542969 20.53546875 5.39648438 19.5234375 C4.19983978 15.09142047 2.96762642 10.74904376 1.30078125 6.46875 C0 3 0 3 0 0 Z " fill="#6F67FE" transform="translate(634,245)"/>
<path d="M0 0 C1.73644261 2.57685612 2.06031165 3.66758461 1.49609375 6.77734375 C1.14675781 7.82019531 0.79742188 8.86304688 0.4375 9.9375 C0.05722656 11.07574219 -0.32304688 12.21398437 -0.71484375 13.38671875 C-1.13894531 14.57910156 -1.56304688 15.77148438 -2 17 C-2.43441406 18.22332031 -2.86882813 19.44664062 -3.31640625 20.70703125 C-6.6918526 29.8459263 -6.6918526 29.8459263 -9 31 C-8.65051078 26.89350169 -7.98531178 23.71547769 -6.1875 20 C-3.16864662 13.64160918 -1.68539223 6.80432288 0 0 Z " fill="#6669FE" transform="translate(675,439)"/>
<path d="M0 0 C6 6 6 6 6.5 9.375 C6.5 15.54342314 2.46924511 20.1855374 -1 25 C-1.33 24.34 -1.66 23.68 -2 23 C-0.75923153 20.28212622 0.58298865 17.68972811 2.12890625 15.1328125 C3.23332138 12.42872883 3.0037581 10.62856158 2.625 7.75 C2.51414062 6.85796875 2.40328125 5.9659375 2.2890625 5.046875 C2.19367187 4.37140625 2.09828125 3.6959375 2 3 C1.34 3 0.68 3 0 3 C0 2.01 0 1.02 0 0 Z " fill="#5D75FC" transform="translate(550,203)"/>
<path d="M0 0 C2.15326584 2.0164041 3.68854551 3.93698045 5.12109375 6.51171875 C5.49943359 7.18783203 5.87777344 7.86394531 6.26757812 8.56054688 C6.65365234 9.26244141 7.03972656 9.96433594 7.4375 10.6875 C7.81970703 11.37005859 8.20191406 12.05261719 8.59570312 12.75585938 C9.74823857 14.82807505 10.87694011 16.91168155 12 19 C12.59965576 20.08788818 12.59965576 20.08788818 13.21142578 21.19775391 C13.77385986 22.25422119 13.77385986 22.25422119 14.34765625 23.33203125 C14.68933838 23.96471924 15.03102051 24.59740723 15.38305664 25.24926758 C16 27 16 27 15 30 C12.01897091 26.39676234 10.09957652 22.42503683 8.0625 18.25 C7.72798828 17.57195312 7.39347656 16.89390625 7.04882812 16.1953125 C6.37397313 14.82739833 5.70160077 13.45825652 5.03173828 12.08789062 C4.31786094 10.64324343 3.59140696 9.20476816 2.85498047 7.77148438 C2.48904785 7.05798828 2.12311523 6.34449219 1.74609375 5.609375 C1.41150146 4.96452148 1.07690918 4.31966797 0.73217773 3.65527344 C0 2 0 2 0 0 Z " fill="#6A60FE" transform="translate(612,199)"/>
<path d="M0 0 C-0.33 0.66 -0.66 1.32 -1 2 C-5.00464312 3.20685 -9.14681434 3.88826683 -13.25 4.6875 C-14.39597656 4.92533203 -15.54195312 5.16316406 -16.72265625 5.40820312 C-17.82996094 5.62798828 -18.93726563 5.84777344 -20.078125 6.07421875 C-21.60034668 6.37718872 -21.60034668 6.37718872 -23.15332031 6.6862793 C-26.05080327 7.00559882 -28.19571396 6.73450179 -31 6 C-31 5.67 -31 5.34 -31 5 C-30.36497559 4.88930176 -29.72995117 4.77860352 -29.07568359 4.66455078 C-26.1746067 4.1560819 -23.27481687 3.64060426 -20.375 3.125 C-19.37597656 2.95097656 -18.37695312 2.77695313 -17.34765625 2.59765625 C-13.26754248 1.86809948 -9.40845471 1.13856667 -5.4765625 -0.1953125 C-3 -1 -3 -1 0 0 Z " fill="#5D6BFD" transform="translate(549,117)"/>
<path d="M0 0 C3.88909348 3.3335087 6.39688878 7.15443783 8 12 C7.86052261 16.18432173 7.15739575 19.40434042 5 23 C4.07220485 19.91915353 4.00108489 17.38678638 4.1875 14.1875 C4.27274356 8.94114645 2.87475544 6.31213316 0 2 C0 1.34 0 0.68 0 0 Z " fill="#5277FA" transform="translate(548,472)"/>
<path d="M0 0 C0 0.33 0 0.66 0 1 C-1.175625 1.061875 -2.35125 1.12375 -3.5625 1.1875 C-8.29911335 1.79324807 -11.69432542 3.53865653 -15 7 C-16.49638414 10.14323478 -16.49638414 10.14323478 -17 13 C-17.66 12.67 -18.32 12.34 -19 12 C-18.37680487 6.54704263 -15.90120051 3.62960044 -11.8125 0.125 C-7.73641692 -1.50543323 -4.24276248 -0.76720977 0 0 Z " fill="#796FFE" transform="translate(607,142)"/>
<path d="M0 0 C0.33 0.66 0.66 1.32 1 2 C1.66 2 2.32 2 3 2 C3.33 3.98 3.66 5.96 4 8 C4.66 8 5.32 8 6 8 C6.33 8.66 6.66 9.32 7 10 C9.57951874 10.69093896 9.57951874 10.69093896 12.5625 11.125 C13.57441406 11.29257812 14.58632812 11.46015625 15.62890625 11.6328125 C16.80259766 11.81457031 16.80259766 11.81457031 18 12 C18 12.66 18 13.32 18 14 C13.03897765 14.49610224 9.94611329 14.59570096 5.625 11.875 C2.24785562 8.17622282 0 5.10216642 0 0 Z " fill="#358AF1" transform="translate(180,646)"/>
<path d="M0 0 C0 0.33 0 0.66 0 1 C-1.65 1.33 -3.3 1.66 -5 2 C-5 2.33 -5 2.66 -5 3 C-15.56 2.67 -26.12 2.34 -37 2 C-37 1.67 -37 1.34 -37 1 C-32.52093162 0.83062157 -28.04173204 0.66498913 -23.5625 0.5 C-22.30244141 0.45230469 -21.04238281 0.40460937 -19.74414062 0.35546875 C-13.15744354 0.11470175 -6.59105693 -0.0573759 0 0 Z " fill="#7EB3F7" transform="translate(395,632)"/>
<path d="M0 0 C2 2 2 2 3.4375 5.5 C4.71343494 9.19437242 4.71343494 9.19437242 8 11 C10.04705225 11.59739945 12.11233108 12.13409983 14.1875 12.625 C15.27417969 12.88539063 16.36085938 13.14578125 17.48046875 13.4140625 C18.31191406 13.60742188 19.14335938 13.80078125 20 14 C16.52452927 15.94566951 14.87493656 16.07637127 11 15 C11 14.34 11 13.68 11 13 C10.0925 12.9175 9.185 12.835 8.25 12.75 C4.45213995 11.87357076 3.29473716 11.11428614 1 8 C-0.25 4.25 -0.25 4.25 -1 1 C-0.67 0.67 -0.34 0.34 0 0 Z " fill="#516FFC" transform="translate(541,286)"/>
<path d="M0 0 C2.31 0.33 4.62 0.66 7 1 C7 1.66 7 2.32 7 3 C8.1446875 3.3403125 8.1446875 3.3403125 9.3125 3.6875 C14.35322087 5.48165488 19.15345951 7.74058077 24 10 C23.67 10.66 23.34 11.32 23 12 C22.40985107 11.7326001 21.81970215 11.4652002 21.21166992 11.18969727 C18.53763417 9.97910605 15.86258141 8.77077872 13.1875 7.5625 C12.25873047 7.14162109 11.32996094 6.72074219 10.37304688 6.28710938 C9.48037109 5.88427734 8.58769531 5.48144531 7.66796875 5.06640625 C6.84578857 4.69459229 6.0236084 4.32277832 5.17651367 3.93969727 C2.89096703 2.91603716 2.89096703 2.91603716 0 2 C0 1.34 0 0.68 0 0 Z " fill="#5370FA" transform="translate(478,89)"/>
<path d="M0 0 C7.67028737 0.62915097 15.33667323 1.29099142 23 2 C23 2.99 23 3.98 23 5 C19.35221168 4.55641614 15.70727073 4.09268187 12.0625 3.625 C11.02158203 3.49867188 9.98066406 3.37234375 8.90820312 3.2421875 C7.91884766 3.11328125 6.92949219 2.984375 5.91015625 2.8515625 C4.99371338 2.73635254 4.07727051 2.62114258 3.13305664 2.50244141 C2.42914795 2.33663574 1.72523926 2.17083008 1 2 C0.67 1.34 0.34 0.68 0 0 Z " fill="#3489F2" transform="translate(297,665)"/>
<path d="M0 0 C0 0.66 0 1.32 0 2 C-0.78246094 2.06058594 -1.56492188 2.12117187 -2.37109375 2.18359375 C-3.88896484 2.30927734 -3.88896484 2.30927734 -5.4375 2.4375 C-6.44683594 2.51871094 -7.45617187 2.59992187 -8.49609375 2.68359375 C-10.93640779 2.73211468 -10.93640779 2.73211468 -12 4 C-14.33944736 3.71269945 -16.6739143 3.38063221 -19 3 C-13.34406272 -0.77062485 -6.58289369 -0.13434477 0 0 Z " fill="#2D86F1" transform="translate(232,568)"/>
<path d="M0 0 C0.33 0.99 0.66 1.98 1 3 C0.690625 3.598125 0.38125 4.19625 0.0625 4.8125 C-1.45568433 7.93817363 -1.51573922 9.51876028 -1 13 C0.47087658 15.70841296 2.07301876 18.26574236 3.78515625 20.828125 C4.18605469 21.54484375 4.58695313 22.2615625 5 23 C4.67 23.66 4.34 24.32 4 25 C3.01941648 23.54261898 2.04057868 22.08406325 1.0625 20.625 C0.51722656 19.81289063 -0.02804687 19.00078125 -0.58984375 18.1640625 C-2.71180457 14.90764617 -3.18104588 12.99792286 -3.25 9.125 C-3.27578125 8.26132812 -3.3015625 7.39765625 -3.328125 6.5078125 C-2.94108924 3.54975351 -1.95124005 2.20798216 0 0 Z " fill="#4671F9" transform="translate(533,431)"/>
<path d="M0 0 C0 4.04781185 -1.35080925 4.94324145 -4 8 C-4.55558594 8.65871094 -5.11117187 9.31742188 -5.68359375 9.99609375 C-8.59865948 13.41267616 -11.31372461 16.39697221 -15 19 C-11.71961725 11.71586805 -5.78702026 5.42533149 0 0 Z " fill="#2987F2" transform="translate(116,131)"/>
<path d="M0 0 C0.99 0.33 1.98 0.66 3 1 C2.401875 1.556875 1.80375 2.11375 1.1875 2.6875 C-1.00835689 5.00883443 -2.37106144 7.26338321 -4 10 C-5.61157559 12.05330263 -7.29670997 14.02050077 -9 16 C-9.66 15.67 -10.32 15.34 -11 15 C-9.3553057 12.68668225 -7.70930345 10.37431549 -6.0625 8.0625 C-5.59392578 7.40314453 -5.12535156 6.74378906 -4.64257812 6.06445312 C-1.11328125 1.11328125 -1.11328125 1.11328125 0 0 Z " fill="#2C89F1" transform="translate(99,151)"/>
<path d="M0 0 C0.99 0.33 1.98 0.66 3 1 C-1.62 5.62 -6.24 10.24 -11 15 C-11.33 14.01 -11.66 13.02 -12 12 C-8.04 8.04 -4.08 4.08 0 0 Z " fill="#308AF1" transform="translate(130,116)"/>
<path d="M0 0 C0.6875 1.625 0.6875 1.625 1 4 C-0.1875 6.6875 -0.1875 6.6875 -2 10 C-3.03386346 12.34000393 -4.03759776 14.6911947 -5.03515625 17.046875 C-6 19 -6 19 -8 21 C-9.15661707 17.53014878 -8.90024784 17.15859213 -7.3828125 14.0234375 C-7.02316406 13.270625 -6.66351562 12.5178125 -6.29296875 11.7421875 C-5.90753906 10.96101563 -5.52210938 10.17984375 -5.125 9.375 C-4.55845703 8.19164062 -4.55845703 8.19164062 -3.98046875 6.984375 C-1.1761576 1.1761576 -1.1761576 1.1761576 0 0 Z " fill="#5D6BFD" transform="translate(630,458)"/>
<path d="M0 0 C1.41702513 0.14230808 2.8336096 0.28900746 4.25 0.4375 C5.43335938 0.55931641 5.43335938 0.55931641 6.640625 0.68359375 C11.51606129 1.33741882 15.52618629 3.02119778 20 5 C20 5.33 20 5.66 20 6 C13.51570037 5.38827362 7.13473656 4.25335666 1 2 C0.67 1.34 0.34 0.68 0 0 Z " fill="#2883F0" transform="translate(271,658)"/>
<path d="M0 0 C5.94 1.98 11.88 3.96 18 6 C18 6.99 18 7.98 18 9 C17.34 9 16.68 9 16 9 C16 8.34 16 7.68 16 7 C15.45472656 6.89042969 14.90945313 6.78085937 14.34765625 6.66796875 C8.74464935 5.48990063 3.3945613 3.912965 -2 2 C-1.34 1.34 -0.68 0.68 0 0 Z " fill="#378CF1" transform="translate(256,612)"/>
<path d="M0 0 C4.72502701 0.63242669 8.90570197 1.91813563 13.375 3.5625 C14.01566406 3.79646484 14.65632813 4.03042969 15.31640625 4.27148438 C16.8793161 4.84299619 18.43990727 5.42084229 20 6 C19.34 6.66 18.68 7.32 18 8 C15.55854083 7.24023472 13.1223853 6.46782596 10.6875 5.6875 C9.99720703 5.47416016 9.30691406 5.26082031 8.59570312 5.04101562 C2.29826536 3.00271451 2.29826536 3.00271451 0 0 Z " fill="#4A71FA" transform="translate(460,41)"/>
<path d="M0 0 C1.43859375 -0.02126953 1.43859375 -0.02126953 2.90625 -0.04296875 C5.5 0.1875 5.5 0.1875 8.5 2.1875 C6.41814549 2.41012606 4.33439574 2.61507926 2.25 2.8125 C1.08984375 2.92851563 -0.0703125 3.04453125 -1.265625 3.1640625 C-4.43872091 3.18705595 -5.88317244 2.88455154 -8.5 1.1875 C-5.43301363 0.16517121 -3.21335122 0.0215951 0 0 Z " fill="#3885F2" transform="translate(385.5,669.8125)"/>
<path d="M0 0 C0.33 0 0.66 0 1 0 C1.5326514 6.258654 -0.18150494 10.45108785 -3 16 C-3.33 16 -3.66 16 -4 16 C-3.47606294 10.13190493 -2.23891142 5.45126259 0 0 Z " fill="#2888F2" transform="translate(45,257)"/>
<path d="M0 0 C0.33 0.99 0.66 1.98 1 3 C0.01 4.485 0.01 4.485 -1 6 C-1.66 6 -2.32 6 -3 6 C-2.67 9.3 -2.34 12.6 -2 16 C-5 13 -5 13 -5.5 9.6875 C-4.85097596 4.90094767 -3.32080224 3.4038223 0 0 Z " fill="#3289F2" transform="translate(170,203)"/>
<path d="M0 0 C0 4.86987641 -3.09676907 8.23327884 -6 12 C-8.875 14.5625 -8.875 14.5625 -11 16 C-9.38677027 12.44413762 -7.24743046 9.45249622 -4.9375 6.3125 C-4.22464844 5.33925781 -3.51179687 4.36601563 -2.77734375 3.36328125 C-1 1 -1 1 0 0 Z " fill="#546CFD" transform="translate(601,510)"/>
<path d="M0 0 C0.66 0.33 1.32 0.66 2 1 C-6.261959 7.51936219 -6.261959 7.51936219 -11 9 C-7.86394624 4.48408258 -4.8731652 2.3463388 0 0 Z " fill="#2B83F1" transform="translate(299,385)"/>
<path d="M0 0 C0.66 0.33 1.32 0.66 2 1 C1.42141121 4.9054743 -0.26979048 7.19600103 -3 10 C-6.25 11.3125 -6.25 11.3125 -9 12 C-9 11.01 -9 10.02 -9 9 C-8.236875 8.9175 -7.47375 8.835 -6.6875 8.75 C-3.40717573 7.83456067 -2.6658786 6.91528755 -1 4 C-0.29485154 1.85266073 -0.29485154 1.85266073 0 0 Z " fill="#576DFD" transform="translate(597,381)"/>
<path d="M0 0 C0.33 0 0.66 0 1 0 C1.50227431 5.27388024 0.32894202 7.91015695 -3 12 C-3.99 12.33 -4.98 12.66 -6 13 C-5 10 -5 10 -3.5 8.625 C-1.55719691 6.52029666 -1.42913247 4.78936105 -1 2 C-0.67 1.34 -0.34 0.68 0 0 Z " fill="#2582F0" transform="translate(205,645)"/>
<path d="M0 0 C0.66 0.33 1.32 0.66 2 1 C-1.49359465 4.59634744 -5.11098131 7.83451967 -9 11 C-9.66 10.67 -10.32 10.34 -11 10 C-5.555 5.05 -5.555 5.05 0 0 Z " fill="#2886F2" transform="translate(148,100)"/>
<path d="M0 0 C0.66 0.99 1.32 1.98 2 3 C1.01 4.485 1.01 4.485 0 6 C-0.24107326 8.28648848 -0.24107326 8.28648848 -0.125 10.6875 C-0.10695313 11.49574219 -0.08890625 12.30398438 -0.0703125 13.13671875 C-0.04710937 13.75160156 -0.02390625 14.36648438 0 15 C-3.00617269 11.99382731 -2.59585316 9.17618402 -3 5 C-2.34 5 -1.68 5 -1 5 C-0.67 3.35 -0.34 1.7 0 0 Z " fill="#4B6FFA" transform="translate(532,250)"/>
<path d="M0 0 C3.15353333 4.2047111 3.36246719 4.85091857 3.1875 9.75 C3.16042969 10.73484375 3.13335938 11.7196875 3.10546875 12.734375 C3.07066406 13.48203125 3.03585937 14.2296875 3 15 C2.34 15 1.68 15 1 15 C0.67 10.05 0.34 5.1 0 0 Z " fill="#6B66FE" transform="translate(647,290)"/>
<path d="M0 0 C0 0.66 0 1.32 0 2 C-1.43333021 2.39063507 -2.87192679 2.76198474 -4.3125 3.125 C-5.51326172 3.43824219 -5.51326172 3.43824219 -6.73828125 3.7578125 C-9 4 -9 4 -12 2 C-10.7625 1.67 -9.525 1.34 -8.25 1 C-7.55390625 0.814375 -6.8578125 0.62875 -6.140625 0.4375 C-4 0 -4 0 0 0 Z " fill="#518EF5" transform="translate(444,623)"/>
<path d="M0 0 C4.60209225 -0.17700355 6.78370866 -0.10814567 11 2 C7.37 2.33 3.74 2.66 0 3 C0 2.01 0 1.02 0 0 Z " fill="#5090F5" transform="translate(417,666)"/>
<path d="M0 0 C2.56616632 3.84924948 2.55097676 6.4349304 3 11 C2.34 11 1.68 11 1 11 C0.63743142 9.5437328 0.28520207 8.08488815 -0.0625 6.625 C-0.35833984 5.40683594 -0.35833984 5.40683594 -0.66015625 4.1640625 C-1 2 -1 2 0 0 Z " fill="#5896F5" transform="translate(403,119)"/>
<path d="M0 0 C2 1 2 1 2.8515625 3.06640625 C3.10679687 3.89011719 3.36203125 4.71382812 3.625 5.5625 C3.88539063 6.38878906 4.14578125 7.21507812 4.4140625 8.06640625 C4.60742188 8.70449219 4.80078125 9.34257812 5 10 C4.01 10.495 4.01 10.495 3 11 C1.68 7.7 0.36 4.4 -1 1 C-0.67 0.67 -0.34 0.34 0 0 Z " fill="#746BFE" transform="translate(623,218)"/>
<path d="M0 0 C2.97 0.33 5.94 0.66 9 1 C5.5647952 3.29013653 4.014669 3.17842973 0 3 C0 2.01 0 1.02 0 0 Z " fill="#6E80FC" transform="translate(508,123)"/>
<path d="M0 0 C0 0.33 0 0.66 0 1 C-5.5415502 2.96263236 -9.20858017 3.01603857 -15 2 C-15 1.67 -15 1.34 -15 1 C-9.94997778 -0.03590199 -5.12583611 -0.10251672 0 0 Z " fill="#2479F2" transform="translate(404,632)"/>
<path d="M0 0 C0.66 0.66 1.32 1.32 2 2 C1.96712417 4.72869407 1.43602229 7.2966618 1 10 C0.34 10 -0.32 10 -1 10 C-0.67 6.7 -0.34 3.4 0 0 Z " fill="#3C77F6" transform="translate(480,354)"/>
<path d="M0 0 C4.95 0.99 4.95 0.99 10 2 C9.01 2.66 8.02 3.32 7 4 C3.3125 3.125 3.3125 3.125 0 2 C0 1.34 0 0.68 0 0 Z " fill="#4091F2" transform="translate(242,648)"/>
<path d="M0 0 C4.43379675 2.21689838 6.46636932 4.77728219 9 9 C5.18063472 7.44396229 2.73955562 5.04395069 0 2 C0 1.34 0 0.68 0 0 Z " fill="#526CFB" transform="translate(539,192)"/>
<path d="M0 0 C0.99 0.33 1.98 0.66 3 1 C-0.465 3.97 -0.465 3.97 -4 7 C-3.04065919 3.16263678 -2.76390737 2.40339772 0 0 Z " fill="#398EF3" transform="translate(185,187)"/>
<path d="M0 0 C4.8333472 -0.08333357 9.23692563 0.04738513 14 1 C14 1.33 14 1.66 14 2 C9.545 2.495 9.545 2.495 5 3 C5 2.34 5 1.68 5 1 C3.35 1 1.7 1 0 1 C0 0.67 0 0.34 0 0 Z " fill="#83ADF8" transform="translate(395,27)"/>
<path d="M0 0 C1.98 0 3.96 0 6 0 C6 0.66 6 1.32 6 2 C7.65 2.33 9.3 2.66 11 3 C8.83032311 3.95465783 7.43671207 4.14401212 5.17578125 3.3984375 C3.4315257 2.64129615 1.71372869 1.82390802 0 1 C0 0.67 0 0.34 0 0 Z " fill="#2482F1" transform="translate(249,651)"/>
<path d="M0 0 C8.57142857 -0.28571429 8.57142857 -0.28571429 12 2 C11.67 2.66 11.34 3.32 11 4 C10.29875 3.690625 9.5975 3.38125 8.875 3.0625 C5.91063343 1.96697322 3.12301892 1.43577008 0 1 C0 0.67 0 0.34 0 0 Z " fill="#1C7BF0" transform="translate(233,567)"/>
<path d="M0 0 C0.66 0.66 1.32 1.32 2 2 C1.01 4.64 0.02 7.28 -1 10 C-1.66 10 -2.32 10 -3 10 C-2.01 6.7 -1.02 3.4 0 0 Z " fill="#646DFD" transform="translate(636,441)"/>
<path d="M0 0 C0 0.66 0 1.32 0 2 C-2.875 2.625 -2.875 2.625 -6 3 C-6.66 2.34 -7.32 1.68 -8 1 C-5.29120665 -0.35439668 -2.99066732 -0.06501451 0 0 Z " fill="#3A82F4" transform="translate(430,627)"/>
<path d="M0 0 C0.66 0.33 1.32 0.66 2 1 C0.35 2.98 -1.3 4.96 -3 7 C-3.66 6.67 -4.32 6.34 -5 6 C-3.35 4.02 -1.7 2.04 0 0 Z " fill="#3086F2" transform="translate(285,395)"/>
</svg>
